<svg xmlns="http://www.w3.org/2000/svg" xmlns:xlink="http://www.w3.org/1999/xlink" width="500" zoomAndPan="magnify" viewBox="0 0 375 374.999991" height="500" preserveAspectRatio="xMidYMid meet" version="1.0"><defs><g/><clipPath id="d362d928e4"><path d="M 65 121.902344 L 105.492188 121.902344 L 105.492188 184.902344 L 65 184.902344 Z M 65 121.902344 " clip-rule="nonzero"/></clipPath></defs><g fill="#1d1d1b" fill-opacity="1"><g transform="translate(118.173753, 167.783427)"><g><path d="M 2.039062 0 L 11.644531 0 C 20.191406 0 24.902344 -4.46875 24.902344 -12.453125 C 24.902344 -20.472656 20.191406 -24.9375 11.644531 -24.9375 L 2.039062 -24.9375 Z M 6.332031 -3.65625 L 6.332031 -21.28125 L 11.644531 -21.28125 C 17.339844 -21.28125 20.507812 -18.148438 20.507812 -12.453125 C 20.507812 -6.789062 17.339844 -3.65625 11.644531 -3.65625 Z M 6.332031 -3.65625 "/></g></g></g><g fill="#1d1d1b" fill-opacity="1"><g transform="translate(154.505515, 167.783427)"><g><path d="M 2.039062 0 L 6.402344 0 L 6.402344 -24.9375 L 2.039062 -24.9375 Z M 2.039062 0 "/></g></g></g><g fill="#1d1d1b" fill-opacity="1"><g transform="translate(173.218092, 167.783427)"><g><path d="M 13.789062 0.84375 C 18.21875 0.84375 21.84375 -1.265625 23.742188 -4.75 L 23.777344 -4.75 L 24.199219 0 L 27.578125 0 L 27.578125 -13.929688 L 10.867188 -13.929688 L 10.867188 -10.796875 L 23.25 -10.796875 C 23.179688 -6.226562 19.453125 -2.847656 14.667969 -2.847656 C 9.320312 -2.847656 5.523438 -6.859375 5.523438 -12.453125 C 5.523438 -18.042969 9.074219 -21.984375 14.070312 -21.984375 C 17.269531 -21.984375 20.085938 -19.910156 21.070312 -16.953125 L 25.148438 -17.972656 C 23.742188 -22.582031 19.3125 -25.820312 14.105469 -25.820312 C 6.507812 -25.820312 1.160156 -20.261719 1.160156 -12.453125 C 1.160156 -4.679688 6.402344 0.84375 13.789062 0.84375 Z M 13.789062 0.84375 "/></g></g></g><g fill="#1d1d1b" fill-opacity="1"><g transform="translate(212.468806, 167.783427)"><g><path d="M 0.28125 0 L 4.890625 0 L 6.859375 -5.453125 L 17.726562 -5.453125 L 19.664062 0 L 24.269531 0 L 14.984375 -24.9375 L 9.636719 -24.9375 Z M 7.808594 -8.863281 L 12.277344 -21.140625 L 12.347656 -21.140625 L 16.742188 -8.863281 Z M 7.808594 -8.863281 "/></g></g></g><g fill="#1d1d1b" fill-opacity="1"><g transform="translate(247.288346, 167.783427)"><g><path d="M 2.039062 0 L 6.367188 0 L 6.367188 -9.144531 L 12.945312 -9.144531 C 18.503906 -9.144531 22.300781 -12.347656 22.300781 -17.023438 C 22.300781 -21.703125 18.539062 -24.9375 12.980469 -24.9375 L 2.039062 -24.9375 Z M 6.367188 -12.628906 L 6.367188 -21.457031 L 12.523438 -21.457031 C 15.757812 -21.457031 17.9375 -19.628906 17.9375 -17.023438 C 17.9375 -14.421875 15.722656 -12.628906 12.523438 -12.628906 Z M 6.367188 -12.628906 "/></g></g></g><g fill="#1d1d1b" fill-opacity="1"><g transform="translate(280.560485, 167.783427)"><g><path d="M 2.039062 0 L 6.367188 0 L 6.367188 -9.144531 L 12.945312 -9.144531 C 18.503906 -9.144531 22.300781 -12.347656 22.300781 -17.023438 C 22.300781 -21.703125 18.539062 -24.9375 12.980469 -24.9375 L 2.039062 -24.9375 Z M 6.367188 -12.628906 L 6.367188 -21.457031 L 12.523438 -21.457031 C 15.757812 -21.457031 17.9375 -19.628906 17.9375 -17.023438 C 17.9375 -14.421875 15.722656 -12.628906 12.523438 -12.628906 Z M 6.367188 -12.628906 "/></g></g></g><g clip-path="url(#d362d928e4)"><path fill="#000000" d="M 116.785156 45.734375 C 117.039062 45.335938 117.316406 45.058594 117.621094 44.917969 C 118.199219 44.636719 118.757812 44.800781 119.265625 45.265625 C 119.429688 45.40625 119.570312 45.59375 119.730469 45.78125 C 120.007812 45.894531 120.242188 46.082031 120.378906 46.363281 C 121.496094 48.550781 122.027344 51.117188 122.003906 53.632812 C 121.980469 57.058594 121.402344 60.367188 120.519531 63.652344 C 120.265625 64.632812 119.589844 65.515625 119.265625 66.519531 C 118.453125 68.988281 117.574219 71.179688 116.96875 73.578125 C 116.832031 74.90625 116.761719 76.375 116.761719 78.007812 C 116.761719 78.03125 116.761719 78.054688 116.761719 78.054688 C 117.15625 85.347656 117.503906 91.707031 117.203125 94.363281 C 117.269531 94.667969 117.339844 94.96875 117.410156 95.25 C 117.664062 96.253906 118.128906 97.113281 118.59375 97.976562 C 118.941406 98.605469 119.289062 99.257812 119.570312 99.933594 C 119.570312 99.539062 119.589844 99.164062 119.613281 98.816406 C 119.777344 97.394531 119.984375 95.949219 120.265625 94.480469 C 120.335938 88.703125 122.328125 78.589844 125.996094 74.277344 C 126.878906 73.230469 129.199219 70.550781 131.214844 69.5 C 131.472656 69.359375 131.726562 69.269531 131.980469 69.199219 C 133.257812 68.21875 134.347656 68.125 134.90625 69.269531 C 135.207031 69.875 135.347656 70.621094 135.347656 71.410156 C 135.742188 73.742188 135.046875 76.421875 133.605469 78.308594 C 130.867188 81.875 127.78125 85.207031 125.324219 88.957031 C 124.023438 90.9375 123.558594 93.316406 122.585938 95.390625 C 122.167969 96.253906 121.820312 97.113281 121.539062 98 C 121.054688 100.121094 120.773438 102.054688 120.773438 103.5 C 120.773438 103.570312 120.75 103.640625 120.730469 103.707031 C 120.796875 104.292969 120.890625 104.851562 120.960938 105.433594 C 121.101562 106.503906 121.191406 107.554688 121.191406 108.554688 C 121.539062 111.933594 121.679688 115.359375 121.75 118.832031 C 121.796875 121.09375 121.144531 123.632812 120.542969 126.148438 C 119.941406 128.59375 118.292969 140.292969 117.898438 141.597656 C 117.527344 142.785156 117.597656 143.554688 117.25 145.140625 C 116.527344 148.519531 116.714844 151.851562 116.714844 151.851562 C 116.761719 151.757812 116.808594 151.6875 116.855469 151.59375 C 118.59375 148.660156 120.9375 145.792969 122.375 143.390625 C 127.386719 135.074219 134.628906 129.691406 134.628906 129.691406 C 135.765625 127.6875 137.15625 125.683594 138.085938 123.539062 C 138.316406 122.839844 138.199219 121.882812 138.015625 120.882812 C 137.691406 119.25 137.0625 117.527344 136.855469 116.476562 C 136.136719 112.914062 135.878906 109.535156 135.878906 105.828125 C 135.878906 103.707031 136.25 100.867188 137.25 98.511719 C 137.320312 98.371094 137.367188 98.234375 137.433594 98.09375 C 138.6875 95.4375 139.753906 94.992188 140.3125 94.667969 C 140.890625 94.316406 141.613281 94.339844 142.308594 94.621094 C 143.28125 94.992188 144.1875 95.832031 144.511719 96.578125 C 145.488281 98.863281 145.140625 101.632812 144.859375 104.105469 C 144.882812 104.96875 144.90625 105.875 144.929688 106.761719 C 144.953125 107.714844 144.929688 109.417969 144.511719 110.304688 C 143.46875 112.539062 143.191406 115.265625 141.796875 117.96875 C 141.332031 118.855469 140.707031 119.808594 140.148438 120.789062 C 140.082031 120.929688 139.988281 121.046875 139.917969 121.183594 C 139.664062 121.882812 139.382812 122.582031 139.082031 123.28125 C 139.058594 123.421875 138.921875 123.679688 138.828125 123.910156 C 138.199219 125.332031 136.949219 127.359375 136.136719 128.710938 L 137.015625 128.105469 C 138.039062 127.242188 138.964844 126.359375 139.988281 125.496094 C 140.476562 125.078125 140.777344 124.890625 141.265625 124.472656 L 141.679688 124.050781 C 142.609375 123.003906 143.144531 122.070312 144.257812 121.09375 C 144.675781 120.554688 145.789062 119.4375 147.066406 117.945312 C 148.0625 116.734375 149.175781 115.289062 150.058594 113.707031 C 152.238281 109.835938 153.398438 105.246094 153.792969 104.082031 C 154.117188 103.054688 154.488281 102.054688 154.90625 101.003906 C 155.929688 98.605469 156.996094 96.4375 158.480469 93.828125 C 160.035156 91.101562 161.914062 89.703125 163.863281 90.125 C 165.652344 90.496094 167.113281 92.152344 166.765625 94.96875 C 166.902344 95.738281 166.949219 96.484375 166.878906 97.019531 C 166.742188 98.277344 166 99.839844 165.023438 101.378906 C 163.5625 103.683594 161.519531 105.96875 160.035156 107.132812 C 158.273438 108.53125 156.554688 109.558594 154.882812 110.605469 C 154.050781 111.304688 153.261719 112.003906 152.496094 112.726562 C 152.472656 112.773438 152.425781 112.796875 152.402344 112.820312 C 151.984375 113.214844 149.429688 116.640625 148.527344 117.828125 C 148.804688 117.644531 149.058594 117.480469 149.339844 117.292969 C 149.453125 117.222656 149.617188 117.105469 149.664062 117.0625 C 151.21875 115.5 156.996094 111.234375 163.285156 107.4375 C 165.929688 105.363281 168.621094 103.453125 171.636719 101.890625 C 173.585938 100.890625 175.375 100.609375 176.648438 100.890625 C 176.71875 100.914062 176.789062 100.914062 176.835938 100.9375 C 177.554688 100.773438 178.179688 100.679688 178.714844 100.703125 C 179.757812 100.726562 180.476562 101.074219 180.824219 101.796875 C 181.242188 102.613281 181.105469 103.476562 180.664062 104.269531 C 180.082031 105.339844 178.96875 106.273438 178.203125 106.808594 C 177.648438 107.179688 177.042969 107.484375 176.394531 107.761719 C 175.210938 108.929688 173.609375 109.675781 171.914062 110.234375 C 170.011719 110.863281 168.015625 111.257812 166.324219 111.703125 C 162.84375 112.65625 152.773438 116.222656 152.261719 116.476562 C 151.914062 116.664062 151.589844 116.875 151.265625 117.0625 C 151.03125 117.222656 150.871094 117.269531 150.660156 117.433594 C 150.613281 117.480469 150.523438 117.527344 150.429688 117.574219 C 149.5 118.15625 147.597656 119.390625 147.226562 119.695312 C 146.925781 119.925781 146.484375 120.394531 146.460938 120.417969 C 145.882812 121.09375 145.253906 121.769531 144.628906 122.421875 C 143.886719 123.210938 143.097656 123.980469 142.332031 124.726562 C 141.03125 125.960938 139.6875 127.175781 138.339844 128.339844 C 137.15625 129.363281 135.949219 130.367188 134.742188 131.390625 L 134.1875 131.859375 C 133.863281 132.136719 133.535156 132.394531 133.234375 132.648438 C 133.140625 132.71875 133.050781 132.8125 132.933594 132.882812 C 132.863281 132.953125 132.769531 133 132.703125 133.070312 C 132.609375 133.164062 132.492188 133.253906 132.398438 133.324219 L 132.375 133.347656 C 133.074219 132.835938 133.839844 132.300781 134.675781 131.71875 C 139.824219 128.199219 147.4375 123.703125 153.285156 121.207031 C 155.8125 120.136719 158.015625 119.414062 159.570312 119.296875 C 160.777344 119.203125 161.613281 119.507812 162.03125 120.113281 C 162.867188 121.394531 162.65625 122.933594 161.820312 124.402344 C 161.867188 124.5625 161.890625 124.726562 161.890625 124.890625 C 161.914062 125.753906 161.40625 126.660156 160.082031 127.335938 C 155.488281 129.714844 150.453125 131.601562 145.300781 132.953125 C 142.609375 133.675781 140.21875 133.839844 137.945312 134.117188 C 136.832031 134.257812 135.742188 134.421875 134.675781 134.699219 C 132.65625 135.867188 130.636719 137.078125 128.546875 138.359375 C 127.734375 138.988281 126.945312 139.664062 126.179688 140.410156 C 124.765625 142.320312 123.375 144.253906 121.890625 146.046875 C 120.707031 147.46875 118.386719 150.5 116.574219 153.808594 C 116.480469 154.019531 114.464844 159.402344 113.511719 163.734375 L 113.488281 163.804688 C 113.257812 164.945312 113.046875 166.066406 112.816406 167.207031 L 112.792969 167.253906 C 112.675781 167.953125 112.5625 168.652344 112.445312 169.328125 C 112.351562 169.980469 112.234375 170.632812 112.144531 171.285156 C 111.886719 172.960938 111.65625 174.664062 111.425781 176.339844 L 111.425781 176.386719 C 112.539062 174.382812 113.90625 172.472656 115.367188 170.726562 C 116.832031 168.628906 118.570312 166.601562 120.613281 164.667969 C 122.816406 162.546875 125.625 161.335938 128.5 160.261719 C 128.546875 158.5625 128.734375 155.90625 128.875 155.394531 C 129.429688 153.179688 129.707031 151.5 130.800781 149.496094 C 132.050781 147.214844 133.582031 145.070312 134.8125 142.832031 C 135.230469 142.0625 135.902344 140.804688 136.738281 139.898438 C 136.878906 139.734375 137.039062 139.59375 137.179688 139.453125 C 137.25 139.359375 137.320312 139.289062 137.390625 139.222656 C 137.714844 138.894531 138.039062 138.660156 138.339844 138.546875 C 138.59375 138.453125 138.851562 138.453125 139.082031 138.546875 C 139.222656 138.613281 139.359375 138.707031 139.5 138.847656 C 139.988281 139.082031 140.335938 139.59375 140.542969 140.269531 C 141.171875 142.367188 140.542969 146.164062 140.105469 147.285156 C 138.875 150.265625 135.925781 154.761719 132.632812 158.328125 C 132.539062 158.445312 132.421875 158.5625 132.332031 158.65625 C 132.261719 158.726562 132.214844 158.816406 132.144531 158.886719 C 133.558594 158.351562 134.929688 157.769531 136.230469 157.046875 C 139.058594 154.972656 141.355469 151.40625 143.539062 148.84375 C 144.976562 147.167969 146.414062 144.882812 148.109375 142.902344 C 149.871094 140.851562 151.890625 139.175781 154.375 138.753906 C 155.859375 138.5 156.742188 138.753906 157.179688 139.246094 C 157.644531 139.757812 157.714844 140.550781 157.4375 141.480469 C 157.136719 142.507812 156.460938 143.695312 155.695312 144.8125 C 155.347656 145.746094 155.023438 146.515625 154.882812 146.839844 C 154.070312 148.84375 151.773438 150.59375 149.015625 152.128906 C 146.671875 153.433594 143.980469 154.601562 141.613281 155.671875 C 138.109375 157.582031 134.488281 159.308594 130.960938 161.101562 C 130.800781 161.21875 130.636719 161.335938 130.472656 161.453125 C 130.382812 161.519531 130.242188 161.542969 130.125 161.519531 C 129.105469 162.035156 128.085938 162.570312 127.085938 163.105469 C 125.371094 164.132812 123.488281 165.15625 122.746094 165.527344 C 120.496094 166.648438 118.152344 168.675781 116.042969 171.121094 L 116.019531 171.144531 C 115.738281 171.542969 115.460938 171.960938 115.207031 172.355469 C 114.929688 172.777344 114.671875 173.195312 114.441406 173.613281 C 115.066406 173.101562 115.785156 172.589844 116.574219 172.078125 C 122.816406 167.90625 133.003906 163.734375 136.230469 163.339844 C 137.410156 163.199219 140.171875 162.640625 141.890625 163.105469 C 142.5625 163.292969 143.097656 163.640625 143.375 164.175781 C 143.652344 164.691406 143.722656 165.390625 143.398438 166.367188 C 143.375 166.460938 143.328125 166.554688 143.304688 166.625 C 143.375 166.925781 143.398438 167.277344 143.375 167.671875 C 143.351562 167.90625 143.257812 168.164062 143.074219 168.417969 C 142.820312 168.746094 142.425781 169.09375 141.9375 169.421875 C 140.105469 170.65625 136.949219 171.75 135.925781 171.960938 C 129.222656 173.3125 122.074219 173.265625 115.601562 175.992188 C 114.882812 176.292969 113.652344 176.808594 112.515625 177.484375 C 111.609375 179.605469 110.890625 181.816406 110.378906 184.125 C 110.265625 185.078125 110.148438 186.035156 110.03125 186.992188 C 109.9375 187.828125 109.847656 188.667969 109.753906 189.507812 L 109.753906 189.554688 C 109.871094 189.878906 109.960938 190.207031 110.078125 190.554688 C 110.355469 191.441406 110.984375 192.234375 111.261719 193.140625 C 112.375 196.824219 112.910156 200.832031 113.117188 204.652344 C 113.234375 206.539062 113.699219 208.429688 113.765625 210.339844 C 113.8125 211.597656 113.835938 212.855469 113.8125 214.113281 C 113.976562 214.417969 114.140625 214.742188 114.300781 215.046875 C 114.347656 215.09375 114.394531 215.117188 114.441406 215.140625 C 114.578125 215.234375 114.625 215.394531 114.601562 215.558594 C 114.882812 216.046875 115.183594 216.539062 115.554688 216.980469 C 116.367188 218.003906 117.339844 218.914062 118.246094 219.847656 C 118.339844 219.941406 118.476562 220.007812 118.59375 220.078125 C 118.734375 220.148438 118.847656 220.242188 118.941406 220.335938 C 119.082031 220.5 119.082031 220.730469 118.941406 220.894531 C 118.941406 221.082031 118.824219 221.246094 118.664062 221.3125 C 118.710938 221.382812 118.734375 221.453125 118.734375 221.546875 C 118.710938 221.734375 118.570312 221.898438 118.410156 221.921875 C 118.316406 221.96875 118.105469 222.058594 117.96875 222.035156 C 117.757812 222.011719 117.550781 221.96875 117.339844 221.898438 C 116.621094 221.851562 115.925781 221.429688 115.277344 220.660156 C 114.71875 220.007812 114.183594 219.101562 113.652344 217.980469 C 113.628906 218.214844 113.605469 218.425781 113.582031 218.65625 C 113.511719 219.195312 113.558594 219.941406 113.535156 220.636719 C 113.511719 221.152344 113.417969 221.640625 113.257812 222.035156 C 113.257812 222.058594 113.140625 222.386719 113.023438 222.597656 C 112.957031 222.757812 112.863281 222.875 112.769531 222.945312 C 112.652344 223.039062 112.5625 223.0625 112.445312 223.0625 C 112.328125 223.0625 112.191406 223.015625 112.074219 222.875 C 112.027344 222.828125 111.980469 222.734375 111.957031 222.621094 C 111.933594 222.527344 111.933594 222.363281 111.957031 222.152344 C 112.050781 221.269531 112.515625 219.378906 112.5625 219.054688 C 112.5625 218.984375 112.585938 218.9375 112.628906 218.890625 C 112.699219 218.472656 112.746094 218.074219 112.769531 217.65625 C 112.816406 217.191406 112.863281 216.699219 112.886719 216.234375 L 112.886719 216.1875 C 112.605469 215.464844 112.375 214.742188 112.144531 213.996094 C 111.910156 213.207031 111.679688 212.4375 111.46875 211.644531 L 111.46875 211.621094 C 111.261719 211.039062 111.054688 210.457031 110.867188 209.851562 C 110.679688 209.3125 110.519531 208.753906 110.378906 208.195312 C 110.195312 207.566406 110.03125 206.914062 109.871094 206.285156 C 109.707031 205.632812 109.542969 204.980469 109.40625 204.304688 C 109.289062 203.722656 109.171875 203.160156 109.058594 202.578125 C 108.964844 202.042969 108.871094 201.53125 108.777344 200.996094 C 108.710938 200.527344 108.640625 200.0625 108.570312 199.597656 C 108.523438 199.199219 108.476562 198.828125 108.453125 198.433594 C 108.429688 198.269531 108.429688 198.128906 108.429688 197.964844 C 108.429688 197.894531 108.429688 197.800781 108.429688 197.734375 C 108.429688 197.640625 108.429688 197.523438 108.429688 197.40625 C 108.429688 197.035156 108.429688 196.683594 108.429688 196.3125 C 108.429688 195.121094 108.453125 193.957031 108.5 192.769531 L 108.5 192.722656 C 108.453125 192 108.40625 191.277344 108.359375 190.554688 C 108.316406 189.878906 108.292969 189.179688 108.292969 188.503906 L 108.292969 188.433594 C 108.082031 187.804688 107.898438 187.199219 107.6875 186.570312 C 107.480469 185.941406 107.269531 185.335938 107.0625 184.707031 L 107.0625 184.683594 C 106.992188 184.660156 106.945312 184.613281 106.898438 184.542969 C 106.410156 183.84375 105.878906 183.121094 105.320312 182.398438 C 104.371094 181.210938 103.347656 180.140625 102.304688 179.207031 C 101.703125 178.835938 100.75 178.230469 100.609375 178.160156 C 99.011719 177.273438 97.292969 176.25 95.53125 175.710938 C 94.183594 175.316406 92.839844 175.105469 91.492188 174.710938 C 88.453125 173.800781 84.34375 172.101562 81.398438 170.121094 C 81.050781 170.003906 80.703125 169.886719 80.355469 169.746094 C 80.074219 169.652344 79.796875 169.539062 79.519531 169.398438 C 79.265625 169.28125 79.007812 169.164062 78.753906 169.023438 C 78.519531 168.882812 78.3125 168.746094 78.105469 168.605469 C 77.824219 168.394531 77.570312 168.164062 77.359375 167.882812 C 77.316406 167.8125 77.269531 167.765625 77.222656 167.695312 C 77.199219 167.671875 77.175781 167.625 77.152344 167.601562 C 77.128906 167.554688 77.105469 167.535156 77.082031 167.488281 C 76.988281 167.324219 76.898438 167.160156 76.804688 166.996094 C 76.570312 166.53125 76.386719 166.042969 76.292969 165.527344 C 76.246094 165.226562 76.222656 164.921875 76.246094 164.621094 C 76.269531 164.433594 76.292969 164.222656 76.339844 164.039062 C 76.386719 163.851562 76.457031 163.664062 76.550781 163.480469 C 76.59375 163.363281 76.664062 163.269531 76.734375 163.152344 C 76.78125 163.058594 76.851562 162.988281 76.898438 162.917969 C 76.945312 162.871094 76.988281 162.804688 77.035156 162.757812 C 77.382812 162.335938 77.824219 162.011719 78.289062 161.753906 C 78.382812 161.707031 78.453125 161.660156 78.542969 161.613281 C 78.871094 161.453125 79.195312 161.335938 79.519531 161.21875 C 79.890625 161.101562 80.261719 161.03125 80.632812 160.960938 C 80.957031 160.914062 81.304688 160.890625 81.652344 160.867188 C 82 160.867188 82.351562 160.867188 82.675781 160.914062 C 83.253906 160.984375 83.8125 161.101562 84.367188 161.289062 C 84.648438 161.382812 84.925781 161.496094 85.179688 161.636719 C 85.25 161.660156 85.296875 161.707031 85.367188 161.730469 C 85.4375 161.777344 85.503906 161.824219 85.574219 161.847656 C 85.738281 161.941406 85.875 162.035156 86.039062 162.128906 C 86.226562 162.195312 86.386719 162.265625 86.550781 162.335938 C 87.710938 162.804688 88.984375 163.269531 90.078125 163.898438 C 91.238281 164.574219 92.164062 165.644531 93.1875 166.507812 C 95.945312 168.816406 98.082031 171.679688 100.054688 174.617188 C 102.234375 177.0625 104.253906 179.535156 105.972656 181.792969 C 106.015625 181.863281 106.085938 181.933594 106.132812 181.980469 C 105.34375 179.859375 104.507812 177.785156 103.628906 175.757812 C 100.332031 168.164062 96.527344 161.519531 92.90625 157.421875 L 92.882812 157.398438 C 92.488281 157.023438 92.09375 156.652344 91.699219 156.277344 C 91.304688 155.90625 90.890625 155.554688 90.472656 155.207031 L 90.449219 155.183594 C 89.707031 154.695312 88.941406 154.226562 88.175781 153.761719 C 87.199219 153.296875 86.203125 152.921875 85.179688 152.550781 C 82.652344 151.640625 80.378906 150.476562 78.058594 149.054688 C 77.199219 148.542969 76.199219 148.285156 75.296875 147.773438 C 73.113281 146.539062 70.933594 144.789062 69.125 143.089844 C 68.011719 142.0625 67.128906 140.6875 66.457031 139.269531 C 66.105469 138.777344 65.804688 138.265625 65.574219 137.777344 C 65.109375 136.773438 64.992188 135.820312 65.363281 135.050781 C 65.757812 134.257812 66.640625 134 67.777344 134.117188 C 70.027344 134.375 73.253906 136.144531 73.949219 136.703125 C 79.125 140.851562 83.535156 145.839844 87.734375 150.894531 L 77.175781 139.476562 C 78.382812 140.269531 79.636719 141.039062 80.796875 141.902344 C 82.304688 143.019531 83.488281 144.695312 84.738281 146.070312 C 86.621094 148.144531 88.21875 150.753906 89.773438 153.0625 C 90.144531 153.457031 90.496094 153.855469 90.796875 154.179688 C 91.65625 154.855469 92.511719 155.695312 93.394531 156.675781 C 93.859375 157.117188 94.300781 157.558594 94.742188 158.027344 C 95.484375 158.816406 96.203125 159.632812 96.898438 160.472656 C 97.59375 161.3125 98.246094 162.171875 98.871094 163.058594 C 99.242188 163.59375 99.613281 164.132812 99.960938 164.667969 C 99.707031 163.78125 99.449219 162.917969 99.21875 162.035156 C 99.195312 161.988281 99.171875 161.941406 99.171875 161.894531 C 99.148438 161.824219 99.148438 161.730469 99.125 161.660156 C 98.941406 160.984375 98.753906 160.308594 98.570312 159.65625 C 98.035156 157.722656 97.6875 155.578125 97.199219 153.457031 C 97.175781 153.34375 97.128906 153.203125 97.105469 153.085938 C 96.945312 152.433594 95.96875 149.425781 95.761719 148.820312 L 95.738281 148.75 C 95.367188 147.914062 94.925781 147.144531 94.390625 146.445312 C 93.324219 145.023438 92.027344 143.53125 90.679688 142.015625 C 86.457031 138.753906 81.675781 134.398438 80.378906 129.109375 C 79.960938 127.429688 79.402344 126.242188 79.613281 124.496094 C 79.613281 124.472656 79.613281 124.449219 79.613281 124.402344 C 79.613281 124.214844 79.613281 124.050781 79.636719 123.910156 C 79.679688 123.585938 79.796875 123.328125 79.9375 123.1875 C 79.960938 123.164062 79.960938 123.164062 79.960938 123.164062 C 80.03125 123.074219 80.121094 123.003906 80.214844 122.957031 C 80.261719 122.933594 80.285156 122.933594 80.332031 122.933594 C 80.632812 122.816406 80.933594 122.863281 81.257812 123.027344 C 81.46875 123.121094 81.675781 123.28125 81.886719 123.46875 C 83.207031 124.003906 84.414062 125.101562 85.203125 126.289062 C 88.105469 130.738281 89.984375 136.191406 91.792969 141.226562 C 91.816406 141.273438 91.839844 141.296875 91.863281 141.339844 C 92.582031 142.554688 93.605469 143.695312 94.390625 144.90625 C 95.34375 146.351562 95.945312 146.980469 96.527344 148.589844 C 96.527344 148.613281 96.550781 148.636719 96.550781 148.660156 C 97.085938 149.917969 97.480469 151.269531 97.828125 152.644531 C 97.875 152.757812 97.894531 152.851562 97.894531 152.921875 C 97.988281 153.273438 98.058594 153.574219 98.152344 153.878906 C 97.804688 151.363281 97.664062 149.589844 97.828125 147.5625 C 97.757812 146.515625 97.664062 145.488281 97.546875 144.441406 C 97.363281 143.8125 97.175781 143.160156 96.898438 142.554688 C 95.761719 140.011719 95.042969 136.566406 95.089844 133.769531 C 95.113281 132.625 95.019531 131.320312 95.554688 130.273438 C 95.855469 129.667969 96.226562 128.851562 96.691406 128.175781 C 96.804688 128.011719 96.921875 127.851562 97.0625 127.710938 C 97.292969 127.335938 97.664062 126.871094 98.058594 126.636719 C 98.523438 126.359375 99.011719 126.335938 99.429688 126.753906 C 100.632812 127.964844 100.980469 129.550781 101.003906 131.226562 C 101.003906 131.390625 101.003906 131.554688 101.003906 131.71875 C 101.097656 132.230469 101.191406 132.765625 101.308594 133.324219 C 102.074219 137.078125 100.914062 139.292969 100.078125 142.714844 C 99.566406 144.8125 98.988281 146.839844 98.730469 148.914062 C 98.847656 150.730469 98.917969 152.550781 99.054688 154.34375 C 99.054688 154.367188 99.054688 154.390625 99.054688 154.414062 C 99.148438 155.671875 99.265625 156.929688 99.40625 158.1875 C 99.472656 158.585938 99.566406 159.003906 99.636719 159.46875 C 99.636719 159.539062 99.636719 159.609375 99.613281 159.65625 C 99.707031 160.261719 99.800781 160.84375 99.9375 161.453125 C 100.496094 163.457031 101.074219 165.460938 101.703125 167.464844 C 103.488281 170.65625 104.902344 174.035156 106.015625 177.601562 C 106.109375 177.714844 106.203125 177.855469 106.296875 177.996094 C 106.621094 178.554688 106.828125 179.253906 106.992188 179.628906 C 107.570312 180.957031 107.851562 182.421875 108.152344 183.867188 C 108.269531 184.054688 108.382812 184.242188 108.5 184.402344 C 108.570312 183.84375 108.6875 183.285156 108.847656 182.703125 L 108.871094 182.5625 C 109.105469 181.421875 109.335938 180.257812 109.589844 179.113281 C 109.847656 177.878906 110.101562 176.644531 110.355469 175.410156 C 110.703125 173.707031 111.054688 172.03125 111.402344 170.328125 C 111.609375 169.257812 111.839844 168.1875 112.050781 167.113281 L 112.097656 166.878906 C 112.214844 166.203125 112.328125 165.527344 112.46875 164.851562 C 112.515625 164.597656 112.5625 164.339844 112.628906 164.109375 C 112.675781 163.898438 112.722656 163.6875 112.792969 163.480469 L 112.816406 163.363281 C 113.070312 162.105469 113.304688 160.84375 113.558594 159.5625 L 113.582031 159.46875 C 113.558594 159.402344 113.558594 159.332031 113.558594 159.261719 C 113.628906 158.910156 113.722656 158.5625 113.8125 158.1875 L 113.8125 158.140625 C 114.90625 152.433594 115.949219 146.699219 116.945312 140.339844 C 116.96875 140.152344 116.921875 140.011719 116.921875 140.011719 C 116.808594 139.59375 116.390625 138.988281 116.15625 138.382812 C 115.207031 135.890625 113.117188 132.207031 112.699219 131.320312 C 109.082031 123.210938 105.320312 119.902344 99.589844 113.84375 C 99.40625 113.660156 99.21875 113.472656 99.035156 113.308594 C 98.894531 113.214844 98.777344 113.097656 98.640625 113.007812 C 97.664062 112.539062 96.457031 111.65625 95.367188 110.863281 C 95.179688 110.746094 95.019531 110.628906 94.832031 110.511719 C 93.742188 110.375 92.722656 110.511719 91.632812 110.746094 C 91.214844 110.839844 90.773438 110.933594 90.332031 111.050781 C 90.101562 111.140625 89.84375 111.257812 89.613281 111.375 C 88.40625 111.933594 87.222656 112.5625 85.992188 113.054688 C 84.066406 113.796875 82 114.171875 79.636719 113.214844 C 76.78125 112.074219 76.246094 109.089844 77.40625 107.0625 C 78.195312 105.710938 79.726562 104.78125 81.863281 105.082031 C 85.066406 105.550781 88.546875 106.179688 91.585938 107.554688 C 89.265625 105.644531 87.082031 103.664062 85.25 101.519531 C 85.25 101.519531 85.25 101.519531 85.226562 101.519531 C 85.132812 101.566406 84.996094 101.542969 84.949219 101.425781 C 84.902344 101.308594 84.832031 101.214844 84.761719 101.097656 C 84.484375 100.84375 84.160156 100.492188 83.8125 100.074219 C 83.324219 99.515625 82.8125 98.816406 82.328125 98.140625 L 82.304688 98.117188 C 81.257812 97.089844 80.144531 96.113281 79.265625 94.992188 C 77.40625 92.617188 75.945312 89.609375 74.925781 86.769531 C 74.738281 86.230469 74.644531 85.695312 74.601562 85.136719 C 74.578125 85.066406 74.554688 84.996094 74.53125 84.925781 C 74.296875 84.25 73.53125 82.0625 73.53125 80.570312 C 73.53125 79.777344 73.789062 79.148438 74.296875 78.890625 C 74.855469 78.613281 75.527344 78.867188 76.15625 79.496094 C 76.550781 79.894531 76.964844 80.453125 77.316406 81.035156 C 79.355469 83.226562 80.980469 85.601562 82.023438 88.46875 C 82.652344 90.238281 82.90625 92.199219 83.253906 94.109375 C 83.578125 95.972656 84.019531 97.8125 84.972656 99.328125 C 85.019531 99.398438 85.019531 99.515625 84.949219 99.5625 C 85.226562 99.980469 85.550781 100.421875 85.875 100.890625 C 85.921875 100.960938 85.945312 101.027344 85.945312 101.121094 C 87.824219 103.3125 90.078125 105.316406 92.464844 107.25 C 92.511719 107.273438 92.558594 107.320312 92.605469 107.367188 C 92.882812 107.578125 93.140625 107.785156 93.417969 108.019531 C 94.253906 108.695312 95.113281 109.347656 95.96875 110 C 96.039062 110.023438 96.109375 110.046875 96.179688 110.09375 C 95.808594 109.511719 95.507812 108.953125 95.296875 108.671875 C 94.785156 107.902344 94.253906 107.109375 93.71875 106.273438 C 93.625 106.179688 93.558594 106.085938 93.464844 105.96875 C 91.375 103.335938 88.800781 99.398438 87.941406 96.160156 C 87.757812 95.460938 87.476562 94.292969 87.617188 93.363281 C 87.710938 92.710938 87.988281 92.175781 88.570312 91.917969 C 88.730469 91.382812 89.03125 91.007812 89.496094 90.894531 C 89.773438 90.824219 90.054688 90.871094 90.355469 91.007812 C 90.679688 91.171875 91.027344 91.523438 91.328125 91.964844 C 92.421875 93.480469 93.417969 96.296875 93.695312 96.949219 C 93.71875 96.972656 93.71875 97.019531 93.742188 97.042969 C 95.320312 100.074219 96.0625 103.382812 96.757812 106.714844 C 96.992188 107.878906 97.152344 108.976562 97.480469 110 C 97.917969 110.722656 98.5 111.445312 99.242188 112.191406 C 99.265625 112.214844 99.289062 112.261719 99.3125 112.308594 C 99.429688 112.421875 99.542969 112.539062 99.660156 112.65625 C 99.730469 112.75 99.777344 112.84375 99.777344 112.960938 C 102.1875 114.824219 104.507812 116.710938 106.527344 118.738281 C 106.851562 119.066406 107.179688 119.414062 107.457031 119.765625 C 105.785156 116.410156 104.089844 112.332031 103.164062 109.441406 C 102.675781 107.972656 102.398438 106.785156 102.398438 106.179688 C 102.398438 105.480469 102.210938 103.007812 102.652344 101.285156 C 103 99.910156 103.765625 99.023438 105.089844 99.375 C 106.132812 99.632812 107.015625 100.421875 107.710938 101.425781 C 108.710938 102.894531 109.289062 104.804688 109.289062 106.179688 C 109.289062 107.15625 109.3125 108.089844 109.335938 108.976562 C 110.21875 113.636719 110.472656 118.4375 111.703125 123.027344 C 111.933594 123.863281 112.003906 124.984375 112.167969 126.078125 C 112.351562 126.707031 112.5625 127.335938 112.769531 127.988281 C 112.792969 128.035156 112.792969 128.082031 112.792969 128.105469 C 113.90625 129.878906 116.132812 133.769531 117.203125 136.65625 C 117.292969 136.867188 117.363281 137.101562 117.433594 137.308594 C 118.128906 132.8125 118.710938 128.410156 119.128906 124.308594 C 120.054688 115.429688 120.195312 107.996094 118.894531 104.082031 C 117.132812 98.792969 115.832031 93.527344 114.277344 88.167969 C 113.304688 86.605469 111.539062 86.253906 109.5 86.300781 C 107.269531 86.371094 104.695312 86.929688 102.375 87.140625 C 100.796875 87.28125 99.3125 87.257812 98.105469 86.792969 C 97.917969 86.722656 97.710938 86.652344 97.5 86.605469 C 95.925781 86.511719 94.4375 86.070312 93.1875 85.066406 C 90.703125 83.0625 90.796875 78.542969 94.53125 78.542969 C 99.035156 78.542969 103.210938 79.824219 107.292969 81.78125 C 107.480469 81.851562 107.640625 81.945312 107.804688 82.015625 C 108.035156 82.132812 108.269531 82.246094 108.476562 82.386719 C 109.171875 82.738281 109.847656 83.132812 110.519531 83.527344 C 110.636719 83.574219 110.75 83.621094 110.867188 83.667969 C 111.46875 83.902344 111.957031 84.320312 112.351562 84.742188 C 112.675781 84.949219 113 85.230469 113.304688 85.488281 C 113.375 85.53125 113.464844 85.578125 113.535156 85.625 C 113.1875 84.507812 112.839844 83.390625 112.46875 82.269531 C 111.910156 80.59375 110.75 79.03125 109.335938 77.515625 C 108.222656 76.328125 106.96875 75.1875 105.738281 74.089844 C 105.390625 73.882812 105.019531 73.695312 104.625 73.507812 C 103.628906 73.042969 102.628906 72.601562 101.886719 71.878906 C 98.941406 69.058594 96.828125 67.007812 95.367188 62.976562 C 95.113281 62.230469 94.949219 60.644531 95.066406 59.085938 C 94.949219 58.246094 94.902344 57.40625 94.996094 56.777344 C 95.089844 56.242188 95.273438 55.871094 95.554688 55.660156 C 95.738281 55.519531 95.992188 55.449219 96.273438 55.496094 C 96.433594 55.355469 96.621094 55.261719 96.828125 55.21875 C 97.246094 55.125 97.734375 55.21875 98.3125 55.613281 C 99.84375 56.613281 101.238281 58.828125 102.492188 61.390625 C 104.347656 65.167969 105.972656 69.710938 107.480469 72.109375 C 107.804688 72.625 108.105469 73.742188 108.476562 74.746094 C 109.707031 76.257812 110.914062 77.425781 112.027344 79.636719 C 112.027344 79.660156 112.050781 79.660156 112.050781 79.683594 L 112.050781 79.707031 C 112.144531 79.871094 112.234375 80.011719 112.328125 80.171875 C 112.585938 80.59375 112.792969 81.035156 112.980469 81.480469 C 113.023438 81.617188 113.09375 81.757812 113.140625 81.898438 C 113.164062 81.96875 113.1875 82.039062 113.210938 82.132812 C 113.234375 82.222656 113.257812 82.292969 113.304688 82.386719 C 113.417969 82.714844 113.511719 83.0625 113.628906 83.390625 C 113.976562 84.460938 115.253906 87.886719 115.414062 88.398438 C 115.507812 88.632812 115.578125 88.886719 115.648438 89.167969 C 115.648438 89.191406 115.671875 89.238281 115.671875 89.261719 C 115.671875 89.261719 115.671875 89.285156 115.671875 89.285156 C 115.785156 89.726562 115.902344 90.171875 116.019531 90.636719 C 116.203125 90.960938 116.367188 91.335938 116.503906 91.730469 C 116.527344 88.515625 116.273438 83.503906 115.949219 77.914062 C 115.949219 77.890625 115.925781 77.84375 115.925781 77.820312 L 115.925781 77.703125 C 115.785156 74.976562 115.625 72.132812 115.484375 69.292969 C 115.460938 69.058594 115.414062 68.871094 115.414062 68.730469 C 115.320312 67.871094 115.042969 67.007812 114.742188 66.167969 C 114.441406 65.308594 114.160156 64.445312 114.09375 63.582031 C 113.699219 58.828125 113.328125 53.5625 114.578125 48.808594 C 114.972656 47.269531 115.484375 46.246094 116.367188 45.710938 C 116.550781 45.847656 116.667969 45.78125 116.785156 45.734375 Z M 109.613281 193.164062 C 109.871094 199.410156 111.03125 205.679688 112.863281 211.433594 C 112.792969 209.941406 112.652344 208.453125 112.46875 206.960938 C 112.304688 205.609375 112.097656 204.234375 111.839844 202.90625 C 111.585938 201.460938 111.308594 200.039062 110.984375 198.617188 C 110.566406 196.777344 110.125 194.984375 109.613281 193.164062 Z M 109.082031 186.175781 C 109.082031 186.382812 109.082031 186.59375 109.082031 186.804688 C 109.105469 186.640625 109.125 186.453125 109.171875 186.292969 L 109.171875 186.269531 C 109.125 186.222656 109.105469 186.199219 109.082031 186.175781 Z M 109.847656 182.027344 C 109.847656 182.027344 109.824219 182.050781 109.824219 182.050781 C 109.707031 182.398438 109.613281 182.75 109.519531 183.074219 C 109.40625 183.613281 109.3125 184.101562 109.21875 184.542969 C 109.171875 184.730469 109.148438 184.941406 109.125 185.148438 C 109.125 185.21875 109.105469 185.265625 109.105469 185.335938 C 109.148438 185.335938 109.21875 185.359375 109.289062 185.382812 L 109.289062 185.359375 C 109.382812 184.917969 109.476562 184.472656 109.566406 184.03125 L 109.566406 184.007812 C 109.683594 183.378906 109.777344 182.703125 109.847656 182.027344 Z M 82.722656 170.5625 C 85.480469 172.195312 88.894531 173.566406 91.492188 174.359375 C 92.839844 174.757812 94.207031 174.964844 95.53125 175.363281 C 96.992188 175.804688 98.429688 176.574219 99.800781 177.34375 C 95.273438 174.105469 90.355469 172.613281 86.226562 171.519531 C 84.996094 171.167969 83.8125 170.867188 82.722656 170.5625 Z M 132.074219 172.332031 C 131.9375 172.332031 131.773438 172.308594 131.632812 172.308594 C 130.148438 172.238281 128.640625 172.101562 127.410156 172.308594 C 124.140625 172.871094 120.21875 173.335938 116.875 174.664062 C 115.484375 175.222656 114.207031 175.898438 113.117188 176.808594 C 114.023438 176.339844 114.90625 175.96875 115.460938 175.710938 C 120.75 173.5 126.507812 173.125 132.074219 172.332031 Z M 100.03125 176.0625 C 95.484375 170.886719 90.054688 165.691406 84.878906 162.570312 C 83.464844 161.707031 81.492188 161.566406 79.867188 161.988281 C 78.476562 162.359375 77.292969 163.152344 76.988281 164.339844 C 76.988281 164.363281 76.964844 164.410156 76.964844 164.433594 C 77.011719 164.808594 77.152344 165.179688 77.359375 165.574219 C 78.011719 166.8125 79.285156 168.023438 79.9375 168.582031 C 80.074219 168.699219 80.214844 168.816406 80.378906 168.953125 C 81.980469 169.582031 84.089844 170.074219 86.457031 170.703125 C 90.890625 171.890625 96.226562 173.523438 101.027344 177.203125 L 98.660156 175.574219 C 96.714844 174.011719 93.488281 171.003906 91.445312 169.957031 C 88.523438 168.441406 85.808594 166.925781 82.746094 165.527344 C 82.652344 165.484375 82.605469 165.367188 82.652344 165.25 C 82.699219 165.15625 82.8125 165.109375 82.929688 165.15625 C 85.992188 166.578125 88.707031 168.09375 91.632812 169.605469 C 93.71875 170.703125 97.039062 173.777344 99.011719 175.339844 C 99.289062 175.550781 99.660156 175.804688 100.03125 176.0625 Z M 142.632812 166.226562 C 142.378906 165.808594 141.984375 165.503906 141.519531 165.273438 C 140.542969 164.808594 139.246094 164.691406 138.039062 164.714844 C 134.765625 164.761719 134.605469 164.738281 134.441406 164.785156 C 134.347656 164.808594 134.117188 164.808594 133.722656 164.945312 C 129.335938 166.320312 121.910156 169.628906 116.992188 172.914062 C 115.925781 173.636719 114.972656 174.359375 114.183594 175.035156 C 114.929688 174.59375 115.714844 174.222656 116.527344 173.894531 C 117.457031 173.523438 118.410156 173.21875 119.382812 172.960938 C 122.285156 171.449219 125.042969 169.746094 128.269531 168.976562 C 130.800781 168.371094 133.421875 167.929688 135.902344 167.066406 C 136.019531 167.019531 136.136719 167.089844 136.160156 167.183594 C 136.207031 167.300781 136.136719 167.417969 136.042969 167.441406 C 133.558594 168.300781 130.9375 168.746094 128.386719 169.375 C 125.71875 170.027344 123.351562 171.308594 120.960938 172.589844 C 123.117188 172.125 125.300781 171.820312 127.25 171.496094 C 128.546875 171.285156 130.101562 171.402344 131.65625 171.472656 C 133.121094 171.542969 134.558594 171.5625 135.71875 171.121094 C 136.972656 170.65625 138.457031 170.191406 139.777344 169.421875 C 141.03125 168.699219 142.121094 167.742188 142.632812 166.226562 C 142.632812 166.25 142.632812 166.25 142.632812 166.226562 Z M 87.546875 163.339844 C 88.476562 163.992188 89.378906 164.667969 90.238281 165.390625 C 91.050781 166.042969 91.839844 166.71875 92.605469 167.394531 C 93.347656 168.046875 94.089844 168.746094 94.808594 169.421875 C 95.855469 170.421875 96.898438 171.472656 97.894531 172.542969 C 96.410156 170.515625 94.765625 168.605469 92.816406 166.949219 C 91.792969 166.113281 90.910156 165.039062 89.75 164.363281 C 89.078125 163.96875 88.3125 163.640625 87.546875 163.339844 Z M 142.980469 167.464844 C 142.46875 168.394531 141.75 169.09375 140.914062 169.675781 C 141.195312 169.515625 141.449219 169.375 141.703125 169.210938 C 142.144531 168.90625 142.515625 168.605469 142.75 168.300781 C 142.886719 168.117188 142.957031 167.953125 142.980469 167.789062 C 142.980469 167.671875 142.980469 167.578125 142.980469 167.464844 Z M 98.894531 164.921875 C 99.265625 165.527344 99.613281 166.160156 99.960938 166.789062 C 100.355469 167.488281 100.726562 168.1875 101.097656 168.90625 L 101.121094 168.929688 C 101.027344 168.652344 100.9375 168.347656 100.84375 168.070312 C 100.542969 167.53125 100.238281 166.996094 99.914062 166.460938 C 99.566406 165.925781 99.242188 165.414062 98.894531 164.921875 Z M 77.105469 165.925781 C 77.246094 166.320312 77.453125 166.765625 77.753906 167.207031 C 78.058594 167.671875 78.519531 168.046875 79.125 168.371094 C 78.476562 167.742188 77.640625 166.855469 77.105469 165.925781 Z M 128.128906 161.359375 C 125.578125 162.335938 123.117188 163.480469 121.144531 165.34375 C 120.84375 165.644531 120.542969 165.925781 120.242188 166.226562 C 120.960938 165.714844 121.679688 165.273438 122.375 164.921875 C 122.722656 164.761719 123.304688 164.457031 124 164.0625 C 124.023438 164.015625 124.09375 163.96875 124.140625 163.921875 C 124.976562 163.433594 125.832031 162.964844 126.714844 162.5 C 127.085938 162.289062 127.433594 162.058594 127.757812 161.847656 C 127.78125 161.707031 127.875 161.589844 128.039062 161.542969 L 128.0625 161.542969 C 128.085938 161.496094 128.105469 161.429688 128.128906 161.359375 Z M 142.773438 165.714844 C 142.863281 165.203125 142.773438 164.808594 142.539062 164.550781 C 142.308594 164.269531 141.9375 164.132812 141.519531 164.015625 C 141.03125 163.898438 140.453125 163.875 139.871094 163.898438 C 138.503906 163.945312 138.085938 163.992188 137.320312 164.085938 C 136.902344 164.132812 135.972656 164.246094 135.324219 164.433594 C 136.390625 164.222656 136.855469 164.339844 138.039062 164.316406 C 139.316406 164.292969 140.683594 164.433594 141.703125 164.921875 C 142.121094 165.109375 142.492188 165.390625 142.773438 165.714844 Z M 130.589844 159.585938 C 130.9375 159.191406 131.285156 158.773438 131.65625 158.304688 C 133.675781 155.695312 135.742188 151.96875 137.203125 148.449219 C 138.179688 146.117188 138.875 143.90625 139.105469 142.15625 C 139.246094 141.085938 139.222656 140.199219 138.945312 139.617188 C 138.875 139.5 138.828125 139.40625 138.757812 139.40625 C 138.664062 139.382812 138.570312 139.429688 138.457031 139.5 C 138.292969 139.59375 138.132812 139.734375 137.96875 139.921875 C 136.4375 141.457031 134.558594 145.417969 134.441406 145.699219 C 134.347656 145.886719 134.257812 146.070312 134.164062 146.257812 C 134.070312 146.445312 133.976562 146.609375 133.886719 146.792969 C 133.074219 148.613281 132.75 150.59375 132.261719 152.527344 C 131.632812 155.066406 130.542969 157.605469 129.570312 159.960938 C 129.683594 159.914062 129.800781 159.890625 129.894531 159.84375 C 129.917969 159.796875 129.941406 159.773438 129.941406 159.75 C 130.40625 158.863281 130.800781 157.769531 131.078125 157.304688 C 132.445312 155.089844 134.023438 152.503906 134.695312 149.964844 C 135.070312 148.589844 135.277344 146.816406 136.089844 145.628906 C 136.160156 145.535156 136.273438 145.511719 136.367188 145.582031 C 136.460938 145.652344 136.484375 145.769531 136.414062 145.863281 C 135.625 147.003906 135.417969 148.75 135.070312 150.054688 C 134.394531 152.621094 132.792969 155.253906 131.402344 157.488281 C 131.148438 157.910156 130.820312 158.816406 130.429688 159.609375 Z M 133.1875 146.398438 C 132.46875 147.515625 131.773438 148.636719 131.125 149.800781 C 130.054688 151.757812 129.800781 153.410156 129.246094 155.601562 C 129.152344 156 128.988281 157.839844 128.917969 159.425781 C 129.847656 157.1875 130.867188 154.761719 131.472656 152.339844 C 131.960938 150.359375 132.308594 148.332031 133.140625 146.46875 C 133.164062 146.445312 133.1875 146.421875 133.1875 146.398438 Z M 114.578125 158.375 C 114.554688 158.46875 114.535156 158.5625 114.511719 158.632812 L 114.488281 158.773438 C 114.511719 158.65625 114.535156 158.515625 114.578125 158.375 Z M 155.300781 139.617188 C 155.164062 139.617188 155 139.640625 154.839844 139.664062 C 154.488281 139.757812 154.09375 140.011719 153.65625 140.363281 C 152.191406 141.503906 150.546875 143.601562 149.804688 144.300781 C 147.667969 146.304688 144.1875 150.429688 140.914062 153.761719 C 140.542969 154.132812 140.195312 154.507812 139.824219 154.855469 C 139.199219 155.578125 138.527344 156.277344 137.828125 156.90625 C 138.085938 156.765625 138.339844 156.652344 138.59375 156.511719 C 139.523438 155.742188 140.5 154.902344 140.9375 154.53125 C 144.304688 151.710938 147.25 148.542969 150.523438 145.675781 C 150.613281 145.605469 150.730469 145.605469 150.800781 145.699219 C 150.871094 145.792969 150.871094 145.910156 150.777344 145.980469 C 147.503906 148.84375 144.558594 152.039062 141.195312 154.832031 C 140.984375 155.019531 140.660156 155.277344 140.265625 155.601562 C 144.582031 153.296875 148.734375 150.800781 152.355469 147.679688 C 153.027344 147.097656 154.699219 145.140625 155.789062 143.230469 C 156.019531 142.390625 156.183594 141.574219 156.160156 140.898438 C 156.160156 140.222656 155.929688 139.710938 155.300781 139.617188 Z M 139.894531 139.921875 C 140.035156 140.550781 140.035156 141.339844 139.917969 142.273438 C 139.664062 144.066406 138.964844 146.375 137.96875 148.773438 C 136.972656 151.152344 135.71875 153.644531 134.371094 155.8125 C 136.761719 152.804688 138.78125 149.566406 139.730469 147.261719 C 140.171875 146.1875 140.777344 142.554688 140.171875 140.527344 C 140.058594 140.292969 139.988281 140.082031 139.894531 139.921875 Z M 116.273438 149.078125 C 115.949219 150.871094 115.625 152.667969 115.300781 154.460938 L 115.277344 154.578125 C 115.34375 154.414062 115.4375 154.25 115.53125 154.085938 L 115.53125 154.066406 C 115.695312 153.203125 115.832031 152.339844 115.972656 151.453125 C 116.066406 150.6875 116.179688 149.871094 116.273438 149.078125 Z M 154.746094 146.257812 C 154.445312 146.632812 154.140625 147.003906 153.816406 147.375 C 153.679688 147.515625 153.5625 147.65625 153.421875 147.820312 C 153.304688 147.9375 153.214844 148.050781 153.097656 148.144531 C 153.050781 148.191406 153.003906 148.238281 152.957031 148.285156 C 152.933594 148.308594 152.890625 148.355469 152.867188 148.378906 C 152.820312 148.425781 152.75 148.472656 152.703125 148.519531 C 152.515625 148.683594 152.332031 148.84375 152.144531 148.984375 C 151.542969 149.472656 150.917969 149.964844 150.289062 150.429688 C 149.222656 151.222656 148.132812 151.96875 147.019531 152.667969 C 146.53125 152.96875 146.042969 153.296875 145.535156 153.597656 L 145.511719 153.621094 C 146.648438 153.085938 147.761719 152.527344 148.828125 151.945312 C 151.496094 150.453125 153.722656 148.796875 154.535156 146.863281 C 154.558594 146.722656 154.628906 146.515625 154.746094 146.257812 Z M 69.632812 135.65625 C 69.195312 135.539062 68.730469 135.445312 68.242188 135.375 C 67.917969 135.328125 67.5 135.257812 67.105469 135.257812 C 66.734375 135.257812 66.386719 135.304688 66.128906 135.492188 C 66.105469 135.515625 66.085938 135.539062 66.0625 135.5625 C 66.039062 135.585938 66.039062 135.609375 66.039062 135.632812 C 65.851562 135.980469 65.875 136.402344 65.96875 136.867188 C 66.105469 137.378906 66.363281 137.9375 66.710938 138.5 C 67.777344 140.246094 69.589844 141.992188 70.421875 142.714844 C 71.886719 143.976562 73.835938 144.558594 75.390625 145.675781 C 79.542969 148.660156 84.230469 150.730469 88.570312 153.296875 L 88.546875 153.273438 C 88.40625 153.15625 88.242188 153.039062 88.082031 152.921875 C 86.710938 151.898438 84.625 150.730469 83.8125 150.242188 C 81.28125 148.683594 78.613281 146.492188 76.527344 144.394531 C 74.738281 142.601562 72.417969 141.433594 70.65625 139.59375 C 70.585938 139.523438 70.585938 139.382812 70.65625 139.3125 C 70.726562 139.246094 70.863281 139.246094 70.933594 139.3125 C 72.71875 141.15625 75.015625 142.320312 76.804688 144.113281 C 78.871094 146.1875 81.515625 148.355469 84.019531 149.894531 C 84.625 150.265625 85.96875 151.035156 87.175781 151.804688 C 87.128906 151.734375 87.082031 151.6875 87.035156 151.640625 C 82.882812 146.632812 78.5 141.691406 73.371094 137.566406 C 72.90625 137.195312 71.28125 136.261719 69.632812 135.65625 Z M 68.035156 141.550781 C 68.429688 142.085938 68.84375 142.578125 69.308594 143.019531 C 71.121094 144.695312 73.253906 146.421875 75.410156 147.632812 C 76.292969 148.144531 77.316406 148.402344 78.171875 148.914062 C 80.46875 150.3125 82.722656 151.476562 85.226562 152.363281 C 85.25 152.363281 85.273438 152.386719 85.296875 152.386719 C 81.792969 150.476562 78.171875 148.683594 74.878906 146.328125 C 73.300781 145.1875 71.328125 144.605469 69.84375 143.320312 C 69.425781 142.949219 68.753906 142.320312 68.035156 141.550781 Z M 78.730469 141.25 C 81.910156 144.347656 84.832031 147.703125 87.664062 151.105469 C 87.78125 151.246094 87.894531 151.382812 88.058594 151.546875 C 86.921875 149.824219 85.691406 148.050781 84.367188 146.585938 C 83.140625 145.234375 81.980469 143.554688 80.492188 142.460938 C 79.890625 142.039062 79.308594 141.644531 78.730469 141.25 Z M 153.539062 139.945312 C 151.683594 140.550781 150.128906 141.96875 148.734375 143.578125 C 147.042969 145.535156 145.601562 147.84375 144.164062 149.496094 C 143.699219 150.035156 143.234375 150.617188 142.773438 151.222656 C 145.371094 148.449219 147.875 145.558594 149.546875 143.976562 C 150.289062 143.277344 151.960938 141.179688 153.445312 140.011719 C 153.46875 140.011719 153.492188 139.988281 153.539062 139.945312 Z M 100.796875 133.605469 C 100.703125 134.46875 100.589844 135.304688 100.542969 136.074219 C 100.332031 138.824219 99.636719 141.363281 99.101562 144.042969 C 98.894531 145.023438 98.753906 145.910156 98.660156 146.699219 C 98.941406 145.417969 99.265625 144.160156 99.589844 142.855469 C 100.402344 139.5 101.585938 137.332031 100.820312 133.652344 C 100.796875 133.652344 100.796875 133.628906 100.796875 133.605469 Z M 98.40625 127.546875 C 98.382812 127.546875 98.382812 127.570312 98.359375 127.570312 C 97.988281 127.78125 97.664062 128.269531 97.546875 128.546875 C 96.714844 130.484375 96.320312 132.441406 96.480469 134.5625 C 96.714844 137.683594 97.757812 140.804688 98.199219 143.929688 C 98.222656 143.300781 98.246094 142.691406 98.246094 142.554688 C 98.335938 139.175781 97.894531 135.75 97.828125 132.324219 C 97.828125 132.207031 97.917969 132.113281 98.035156 132.113281 C 98.152344 132.113281 98.246094 132.207031 98.246094 132.324219 C 98.3125 135.632812 98.730469 138.988281 98.660156 142.25 C 99.101562 140.175781 99.589844 138.171875 99.753906 136.003906 C 99.84375 134.652344 100.148438 133.023438 100.125 131.460938 C 100.125 130.761719 100.03125 130.0625 99.84375 129.410156 C 99.753906 129.179688 99.636719 128.945312 99.519531 128.6875 C 99.359375 128.386719 99.195312 128.058594 98.988281 127.828125 C 98.847656 127.6875 98.707031 127.570312 98.523438 127.523438 C 98.476562 127.570312 98.453125 127.546875 98.40625 127.546875 Z M 96.15625 129.992188 C 96.039062 130.25 95.925781 130.484375 95.808594 130.691406 C 95.296875 131.671875 95.414062 132.90625 95.390625 134 C 95.34375 136.679688 96.015625 139.988281 97.105469 142.460938 C 96.621094 139.851562 95.855469 137.242188 95.644531 134.628906 C 95.53125 133.023438 95.714844 131.484375 96.15625 129.992188 Z M 156.277344 139.757812 C 156.390625 139.945312 156.484375 140.152344 156.53125 140.410156 C 156.601562 140.78125 156.601562 141.25 156.554688 141.738281 C 156.601562 141.644531 156.625 141.527344 156.648438 141.433594 C 156.832031 140.828125 156.878906 140.292969 156.578125 139.964844 C 156.507812 139.875 156.390625 139.804688 156.277344 139.757812 Z M 90.167969 140.457031 C 88.546875 137.660156 86.96875 134.792969 85.785156 131.765625 C 84.832031 129.386719 83.972656 126.660156 82 124.9375 C 81.722656 124.703125 81.375 124.308594 81.003906 124.050781 C 80.796875 123.910156 80.609375 123.796875 80.425781 123.957031 C 80.355469 124.027344 80.355469 124.167969 80.332031 124.355469 C 80.332031 124.632812 80.355469 124.984375 80.425781 125.355469 C 80.773438 127.242188 81.863281 129.96875 82.1875 130.550781 C 83.625 133.230469 85.992188 135.980469 88.453125 138.707031 C 86.316406 135.703125 84.230469 132.859375 82.582031 129.292969 C 82.535156 129.199219 82.582031 129.0625 82.675781 129.015625 C 82.765625 128.96875 82.90625 129.015625 82.953125 129.109375 C 84.949219 133.464844 87.570312 136.703125 90.167969 140.457031 Z M 80.46875 128.480469 C 80.539062 128.734375 80.609375 128.96875 80.679688 129.246094 C 81.769531 133.628906 85.273438 137.355469 88.847656 140.339844 C 86.015625 137.21875 83.140625 134.046875 81.46875 130.972656 C 81.304688 130.621094 80.863281 129.644531 80.46875 128.480469 Z M 83.140625 124.9375 C 84.808594 126.730469 85.644531 129.246094 86.527344 131.484375 C 87.640625 134.304688 89.078125 136.984375 90.585938 139.59375 C 89.007812 135.191406 87.269531 130.597656 84.761719 126.753906 C 84.34375 126.054688 83.789062 125.425781 83.140625 124.9375 Z M 112.605469 129.714844 C 112.863281 130.226562 113.09375 130.738281 113.328125 131.273438 C 113.722656 132.160156 115.671875 135.609375 116.667969 138.101562 C 116.574219 137.800781 116.480469 137.496094 116.34375 137.148438 C 115.484375 134.746094 113.789062 131.648438 112.605469 129.714844 Z M 128.804688 137.078125 C 128.710938 137.171875 128.640625 137.261719 128.546875 137.378906 C 128.640625 137.308594 128.757812 137.21875 128.851562 137.148438 C 128.851562 137.125 128.828125 137.101562 128.804688 137.078125 Z M 161.125 123.980469 C 160.683594 123.28125 159.828125 122.746094 158.78125 122.558594 C 157.203125 122.257812 154.976562 122.652344 153.445312 122.980469 C 151.3125 123.421875 149.386719 124.121094 147.527344 124.9375 C 141.03125 128.386719 134.140625 132.859375 131.054688 135.398438 C 130.636719 135.75 130.3125 136.027344 130.035156 136.308594 C 130.3125 136.144531 130.566406 135.980469 130.84375 135.84375 C 132.980469 134.539062 135.160156 133.558594 137.410156 132.765625 C 142.378906 130.039062 147.4375 127.59375 153.328125 125.542969 C 153.445312 125.496094 153.5625 125.566406 153.585938 125.660156 C 153.632812 125.777344 153.5625 125.890625 153.46875 125.914062 C 148.363281 127.710938 143.886719 129.761719 139.570312 132.066406 C 144.789062 130.484375 150.3125 129.691406 156.089844 128.246094 C 157.667969 127.847656 159.894531 126.101562 161.011719 124.191406 C 161.054688 124.121094 161.078125 124.050781 161.125 123.980469 Z M 154.929688 129.339844 C 148.363281 130.902344 142.097656 131.695312 136.296875 134.023438 C 136.808594 133.929688 137.34375 133.863281 137.875 133.792969 C 140.125 133.511719 142.492188 133.347656 145.160156 132.648438 C 148.503906 131.765625 151.796875 130.667969 154.929688 129.339844 Z M 161.449219 125.007812 C 160.871094 125.867188 160.105469 126.683594 159.292969 127.335938 C 159.480469 127.242188 159.664062 127.152344 159.851562 127.058594 C 160.988281 126.476562 161.472656 125.730469 161.449219 125.007812 Z M 120.660156 112.074219 C 120.660156 112.097656 120.636719 112.121094 120.636719 112.144531 C 120.613281 112.167969 120.613281 112.191406 120.589844 112.238281 L 120.589844 112.261719 C 120.589844 113.355469 120.566406 114.472656 120.542969 115.570312 C 120.496094 116.59375 120.449219 117.621094 120.378906 118.644531 C 120.3125 119.648438 120.242188 120.625 120.148438 121.628906 C 120.03125 123.121094 119.871094 124.585938 119.707031 126.054688 L 119.707031 126.101562 C 119.730469 126.054688 119.730469 126.007812 119.730469 125.960938 C 120.335938 123.515625 120.960938 121.046875 120.914062 118.855469 C 120.867188 116.59375 120.796875 114.335938 120.660156 112.074219 Z M 108.40625 107.179688 C 108.292969 106.644531 108.152344 106.132812 107.988281 105.621094 C 107.757812 104.851562 107.039062 102.964844 106.085938 101.914062 C 105.53125 101.285156 104.878906 100.9375 104.183594 101.496094 C 104.089844 101.566406 104.046875 101.703125 103.976562 101.867188 C 103.882812 102.171875 103.835938 102.613281 103.835938 103.101562 C 103.8125 105.058594 104.371094 108.019531 104.554688 108.765625 C 105.019531 110.675781 105.667969 112.5625 105.996094 114.496094 C 106.039062 114.847656 106.132812 115.21875 106.226562 115.59375 C 107.0625 117.527344 107.988281 119.484375 108.847656 121.117188 C 109.453125 122.257812 110.03125 123.28125 110.542969 124.027344 C 110.472656 123.75 110.378906 123.445312 110.308594 123.164062 C 109.800781 122.140625 109.242188 121.160156 109.011719 120.648438 C 107.199219 116.734375 105.949219 110.558594 105.460938 106.25 C 105.4375 106.132812 105.53125 106.039062 105.644531 106.015625 C 105.761719 105.992188 105.855469 106.085938 105.878906 106.203125 C 106.34375 110.464844 107.617188 116.59375 109.40625 120.460938 C 109.519531 120.71875 109.707031 121.070312 109.914062 121.488281 C 108.894531 116.992188 108.453125 112.726562 108.40625 107.179688 Z M 161.3125 123.585938 C 161.777344 122.558594 161.890625 121.511719 161.289062 120.648438 C 161.171875 120.460938 160.964844 120.347656 160.730469 120.277344 C 160.429688 120.183594 160.035156 120.160156 159.59375 120.207031 C 158.109375 120.324219 156 121 153.5625 122.046875 C 152.726562 122.398438 151.84375 122.792969 150.964844 123.234375 C 151.75 123.003906 152.539062 122.792969 153.375 122.605469 C 154.929688 122.28125 157.226562 121.882812 158.875 122.1875 C 159.917969 122.351562 160.800781 122.910156 161.3125 123.585938 Z M 104.441406 118.15625 C 105.949219 119.765625 107.292969 121.300781 108.570312 123.003906 C 107.804688 121.792969 106.96875 120.648438 105.902344 119.554688 C 105.414062 119.066406 104.925781 118.597656 104.441406 118.15625 Z M 109.453125 112.84375 C 109.707031 116.222656 110.195312 119.25 111.007812 122.445312 C 110.265625 119.296875 109.890625 116.058594 109.453125 112.84375 Z M 144.257812 101.960938 C 144.210938 101.542969 144.140625 101.121094 144.023438 100.703125 C 143.605469 98.839844 142.726562 97.183594 140.824219 95.949219 C 140.613281 95.808594 140.3125 95.832031 140.011719 95.902344 C 139.128906 96.648438 138.457031 97.71875 137.945312 98.910156 C 137.804688 99.257812 137.667969 99.609375 137.550781 99.980469 C 137.457031 101.074219 137.433594 102.078125 137.503906 102.425781 C 137.875 104.175781 137.738281 106.25 137.898438 108.066406 C 138.132812 110.722656 138.78125 113.214844 138.921875 115.847656 C 138.964844 116.804688 138.734375 118.480469 138.640625 119.972656 C 138.640625 120.042969 138.640625 120.136719 138.617188 120.207031 C 138.664062 120.371094 138.6875 120.554688 138.734375 120.71875 C 139.035156 119.414062 139.382812 118.109375 139.476562 116.945312 C 139.871094 112.097656 140.265625 107.34375 140.890625 102.496094 C 140.914062 102.378906 141.007812 102.308594 141.125 102.308594 C 141.242188 102.332031 141.308594 102.425781 141.308594 102.542969 C 140.683594 107.390625 140.3125 112.121094 139.894531 116.96875 C 139.800781 118.226562 139.40625 119.625 139.082031 121.023438 C 140.171875 118.15625 141.078125 115.265625 142.007812 112.308594 C 142.726562 109.976562 143.652344 107.507812 143.910156 105.058594 C 144 104.082031 144.164062 103.03125 144.257812 101.960938 Z M 144.488281 106.691406 C 144.09375 108.671875 143.375 110.652344 142.796875 112.539062 C 142.097656 114.800781 141.425781 116.992188 140.636719 119.15625 C 140.914062 118.691406 141.195312 118.25 141.402344 117.828125 C 142.773438 115.125 143.074219 112.398438 144.09375 110.1875 C 144.488281 109.324219 144.488281 107.738281 144.464844 106.808594 C 144.488281 106.761719 144.488281 106.714844 144.488281 106.691406 Z M 137.085938 101.820312 C 136.785156 103.265625 136.667969 104.710938 136.667969 105.898438 C 136.667969 109.558594 136.925781 112.867188 137.621094 116.386719 C 137.761719 117.0625 138.0625 117.96875 138.339844 118.996094 C 138.433594 117.804688 138.570312 116.59375 138.550781 115.871094 C 138.410156 113.238281 137.761719 110.769531 137.527344 108.113281 C 137.390625 106.296875 137.503906 104.246094 137.132812 102.519531 C 137.085938 102.355469 137.085938 102.125 137.085938 101.820312 Z M 157.878906 111.863281 C 156.324219 112.914062 154.882812 113.914062 153.679688 114.800781 C 154.164062 114.542969 154.652344 114.289062 155.140625 114.054688 C 155.371094 113.890625 155.605469 113.707031 155.835938 113.542969 C 156.53125 112.984375 157.203125 112.421875 157.878906 111.863281 Z M 175.28125 108.183594 C 173.332031 108.8125 171.21875 109.160156 169.410156 109.605469 C 165.417969 110.605469 160.917969 112.167969 156.554688 114.242188 C 159.894531 113.03125 163.332031 112.121094 166.230469 111.328125 C 167.902344 110.863281 169.921875 110.488281 171.800781 109.859375 C 173.074219 109.441406 174.28125 108.90625 175.28125 108.183594 Z M 108.269531 105.082031 C 108.058594 104.082031 107.617188 102.984375 106.992188 102.101562 C 106.410156 101.261719 105.691406 100.585938 104.835938 100.375 C 103.976562 100.167969 103.605469 100.84375 103.371094 101.703125 C 102.953125 103.335938 103.140625 105.710938 103.140625 106.386719 C 103.140625 106.972656 103.417969 108.042969 103.859375 109.394531 C 104.277344 110.652344 104.835938 112.144531 105.460938 113.683594 C 105.113281 112.050781 104.578125 110.441406 104.183594 108.8125 C 104 108.066406 103.441406 105.058594 103.464844 103.054688 C 103.464844 102.519531 103.511719 102.054688 103.605469 101.726562 C 103.675781 101.472656 103.789062 101.261719 103.929688 101.144531 C 104.277344 100.867188 104.648438 100.75 104.972656 100.773438 C 105.460938 100.820312 105.949219 101.121094 106.367188 101.613281 C 107.246094 102.566406 107.945312 104.152344 108.269531 105.082031 Z M 82.351562 106.273438 C 82.117188 106.226562 81.886719 106.203125 81.652344 106.179688 C 79.914062 105.921875 78.660156 106.667969 78.011719 107.761719 C 77.058594 109.417969 77.5 111.816406 79.820312 112.75 C 81.957031 113.613281 83.835938 113.261719 85.574219 112.585938 C 85.992188 112.421875 86.386719 112.238281 86.78125 112.050781 C 86.710938 112.050781 86.640625 112.074219 86.574219 112.074219 C 85.691406 112.191406 84.902344 112.398438 84.113281 112.515625 C 82.882812 112.703125 81.699219 112.703125 80.378906 111.816406 C 79.449219 111.210938 78.824219 110.628906 78.453125 110.09375 C 78.058594 109.535156 77.917969 109 78.011719 108.53125 C 78.125 107.972656 78.519531 107.507812 79.171875 107.132812 C 79.984375 106.714844 81.074219 106.410156 82.351562 106.273438 Z M 177.4375 101.679688 C 176.347656 101.890625 175.023438 102.332031 173.585938 102.941406 C 169.828125 104.5 165.164062 107.179688 160.941406 109.859375 C 160.011719 110.628906 159.085938 111.398438 158.15625 112.167969 C 159.480469 111.351562 160.847656 110.605469 162.171875 109.90625 C 166.578125 107.625 171.707031 106.503906 176.117188 104.082031 C 176.207031 104.035156 176.347656 104.058594 176.394531 104.152344 C 176.441406 104.246094 176.417969 104.382812 176.324219 104.429688 C 171.914062 106.855469 166.789062 107.972656 162.378906 110.257812 C 161.011719 110.980469 159.570312 111.769531 158.203125 112.609375 C 161.984375 110.957031 165.8125 109.675781 169.246094 108.8125 C 171.613281 108.230469 174.539062 107.832031 176.835938 106.691406 C 177.53125 105.828125 177.949219 105.035156 178.179688 104.335938 C 178.414062 103.59375 178.390625 102.964844 178.179688 102.472656 C 177.996094 102.148438 177.761719 101.890625 177.4375 101.679688 Z M 89.21875 107.832031 C 86.96875 107.132812 84.578125 106.574219 83.070312 106.644531 C 81.585938 106.714844 80.261719 107.015625 79.425781 107.53125 C 78.890625 107.832031 78.542969 108.207031 78.453125 108.671875 C 78.382812 109.042969 78.5 109.464844 78.824219 109.90625 C 79.171875 110.394531 79.773438 110.933594 80.65625 111.515625 C 81.886719 112.308594 82.976562 112.332031 84.089844 112.144531 C 84.878906 112.027344 85.691406 111.816406 86.550781 111.703125 C 87.105469 111.632812 87.640625 111.539062 88.128906 111.445312 C 88.476562 111.28125 88.824219 111.117188 89.148438 110.957031 C 90.515625 110.328125 91.886719 109.835938 93.347656 109.835938 C 93.277344 109.789062 93.1875 109.742188 93.09375 109.675781 C 92.675781 109.605469 92.257812 109.582031 91.933594 109.558594 C 91.261719 109.535156 90.539062 109.371094 89.820312 109.277344 C 89.148438 109.183594 88.476562 109.113281 87.824219 109.277344 C 86.804688 109.535156 84.695312 109.953125 83.09375 110.046875 C 82.375 110.070312 81.746094 110.046875 81.375 109.882812 C 81.28125 109.835938 81.214844 109.71875 81.257812 109.628906 C 81.304688 109.511719 81.421875 109.464844 81.515625 109.511719 C 81.863281 109.652344 82.441406 109.675781 83.09375 109.628906 C 84.671875 109.558594 86.757812 109.136719 87.757812 108.882812 C 88.453125 108.695312 89.195312 108.765625 89.914062 108.859375 C 90.609375 108.953125 91.304688 109.113281 91.980469 109.136719 C 92.070312 109.136719 92.164062 109.136719 92.257812 109.160156 C 91.285156 108.601562 90.261719 108.183594 89.21875 107.832031 Z M 165.976562 93.804688 C 165.882812 93.570312 165.765625 93.363281 165.628906 93.152344 C 165.164062 92.429688 164.492188 91.988281 163.5625 92.175781 C 162.332031 92.429688 161.359375 93.199219 160.5 94.109375 C 159.617188 95.039062 158.875 96.136719 158.109375 97.042969 C 157.902344 97.300781 157.691406 97.558594 157.484375 97.8125 C 156.832031 99 156.136719 100.167969 155.625 101.355469 C 154.488281 104.035156 153.699219 106.15625 153.144531 108.71875 C 153.050781 109.089844 152.703125 110.628906 152.632812 111.003906 C 153.121094 110.417969 154.027344 109.136719 154.421875 108.554688 C 157.066406 104.617188 158.875 100.261719 161.800781 96.484375 C 162.125 96.066406 162.449219 95.667969 162.773438 95.273438 C 162.84375 95.179688 162.980469 95.179688 163.050781 95.25 C 163.144531 95.320312 163.144531 95.460938 163.074219 95.53125 C 159.570312 99.5625 157.667969 104.40625 154.746094 108.765625 C 154.210938 109.558594 153.515625 110.351562 152.84375 111.140625 C 152.820312 111.210938 152.820312 111.257812 152.796875 111.328125 C 153.980469 110.28125 155.230469 109.230469 156.507812 108.160156 C 160.453125 104.828125 164.398438 101.214844 165.765625 95.761719 C 165.976562 95.0625 166.023438 94.386719 165.976562 93.804688 Z M 166.484375 96.296875 C 165.023438 101.726562 161.078125 105.410156 157.089844 108.789062 C 157.96875 108.207031 158.851562 107.601562 159.757812 106.878906 C 161.195312 105.734375 163.214844 103.476562 164.652344 101.214844 C 165.605469 99.722656 166.324219 98.234375 166.464844 97.019531 C 166.484375 96.835938 166.507812 96.578125 166.484375 96.296875 Z M 90.957031 93.246094 C 90.496094 92.734375 89.9375 92.382812 89.289062 92.429688 C 89.21875 92.710938 89.195312 93.058594 89.195312 93.433594 C 89.242188 94.808594 89.730469 96.507812 89.84375 96.972656 C 90.75 100.632812 93.253906 104.5 95.367188 107.691406 C 95.160156 106.996094 95.019531 106.320312 94.878906 105.597656 C 94.808594 105.175781 94.742188 104.757812 94.671875 104.335938 C 94.625 104.246094 94.578125 104.175781 94.53125 104.082031 C 92.976562 101.144531 90.820312 98.046875 90.167969 95.53125 C 90.144531 95.414062 90.214844 95.320312 90.308594 95.273438 C 90.425781 95.25 90.515625 95.320312 90.5625 95.414062 C 91.144531 97.671875 92.976562 100.421875 94.460938 103.101562 C 94.183594 101.378906 93.789062 99.5625 92.859375 97.511719 C 92.652344 96.996094 91.863281 94.761719 90.957031 93.246094 Z M 95.136719 102.148438 C 95.34375 103.289062 95.507812 104.382812 95.691406 105.433594 C 95.691406 105.457031 95.691406 105.480469 95.714844 105.503906 C 95.945312 106.039062 96.15625 106.574219 96.320312 107.085938 C 96.320312 107.0625 96.320312 107.0625 96.320312 107.039062 C 95.945312 105.410156 95.597656 103.753906 95.136719 102.148438 Z M 177.671875 106.203125 C 177.695312 106.179688 177.738281 106.15625 177.761719 106.132812 C 178.460938 105.664062 179.457031 104.851562 179.96875 103.894531 C 180.269531 103.335938 180.386719 102.753906 180.105469 102.171875 C 179.875 101.726562 179.386719 101.542969 178.714844 101.542969 C 178.503906 101.542969 178.25 101.542969 178.019531 101.589844 C 178.226562 101.796875 178.414062 102.03125 178.527344 102.308594 C 178.945312 103.21875 178.761719 104.570312 177.671875 106.203125 Z M 175.882812 101.238281 C 174.746094 101.167969 173.355469 101.519531 171.824219 102.289062 C 169.898438 103.289062 168.085938 104.429688 166.347656 105.664062 C 168.785156 104.292969 171.171875 103.054688 173.285156 102.171875 C 174.214844 101.796875 175.070312 101.472656 175.882812 101.238281 Z M 117.828125 98.234375 C 118.386719 100.167969 118.964844 102.078125 119.613281 104.011719 C 119.730469 104.335938 119.824219 104.6875 119.917969 105.035156 C 119.707031 103.707031 119.429688 102.378906 119.105469 101.050781 C 118.871094 100.050781 118.386719 99.210938 117.921875 98.347656 C 117.875 98.324219 117.851562 98.277344 117.828125 98.234375 Z M 88.40625 92.734375 C 88.128906 92.964844 87.988281 93.316406 87.941406 93.710938 C 87.824219 94.597656 88.082031 95.691406 88.265625 96.34375 C 88.800781 98.300781 89.960938 100.492188 91.238281 102.519531 C 90.285156 100.75 89.496094 98.933594 89.054688 97.183594 C 88.917969 96.578125 88.242188 94.226562 88.40625 92.734375 Z M 144.328125 100.214844 C 144.328125 99.070312 144.164062 97.953125 143.722656 96.949219 C 143.46875 96.367188 142.75 95.714844 141.984375 95.4375 C 141.519531 95.273438 141.054688 95.203125 140.683594 95.4375 C 140.660156 95.4375 140.660156 95.460938 140.636719 95.460938 C 140.777344 95.484375 140.914062 95.53125 141.03125 95.597656 C 142.910156 96.8125 143.839844 98.417969 144.328125 100.214844 Z M 120.613281 98.535156 C 120.542969 98.746094 120.472656 98.976562 120.425781 99.210938 C 120.425781 99.28125 120.402344 99.375 120.402344 99.445312 C 120.402344 99.492188 120.402344 99.539062 120.402344 99.585938 C 120.472656 99.234375 120.542969 98.886719 120.613281 98.535156 Z M 78.195312 83.0625 C 78.429688 83.527344 78.589844 83.902344 78.660156 84.113281 C 80.773438 89.75 81.167969 93.386719 83.578125 97.765625 C 83.230469 96.742188 83 95.621094 82.789062 94.503906 C 82.441406 92.617188 82.210938 90.683594 81.585938 88.933594 C 80.773438 86.722656 79.636719 84.8125 78.195312 83.0625 Z M 132.980469 69.523438 C 132.792969 69.640625 132.585938 69.78125 132.375 69.96875 C 129.964844 71.925781 126.714844 77.097656 126.179688 78.261719 C 123.558594 84.042969 121.585938 90.824219 120.683594 97.160156 C 121.007812 96.296875 121.355469 95.4375 121.679688 94.550781 C 121.933594 93.710938 122.238281 92.851562 122.539062 92.011719 C 124.625 85.71875 127.273438 80.359375 131.171875 74.8125 C 131.238281 74.722656 131.355469 74.699219 131.449219 74.765625 C 131.542969 74.835938 131.566406 74.953125 131.496094 75.046875 C 128.875 78.773438 126.832031 82.410156 125.136719 86.300781 C 126.460938 83.972656 127.945312 82.109375 129.5 81.175781 C 131.195312 80.148438 133.074219 77.285156 134 74.488281 C 134.535156 72.878906 134.742188 71.296875 134.371094 70.105469 C 134.324219 70.082031 134.28125 70.058594 134.234375 70.035156 C 133.976562 69.921875 133.699219 69.828125 133.535156 69.710938 C 133.351562 69.617188 133.164062 69.546875 132.980469 69.523438 Z M 75.714844 88.210938 C 76.6875 90.613281 77.964844 93.058594 79.519531 95.039062 C 79.960938 95.597656 80.46875 96.136719 81.003906 96.671875 C 80.5625 96.019531 80.214844 95.507812 80.097656 95.296875 C 78.613281 92.828125 76.988281 90.660156 75.714844 88.210938 Z M 165.582031 92.453125 C 165.164062 91.660156 164.492188 91.171875 163.679688 91.007812 C 162.054688 90.660156 160.59375 91.894531 159.105469 94.0625 C 158.621094 94.785156 158.039062 96.207031 157.761719 96.789062 C 158.296875 96.113281 159.570312 94.527344 160.199219 93.875 C 161.101562 92.894531 162.171875 92.082031 163.46875 91.824219 C 164.375 91.613281 165.070312 91.894531 165.582031 92.453125 Z M 75.550781 80.453125 C 75.34375 80.335938 75.15625 80.21875 74.972656 80.148438 C 74.761719 80.082031 74.578125 80.035156 74.460938 80.195312 C 74.296875 80.453125 74.25 80.78125 74.25 81.128906 C 74.25 81.246094 74.273438 81.363281 74.273438 81.5 C 74.4375 82.828125 75.015625 84.4375 75.203125 84.996094 C 76.457031 88.796875 78.777344 91.546875 80.773438 94.878906 C 80.839844 94.992188 80.957031 95.179688 81.144531 95.4375 C 78.9375 91.171875 77.105469 86.535156 74.460938 82.457031 C 74.390625 82.363281 74.4375 82.246094 74.53125 82.175781 C 74.625 82.109375 74.738281 82.152344 74.808594 82.246094 C 77.40625 86.277344 79.242188 90.871094 81.421875 95.085938 C 80.144531 91.894531 79.519531 88.726562 77.894531 84.390625 C 77.6875 83.808594 76.640625 81.570312 75.550781 80.453125 Z M 130.753906 81.246094 C 130.472656 81.5 130.195312 81.710938 129.917969 81.875 C 127.945312 83.0625 126.136719 85.859375 124.605469 89.121094 C 123.792969 90.890625 123.070312 92.804688 122.46875 94.667969 C 123.28125 92.710938 123.792969 90.566406 124.976562 88.773438 C 126.714844 86.117188 128.734375 83.691406 130.753906 81.246094 Z M 90.078125 92.128906 C 90.054688 92.105469 90.03125 92.082031 90.007812 92.082031 C 89.890625 91.988281 89.75 91.941406 89.636719 91.964844 C 89.589844 91.988281 89.542969 91.988281 89.519531 92.035156 C 89.707031 92.011719 89.890625 92.058594 90.078125 92.128906 Z M 130.960938 70.128906 C 130.820312 70.199219 130.707031 70.292969 130.566406 70.386719 C 128.828125 71.597656 127.0625 73.648438 126.320312 74.535156 C 123.234375 78.167969 121.378906 86 120.84375 91.753906 C 121.910156 86.976562 123.511719 82.152344 125.4375 77.867188 C 125.925781 76.839844 128.59375 72.53125 130.960938 70.128906 Z M 113.234375 86.839844 C 113.046875 86.652344 112.863281 86.488281 112.652344 86.324219 C 112.605469 86.300781 112.5625 86.277344 112.539062 86.253906 C 109.824219 84.878906 106.34375 85.695312 102.953125 86.300781 C 101.5625 86.558594 100.171875 86.769531 98.847656 86.816406 C 99.867188 87.046875 101.027344 87.046875 102.28125 86.929688 C 104.625 86.722656 107.199219 86.140625 109.429688 86.09375 C 110.890625 86.046875 112.191406 86.230469 113.234375 86.839844 Z M 101.121094 80.5 C 100.238281 80.3125 99.359375 80.171875 98.546875 80.082031 C 97.457031 79.964844 96.296875 79.917969 95.273438 80.21875 C 94.300781 80.523438 93.511719 81.128906 93.140625 82.269531 C 92.929688 82.921875 92.882812 83.4375 92.976562 83.878906 C 93.164062 84.15625 93.394531 84.414062 93.671875 84.625 C 96.132812 86.605469 99.449219 86.09375 102.839844 85.488281 C 105.554688 84.996094 108.316406 84.4375 110.726562 84.8125 C 110.519531 84.671875 110.308594 84.53125 110.101562 84.414062 C 109.5 84.179688 108.894531 83.972656 108.316406 83.691406 C 107.457031 83.273438 106.15625 83.15625 104.789062 83.132812 C 102.675781 83.109375 100.332031 83.390625 98.964844 83.414062 C 97.804688 83.4375 96.597656 82.804688 95.484375 82.527344 C 95.367188 82.503906 95.296875 82.386719 95.34375 82.269531 C 95.367188 82.152344 95.484375 82.109375 95.597656 82.132812 C 96.667969 82.410156 97.851562 83.015625 98.964844 83.015625 C 100.355469 82.992188 102.675781 82.714844 104.8125 82.738281 C 105.808594 82.738281 106.761719 82.804688 107.550781 83.015625 C 105.390625 81.992188 103.28125 81.105469 101.121094 80.5 Z M 96.179688 79.636719 C 95.621094 79.589844 95.042969 79.566406 94.484375 79.566406 C 92.351562 79.566406 91.863281 81.476562 92.535156 83.109375 C 92.558594 82.828125 92.628906 82.503906 92.746094 82.152344 C 93.164062 80.847656 94.066406 80.171875 95.160156 79.847656 C 95.484375 79.730469 95.832031 79.660156 96.179688 79.636719 Z M 134.953125 74.136719 C 134.90625 74.324219 134.835938 74.535156 134.765625 74.722656 C 134.371094 75.957031 133.792969 77.191406 133.121094 78.285156 C 133.1875 78.214844 133.234375 78.121094 133.304688 78.054688 C 134.140625 76.957031 134.71875 75.558594 134.953125 74.136719 Z M 103.976562 69.175781 C 102.746094 66.84375 101.5625 64.492188 100.261719 62.230469 C 99.707031 61.277344 99.035156 59.550781 98.128906 58.222656 C 97.570312 57.429688 96.96875 56.753906 96.203125 56.570312 C 96.15625 56.570312 96.132812 56.546875 96.085938 56.570312 C 95.992188 56.730469 95.902344 56.941406 95.832031 57.152344 C 95.785156 57.265625 95.738281 57.40625 95.714844 57.523438 C 95.621094 59.0625 96.226562 61.460938 96.363281 61.90625 C 97.480469 65.632812 100.148438 68.195312 102.863281 70.644531 C 102.929688 70.667969 102.976562 70.691406 103.023438 70.734375 C 103.1875 70.921875 103.371094 71.085938 103.558594 71.273438 C 104.183594 71.832031 104.8125 72.390625 105.390625 72.949219 C 105.414062 72.972656 105.4375 72.996094 105.4375 72.996094 C 105.808594 73.324219 106.179688 73.648438 106.550781 74 C 106.390625 73.648438 106.226562 73.277344 106.0625 72.925781 C 105.667969 72.273438 105.296875 71.574219 104.902344 70.898438 C 103.675781 69.246094 101.445312 67.242188 99.84375 65.167969 C 98.617188 63.605469 97.757812 62.019531 97.804688 60.554688 C 97.804688 60.4375 97.894531 60.34375 98.011719 60.367188 C 98.128906 60.367188 98.222656 60.460938 98.199219 60.578125 C 98.128906 61.972656 98.988281 63.441406 100.148438 64.910156 C 101.332031 66.402344 102.792969 67.871094 103.976562 69.175781 Z M 107.6875 73.953125 C 107.480469 73.371094 107.316406 72.855469 107.109375 72.554688 C 105.601562 70.128906 103.976562 65.585938 102.121094 61.789062 C 100.890625 59.292969 99.566406 57.152344 98.082031 56.171875 C 97.617188 55.871094 97.222656 55.777344 96.898438 55.847656 C 96.851562 55.847656 96.804688 55.871094 96.757812 55.894531 C 97.523438 56.21875 98.199219 56.894531 98.777344 57.757812 C 99.707031 59.109375 100.402344 60.832031 100.960938 61.8125 C 103 65.398438 104.789062 69.246094 106.898438 72.761719 C 107.179688 73.207031 107.433594 73.601562 107.6875 73.953125 Z M 95.4375 61.53125 C 95.484375 62.183594 95.597656 62.742188 95.714844 63.09375 C 97.152344 67.054688 99.21875 69.082031 102.140625 71.855469 C 102.792969 72.484375 103.675781 72.878906 104.53125 73.300781 C 103.953125 72.785156 103.417969 72.273438 102.910156 71.785156 C 99.890625 69.082031 96.828125 66.285156 95.597656 62.160156 C 95.554688 62.019531 95.507812 61.8125 95.4375 61.53125 Z M 121.539062 55.683594 C 121.515625 55.894531 121.472656 56.125 121.425781 56.335938 C 119.847656 62.695312 118.199219 66.144531 117.363281 70.96875 C 117.851562 69.476562 118.410156 68.011719 118.917969 66.402344 C 119.242188 65.421875 119.917969 64.539062 120.171875 63.558594 C 120.820312 60.972656 121.332031 58.363281 121.539062 55.683594 Z M 118.824219 45.964844 C 118.78125 45.964844 118.757812 45.964844 118.734375 45.941406 C 118.316406 45.894531 117.96875 45.894531 117.640625 45.917969 C 117.550781 46.035156 117.480469 46.152344 117.386719 46.292969 C 117.179688 46.664062 116.992188 47.175781 116.855469 47.785156 C 116.367188 49.695312 116.15625 52.539062 116.089844 55.9375 C 116.019531 59.96875 116.15625 64.746094 116.367188 69.546875 C 116.550781 68.59375 116.808594 67.683594 116.832031 67.101562 C 116.921875 65.214844 117.734375 63.304688 117.710938 61.484375 C 117.664062 57.941406 118.175781 54.519531 118.410156 50.976562 C 118.410156 50.859375 118.523438 50.789062 118.617188 50.789062 C 118.734375 50.789062 118.804688 50.882812 118.804688 51 C 118.570312 54.519531 118.058594 57.941406 118.105469 61.484375 C 118.128906 63.304688 117.316406 65.214844 117.226562 67.125 C 117.179688 67.964844 116.738281 69.429688 116.550781 70.757812 C 117.386719 65.960938 119.035156 62.488281 120.613281 56.125 C 120.890625 54.984375 120.773438 53.75 120.589844 52.539062 C 120.378906 51.230469 120.125 49.949219 120.125 48.761719 C 120.125 48.273438 119.660156 47.015625 119.035156 46.199219 C 118.964844 46.128906 118.894531 46.035156 118.824219 45.964844 Z M 134.140625 69.546875 C 134.070312 69.429688 133.976562 69.339844 133.863281 69.292969 C 133.769531 69.246094 133.675781 69.246094 133.558594 69.269531 C 133.605469 69.292969 133.675781 69.339844 133.722656 69.359375 C 133.839844 69.453125 133.976562 69.5 134.140625 69.546875 Z M 116.4375 46.410156 C 115.761719 46.921875 115.367188 47.832031 115.042969 49.113281 C 113.8125 53.820312 114.183594 59.015625 114.554688 63.746094 C 114.625 64.5625 114.90625 65.398438 115.183594 66.238281 C 115.277344 66.496094 115.34375 66.726562 115.4375 66.984375 C 115.277344 63.070312 115.183594 59.25 115.253906 55.9375 C 115.320312 51.882812 115.648438 48.574219 116.320312 46.6875 C 116.367188 46.59375 116.414062 46.5 116.4375 46.410156 Z M 120.9375 48.832031 C 120.9375 49.949219 121.214844 51.1875 121.402344 52.421875 C 121.515625 53.097656 121.585938 53.796875 121.609375 54.472656 C 121.609375 54.191406 121.632812 53.933594 121.632812 53.65625 C 121.609375 52.023438 121.402344 50.371094 120.9375 48.832031 Z M 120.9375 48.832031 " fill-opacity="1" fill-rule="evenodd"/></g></svg>