<svg xmlns="http://www.w3.org/2000/svg" xmlns:xlink="http://www.w3.org/1999/xlink" width="500" zoomAndPan="magnify" viewBox="0 0 375 374.999991" height="500" preserveAspectRatio="xMidYMid meet" version="1.0"><defs><clipPath id="f0d3c51555"><path d="M 79.085938 4.179688 L 319 4.179688 L 319 370.929688 L 79.085938 370.929688 Z M 79.085938 4.179688 " clip-rule="nonzero"/></clipPath></defs><g clip-path="url(#f0d3c51555)"><path fill="#000000" d="M 186.007812 6.507812 C 186.535156 5.695312 187.109375 5.121094 187.734375 4.832031 C 188.929688 4.257812 190.082031 4.59375 191.132812 5.550781 C 191.46875 5.835938 191.757812 6.21875 192.09375 6.605469 C 192.667969 6.84375 193.144531 7.226562 193.433594 7.800781 C 195.734375 12.300781 196.835938 17.566406 196.785156 22.738281 C 196.738281 29.777344 195.542969 36.574219 193.722656 43.324219 C 193.195312 45.335938 191.804688 47.15625 191.132812 49.214844 C 189.457031 54.289062 187.636719 58.789062 186.390625 63.722656 C 186.105469 66.449219 185.960938 69.464844 185.960938 72.816406 C 185.960938 72.867188 185.960938 72.914062 185.960938 72.914062 C 186.773438 87.898438 187.492188 100.96875 186.871094 106.429688 C 187.015625 107.050781 187.15625 107.671875 187.300781 108.246094 C 187.828125 110.304688 188.785156 112.078125 189.746094 113.847656 C 190.464844 115.140625 191.183594 116.480469 191.757812 117.871094 C 191.757812 117.058594 191.804688 116.289062 191.851562 115.574219 C 192.1875 112.652344 192.621094 109.683594 193.195312 106.667969 C 193.335938 94.792969 197.457031 74.015625 205.027344 65.15625 C 206.847656 63.003906 211.636719 57.496094 215.804688 55.34375 C 216.332031 55.054688 216.859375 54.863281 217.386719 54.71875 C 220.019531 52.710938 222.273438 52.519531 223.421875 54.863281 C 224.042969 56.109375 224.332031 57.640625 224.332031 59.269531 C 225.144531 64.054688 223.710938 69.5625 220.738281 73.441406 C 215.085938 80.765625 208.714844 87.613281 203.636719 95.320312 C 200.953125 99.390625 199.996094 104.273438 197.984375 108.535156 C 197.121094 110.304688 196.402344 112.078125 195.828125 113.898438 C 194.824219 118.253906 194.246094 122.226562 194.246094 125.195312 C 194.246094 125.339844 194.199219 125.484375 194.152344 125.625 C 194.296875 126.824219 194.488281 127.972656 194.632812 129.167969 C 194.917969 131.371094 195.109375 133.527344 195.109375 135.585938 C 195.828125 142.527344 196.117188 149.566406 196.261719 156.699219 C 196.355469 161.34375 195.015625 166.5625 193.769531 171.734375 C 192.523438 176.761719 189.121094 200.792969 188.308594 203.476562 C 187.542969 205.917969 187.683594 207.496094 186.964844 210.753906 C 185.480469 217.695312 185.863281 224.542969 185.863281 224.542969 C 185.960938 224.351562 186.054688 224.207031 186.152344 224.015625 C 189.746094 217.980469 194.582031 212.09375 197.554688 207.160156 C 207.902344 190.070312 222.847656 179.011719 222.847656 179.011719 C 225.195312 174.894531 228.066406 170.773438 229.984375 166.371094 C 230.464844 164.933594 230.222656 162.972656 229.839844 160.914062 C 229.171875 157.5625 227.875 154.019531 227.445312 151.863281 C 225.960938 144.539062 225.433594 137.597656 225.433594 129.984375 C 225.433594 125.625 226.199219 119.785156 228.261719 114.949219 C 228.402344 114.664062 228.5 114.375 228.644531 114.089844 C 231.230469 108.628906 233.433594 107.71875 234.582031 107.050781 C 235.78125 106.332031 237.265625 106.378906 238.703125 106.953125 C 240.714844 107.71875 242.582031 109.445312 243.253906 110.976562 C 245.265625 115.667969 244.546875 121.367188 243.972656 126.441406 C 244.019531 128.210938 244.066406 130.078125 244.117188 131.898438 C 244.164062 133.863281 244.117188 137.355469 243.253906 139.175781 C 241.097656 143.773438 240.523438 149.375 237.648438 154.929688 C 236.691406 156.746094 235.398438 158.710938 234.246094 160.722656 C 234.105469 161.007812 233.914062 161.246094 233.769531 161.535156 C 233.242188 162.972656 232.667969 164.40625 232.042969 165.84375 C 231.996094 166.132812 231.710938 166.65625 231.515625 167.136719 C 230.222656 170.058594 227.636719 174.222656 225.960938 177 L 227.78125 175.753906 C 229.890625 173.984375 231.804688 172.164062 233.914062 170.390625 C 234.917969 169.53125 235.542969 169.148438 236.546875 168.285156 L 237.410156 167.421875 C 239.324219 165.269531 240.425781 163.355469 242.726562 161.34375 C 243.589844 160.242188 245.886719 157.945312 248.523438 154.878906 C 250.582031 152.390625 252.882812 149.421875 254.703125 146.167969 C 259.207031 138.21875 261.601562 128.785156 262.414062 126.394531 C 263.085938 124.285156 263.851562 122.226562 264.714844 120.074219 C 266.824219 115.140625 269.027344 110.6875 272.09375 105.328125 C 275.300781 99.726562 279.183594 96.851562 283.207031 97.714844 C 286.894531 98.480469 289.914062 101.878906 289.195312 107.671875 C 289.480469 109.253906 289.578125 110.785156 289.433594 111.886719 C 289.144531 114.472656 287.613281 117.679688 285.601562 120.839844 C 282.582031 125.578125 278.367188 130.269531 275.300781 132.664062 C 271.660156 135.539062 268.117188 137.644531 264.667969 139.796875 C 262.941406 141.234375 261.3125 142.671875 259.734375 144.15625 C 259.683594 144.25 259.589844 144.300781 259.542969 144.347656 C 258.679688 145.160156 253.410156 152.199219 251.542969 154.640625 C 252.117188 154.257812 252.644531 153.921875 253.21875 153.539062 C 253.457031 153.394531 253.792969 153.15625 253.886719 153.0625 C 257.097656 149.851562 269.027344 141.089844 282.007812 133.289062 C 287.46875 129.027344 293.027344 125.101562 299.253906 121.890625 C 303.277344 119.832031 306.964844 119.257812 309.601562 119.832031 C 309.746094 119.882812 309.886719 119.882812 309.984375 119.929688 C 311.46875 119.59375 312.761719 119.402344 313.863281 119.449219 C 316.019531 119.5 317.503906 120.214844 318.222656 121.699219 C 319.085938 123.375 318.800781 125.148438 317.886719 126.777344 C 316.691406 128.976562 314.390625 130.894531 312.8125 131.996094 C 311.660156 132.761719 310.414062 133.382812 309.074219 133.957031 C 306.632812 136.351562 303.324219 137.882812 299.828125 139.03125 C 295.902344 140.324219 291.78125 141.140625 288.285156 142.046875 C 281.097656 144.011719 260.308594 151.335938 259.253906 151.863281 C 258.535156 152.246094 257.863281 152.675781 257.195312 153.0625 C 256.714844 153.394531 256.378906 153.492188 255.949219 153.828125 C 255.851562 153.921875 255.660156 154.019531 255.46875 154.113281 C 253.554688 155.3125 249.625 157.847656 248.859375 158.472656 C 248.234375 158.949219 247.324219 159.90625 247.277344 159.953125 C 246.082031 161.34375 244.785156 162.730469 243.492188 164.074219 C 241.960938 165.699219 240.332031 167.28125 238.75 168.8125 C 236.066406 171.351562 233.289062 173.839844 230.511719 176.234375 C 228.066406 178.339844 225.578125 180.398438 223.085938 182.503906 L 221.9375 183.460938 C 221.265625 184.039062 220.59375 184.5625 219.972656 185.089844 C 219.78125 185.234375 219.589844 185.425781 219.351562 185.570312 C 219.207031 185.714844 219.015625 185.808594 218.871094 185.953125 C 218.679688 186.144531 218.441406 186.335938 218.246094 186.480469 L 218.199219 186.527344 C 219.636719 185.472656 221.21875 184.371094 222.941406 183.175781 C 233.578125 175.945312 249.289062 166.707031 261.363281 161.582031 C 266.582031 159.378906 271.132812 157.894531 274.34375 157.65625 C 276.835938 157.464844 278.558594 158.085938 279.421875 159.332031 C 281.144531 161.964844 280.714844 165.125 278.992188 168.140625 C 279.085938 168.476562 279.132812 168.8125 279.132812 169.148438 C 279.183594 170.917969 278.128906 172.785156 275.398438 174.175781 C 265.914062 179.058594 255.515625 182.9375 244.882812 185.714844 C 239.324219 187.195312 234.390625 187.53125 229.695312 188.105469 C 227.398438 188.394531 225.144531 188.730469 222.941406 189.304688 C 218.773438 191.699219 214.605469 194.1875 210.296875 196.820312 C 208.621094 198.113281 206.992188 199.5 205.410156 201.035156 C 202.488281 204.960938 199.613281 208.933594 196.546875 212.621094 C 194.105469 215.539062 189.3125 221.765625 185.578125 228.5625 C 185.386719 228.992188 181.21875 240.054688 179.253906 248.957031 L 179.207031 249.101562 C 178.726562 251.449219 178.296875 253.746094 177.816406 256.09375 L 177.769531 256.1875 C 177.53125 257.625 177.289062 259.0625 177.050781 260.449219 C 176.859375 261.789062 176.621094 263.128906 176.425781 264.472656 C 175.902344 267.917969 175.421875 271.414062 174.941406 274.859375 L 174.941406 274.957031 C 177.242188 270.839844 180.066406 266.914062 183.085938 263.320312 C 186.105469 259.011719 189.695312 254.847656 193.914062 250.875 C 198.464844 246.515625 204.261719 244.027344 210.199219 241.824219 C 210.296875 238.332031 210.679688 232.871094 210.964844 231.820312 C 212.117188 227.269531 212.691406 223.824219 214.941406 219.707031 C 217.53125 215.015625 220.691406 210.609375 223.230469 206.011719 C 224.09375 204.433594 225.480469 201.847656 227.207031 199.980469 C 227.492188 199.644531 227.828125 199.359375 228.117188 199.070312 C 228.261719 198.878906 228.402344 198.734375 228.546875 198.59375 C 229.21875 197.921875 229.886719 197.441406 230.511719 197.203125 C 231.039062 197.011719 231.566406 197.011719 232.042969 197.203125 C 232.332031 197.347656 232.621094 197.539062 232.90625 197.824219 C 233.914062 198.304688 234.632812 199.359375 235.0625 200.746094 C 236.355469 205.054688 235.0625 212.859375 234.152344 215.15625 C 231.613281 221.285156 225.53125 230.527344 218.726562 237.851562 C 218.535156 238.089844 218.296875 238.332031 218.105469 238.523438 C 217.960938 238.664062 217.863281 238.855469 217.722656 239 C 220.644531 237.898438 223.46875 236.703125 226.152344 235.21875 C 231.996094 230.957031 236.738281 223.632812 241.242188 218.367188 C 244.210938 214.917969 247.183594 210.226562 250.679688 206.15625 C 254.320312 201.945312 258.488281 198.496094 263.613281 197.632812 C 266.679688 197.109375 268.5 197.632812 269.410156 198.640625 C 270.367188 199.691406 270.511719 201.320312 269.9375 203.234375 C 269.3125 205.34375 267.925781 207.785156 266.34375 210.082031 C 265.625 211.996094 264.953125 213.578125 264.667969 214.246094 C 262.992188 218.367188 258.246094 221.957031 252.546875 225.117188 C 247.710938 227.796875 242.152344 230.191406 237.265625 232.394531 C 230.03125 236.320312 222.558594 239.863281 215.277344 243.550781 C 214.941406 243.789062 214.605469 244.027344 214.273438 244.265625 C 214.082031 244.410156 213.792969 244.457031 213.554688 244.410156 C 211.445312 245.464844 209.335938 246.566406 207.277344 247.667969 C 203.734375 249.773438 199.851562 251.878906 198.320312 252.644531 C 193.671875 254.945312 188.835938 259.109375 184.476562 264.136719 L 184.425781 264.183594 C 183.851562 264.996094 183.277344 265.859375 182.75 266.671875 C 182.175781 267.535156 181.648438 268.398438 181.171875 269.257812 C 182.464844 268.207031 183.949219 267.152344 185.578125 266.097656 C 198.464844 257.527344 219.492188 248.960938 226.152344 248.144531 C 228.59375 247.859375 234.296875 246.707031 237.839844 247.667969 C 239.230469 248.050781 240.332031 248.765625 240.90625 249.867188 C 241.480469 250.921875 241.625 252.359375 240.953125 254.371094 C 240.90625 254.5625 240.8125 254.753906 240.761719 254.894531 C 240.90625 255.519531 240.953125 256.238281 240.90625 257.050781 C 240.859375 257.527344 240.667969 258.054688 240.285156 258.582031 C 239.757812 259.253906 238.941406 259.972656 237.9375 260.640625 C 234.152344 263.179688 227.636719 265.429688 225.53125 265.859375 C 211.683594 268.636719 196.929688 268.539062 183.566406 274.140625 C 182.082031 274.765625 179.542969 275.816406 177.195312 277.207031 C 175.324219 281.5625 173.839844 286.113281 172.785156 290.851562 C 172.546875 292.816406 172.308594 294.777344 172.066406 296.742188 C 171.875 298.464844 171.683594 300.1875 171.492188 301.910156 L 171.492188 302.007812 C 171.734375 302.675781 171.925781 303.347656 172.164062 304.066406 C 172.738281 305.886719 174.03125 307.511719 174.605469 309.378906 C 176.90625 316.945312 178.007812 325.179688 178.441406 333.03125 C 178.679688 336.910156 179.636719 340.789062 179.78125 344.714844 C 179.875 347.300781 179.925781 349.882812 179.875 352.46875 C 180.210938 353.09375 180.546875 353.761719 180.882812 354.386719 C 180.976562 354.480469 181.074219 354.527344 181.171875 354.578125 C 181.457031 354.769531 181.554688 355.101562 181.503906 355.4375 C 182.082031 356.445312 182.703125 357.449219 183.46875 358.359375 C 185.144531 360.464844 187.15625 362.332031 189.027344 364.246094 C 189.21875 364.4375 189.503906 364.582031 189.746094 364.726562 C 190.03125 364.871094 190.273438 365.0625 190.464844 365.253906 C 190.75 365.589844 190.75 366.066406 190.464844 366.402344 C 190.464844 366.785156 190.222656 367.121094 189.890625 367.265625 C 189.984375 367.40625 190.03125 367.550781 190.03125 367.742188 C 189.984375 368.125 189.695312 368.460938 189.363281 368.507812 C 189.171875 368.605469 188.738281 368.796875 188.453125 368.75 C 188.019531 368.699219 187.589844 368.605469 187.15625 368.460938 C 185.671875 368.367188 184.234375 367.503906 182.894531 365.921875 C 181.746094 364.582031 180.644531 362.714844 179.542969 360.417969 C 179.492188 360.894531 179.445312 361.328125 179.398438 361.804688 C 179.253906 362.90625 179.351562 364.4375 179.300781 365.875 C 179.253906 366.929688 179.0625 367.933594 178.726562 368.75 C 178.726562 368.796875 178.488281 369.464844 178.246094 369.898438 C 178.105469 370.234375 177.914062 370.472656 177.722656 370.617188 C 177.480469 370.808594 177.289062 370.855469 177.050781 370.855469 C 176.8125 370.855469 176.523438 370.757812 176.285156 370.472656 C 176.1875 370.375 176.09375 370.183594 176.042969 369.945312 C 175.996094 369.753906 175.996094 369.417969 176.042969 368.988281 C 176.234375 367.167969 177.195312 363.289062 177.289062 362.621094 C 177.289062 362.476562 177.335938 362.378906 177.433594 362.285156 C 177.578125 361.421875 177.671875 360.609375 177.722656 359.746094 C 177.816406 358.789062 177.914062 357.785156 177.960938 356.828125 L 177.960938 356.730469 C 177.386719 355.246094 176.90625 353.761719 176.425781 352.230469 C 175.949219 350.601562 175.46875 349.023438 175.039062 347.394531 L 175.039062 347.347656 C 174.605469 346.148438 174.175781 344.953125 173.792969 343.707031 C 173.410156 342.605469 173.074219 341.457031 172.785156 340.308594 C 172.402344 339.015625 172.066406 337.675781 171.734375 336.382812 C 171.398438 335.042969 171.0625 333.703125 170.773438 332.3125 C 170.535156 331.117188 170.296875 329.96875 170.054688 328.769531 C 169.863281 327.667969 169.671875 326.617188 169.480469 325.515625 C 169.335938 324.558594 169.195312 323.601562 169.050781 322.640625 C 168.953125 321.828125 168.859375 321.0625 168.8125 320.25 C 168.761719 319.914062 168.761719 319.625 168.761719 319.289062 C 168.761719 319.148438 168.761719 318.957031 168.761719 318.8125 C 168.761719 318.621094 168.761719 318.382812 168.761719 318.140625 C 168.761719 317.375 168.761719 316.65625 168.761719 315.890625 C 168.761719 313.449219 168.8125 311.054688 168.90625 308.613281 L 168.90625 308.519531 C 168.8125 307.035156 168.714844 305.550781 168.621094 304.066406 C 168.523438 302.675781 168.476562 301.242188 168.476562 299.851562 L 168.476562 299.710938 C 168.042969 298.417969 167.660156 297.171875 167.230469 295.878906 C 166.800781 294.585938 166.367188 293.339844 165.9375 292.046875 L 165.9375 292 C 165.792969 291.953125 165.695312 291.855469 165.601562 291.714844 C 164.59375 290.277344 163.492188 288.792969 162.34375 287.308594 C 160.378906 284.867188 158.273438 282.664062 156.117188 280.75 C 154.871094 279.984375 152.90625 278.738281 152.621094 278.59375 C 149.3125 276.777344 145.769531 274.667969 142.128906 273.566406 C 139.351562 272.753906 136.570312 272.324219 133.792969 271.507812 C 127.515625 269.640625 119.039062 266.148438 112.953125 262.078125 C 112.234375 261.839844 111.515625 261.597656 110.800781 261.3125 C 110.222656 261.121094 109.648438 260.878906 109.074219 260.59375 C 108.546875 260.355469 108.019531 260.113281 107.492188 259.828125 C 107.015625 259.539062 106.582031 259.253906 106.152344 258.964844 C 105.578125 258.535156 105.050781 258.054688 104.621094 257.480469 C 104.523438 257.335938 104.425781 257.242188 104.332031 257.097656 C 104.285156 257.050781 104.234375 256.953125 104.1875 256.90625 C 104.140625 256.8125 104.09375 256.761719 104.042969 256.667969 C 103.851562 256.332031 103.660156 255.996094 103.46875 255.660156 C 102.992188 254.703125 102.605469 253.699219 102.414062 252.644531 C 102.320312 252.023438 102.273438 251.402344 102.320312 250.777344 C 102.367188 250.394531 102.414062 249.964844 102.511719 249.582031 C 102.605469 249.199219 102.75 248.816406 102.941406 248.433594 C 103.039062 248.191406 103.183594 248 103.324219 247.761719 C 103.421875 247.570312 103.566406 247.425781 103.660156 247.285156 C 103.757812 247.1875 103.851562 247.042969 103.949219 246.949219 C 104.667969 246.085938 105.578125 245.417969 106.535156 244.890625 C 106.726562 244.792969 106.871094 244.699219 107.0625 244.601562 C 107.734375 244.265625 108.402344 244.027344 109.074219 243.789062 C 109.839844 243.550781 110.605469 243.40625 111.375 243.261719 C 112.042969 243.164062 112.761719 243.117188 113.480469 243.070312 C 114.199219 243.070312 114.917969 243.070312 115.589844 243.164062 C 116.785156 243.308594 117.9375 243.550781 119.085938 243.933594 C 119.660156 244.125 120.234375 244.363281 120.761719 244.648438 C 120.90625 244.699219 121.003906 244.792969 121.144531 244.839844 C 121.289062 244.9375 121.433594 245.035156 121.578125 245.082031 C 121.914062 245.273438 122.199219 245.464844 122.535156 245.65625 C 122.917969 245.800781 123.253906 245.941406 123.589844 246.085938 C 125.984375 247.042969 128.621094 248 130.871094 249.292969 C 133.265625 250.683594 135.183594 252.886719 137.289062 254.65625 C 142.992188 259.394531 147.398438 265.285156 151.46875 271.316406 C 155.972656 276.34375 160.140625 281.421875 163.683594 286.0625 C 163.78125 286.207031 163.925781 286.351562 164.019531 286.445312 C 162.390625 282.089844 160.667969 277.828125 158.847656 273.664062 C 152.042969 258.054688 144.1875 244.410156 136.714844 235.984375 L 136.667969 235.9375 C 135.851562 235.171875 135.039062 234.40625 134.222656 233.636719 C 133.410156 232.871094 132.546875 232.152344 131.683594 231.4375 L 131.636719 231.386719 C 130.105469 230.382812 128.523438 229.425781 126.941406 228.46875 C 124.929688 227.511719 122.871094 226.742188 120.761719 225.976562 C 115.542969 224.109375 110.847656 221.71875 106.054688 218.796875 C 104.285156 217.742188 102.222656 217.214844 100.355469 216.164062 C 95.851562 213.625 91.351562 210.035156 87.613281 206.539062 C 85.3125 204.433594 83.492188 201.609375 82.105469 198.6875 C 81.386719 197.683594 80.761719 196.628906 80.285156 195.625 C 79.324219 193.566406 79.085938 191.601562 79.851562 190.023438 C 80.667969 188.394531 82.488281 187.867188 84.835938 188.105469 C 89.480469 188.632812 96.140625 192.273438 97.578125 193.421875 C 108.261719 201.945312 117.363281 212.1875 126.03125 222.578125 L 104.234375 199.117188 C 106.726562 200.746094 109.3125 202.328125 111.710938 204.097656 C 114.824219 206.394531 117.265625 209.84375 119.851562 212.667969 C 123.734375 216.929688 127.039062 222.292969 130.246094 227.03125 C 131.015625 227.84375 131.734375 228.660156 132.355469 229.328125 C 134.128906 230.71875 135.902344 232.441406 137.722656 234.453125 C 138.679688 235.363281 139.589844 236.273438 140.5 237.230469 C 142.03125 238.855469 143.515625 240.53125 144.953125 242.257812 C 146.390625 243.980469 147.734375 245.75 149.027344 247.570312 C 149.792969 248.671875 150.558594 249.773438 151.277344 250.875 C 150.75 249.054688 150.222656 247.285156 149.746094 245.464844 C 149.695312 245.367188 149.648438 245.273438 149.648438 245.175781 C 149.601562 245.03125 149.601562 244.839844 149.554688 244.699219 C 149.171875 243.308594 148.785156 241.921875 148.402344 240.582031 C 147.300781 236.605469 146.582031 232.203125 145.578125 227.84375 C 145.53125 227.605469 145.433594 227.320312 145.386719 227.078125 C 145.050781 225.738281 143.039062 219.5625 142.605469 218.316406 L 142.558594 218.175781 C 141.792969 216.449219 140.882812 214.871094 139.78125 213.433594 C 137.578125 210.511719 134.894531 207.449219 132.117188 204.335938 C 123.398438 197.632812 113.53125 188.679688 110.847656 177.8125 C 109.984375 174.367188 108.835938 171.925781 109.265625 168.332031 C 109.265625 168.285156 109.265625 168.238281 109.265625 168.140625 C 109.265625 167.757812 109.265625 167.425781 109.3125 167.136719 C 109.410156 166.464844 109.648438 165.941406 109.9375 165.652344 C 109.984375 165.605469 109.984375 165.605469 109.984375 165.605469 C 110.128906 165.414062 110.320312 165.269531 110.511719 165.171875 C 110.605469 165.125 110.65625 165.125 110.75 165.125 C 111.375 164.886719 111.996094 164.980469 112.667969 165.316406 C 113.097656 165.507812 113.53125 165.84375 113.960938 166.226562 C 116.691406 167.328125 119.183594 169.578125 120.8125 172.019531 C 126.800781 181.164062 130.679688 192.367188 134.414062 202.710938 C 134.464844 202.804688 134.511719 202.851562 134.558594 202.949219 C 136.042969 205.4375 138.152344 207.785156 139.78125 210.273438 C 141.746094 213.242188 142.992188 214.535156 144.1875 217.839844 C 144.1875 217.886719 144.234375 217.933594 144.234375 217.984375 C 145.335938 220.566406 146.152344 223.34375 146.871094 226.167969 C 146.964844 226.410156 147.015625 226.601562 147.015625 226.742188 C 147.207031 227.460938 147.351562 228.085938 147.542969 228.707031 C 146.824219 223.535156 146.535156 219.898438 146.871094 215.730469 C 146.726562 213.578125 146.535156 211.472656 146.296875 209.316406 C 145.914062 208.023438 145.53125 206.683594 144.953125 205.4375 C 142.605469 200.21875 141.121094 193.132812 141.21875 187.390625 C 141.265625 185.042969 141.074219 182.363281 142.175781 180.207031 C 142.800781 178.960938 143.566406 177.285156 144.523438 175.898438 C 144.761719 175.5625 145.003906 175.226562 145.289062 174.941406 C 145.769531 174.175781 146.535156 173.21875 147.351562 172.738281 C 148.308594 172.164062 149.3125 172.117188 150.175781 172.976562 C 152.667969 175.46875 153.386719 178.722656 153.433594 182.171875 C 153.433594 182.503906 153.433594 182.839844 153.433594 183.175781 C 153.625 184.230469 153.816406 185.332031 154.054688 186.480469 C 155.636719 194.1875 153.242188 198.734375 151.515625 205.773438 C 150.464844 210.082031 149.265625 214.246094 148.738281 218.507812 C 148.980469 222.242188 149.121094 225.976562 149.410156 229.664062 C 149.410156 229.710938 149.410156 229.761719 149.410156 229.808594 C 149.601562 232.394531 149.839844 234.980469 150.128906 237.5625 C 150.273438 238.378906 150.464844 239.238281 150.605469 240.199219 C 150.605469 240.339844 150.605469 240.484375 150.558594 240.582031 C 150.75 241.824219 150.941406 243.023438 151.230469 244.265625 C 152.378906 248.382812 153.578125 252.503906 154.871094 256.621094 C 158.558594 263.179688 161.480469 270.121094 163.78125 277.445312 C 163.972656 277.6875 164.164062 277.972656 164.355469 278.261719 C 165.027344 279.410156 165.457031 280.84375 165.792969 281.613281 C 166.992188 284.339844 167.566406 287.355469 168.1875 290.324219 C 168.425781 290.707031 168.667969 291.089844 168.90625 291.425781 C 169.050781 290.277344 169.289062 289.128906 169.625 287.929688 L 169.671875 287.644531 C 170.152344 285.296875 170.632812 282.902344 171.15625 280.558594 C 171.683594 278.019531 172.210938 275.484375 172.738281 272.945312 C 173.457031 269.449219 174.175781 266.003906 174.894531 262.507812 C 175.324219 260.304688 175.804688 258.105469 176.234375 255.902344 L 176.332031 255.421875 C 176.570312 254.035156 176.8125 252.644531 177.097656 251.257812 C 177.195312 250.730469 177.289062 250.203125 177.433594 249.726562 C 177.53125 249.292969 177.625 248.863281 177.769531 248.433594 L 177.816406 248.191406 C 178.34375 245.609375 178.824219 243.023438 179.351562 240.390625 L 179.398438 240.199219 C 179.351562 240.054688 179.351562 239.910156 179.351562 239.765625 C 179.492188 239.046875 179.683594 238.332031 179.875 237.5625 L 179.875 237.46875 C 182.128906 225.738281 184.285156 213.960938 186.34375 200.890625 C 186.390625 200.507812 186.296875 200.21875 186.296875 200.21875 C 186.054688 199.359375 185.195312 198.113281 184.714844 196.867188 C 182.75 191.746094 178.441406 184.179688 177.578125 182.363281 C 170.105469 165.699219 162.34375 158.902344 150.511719 146.453125 C 150.128906 146.070312 149.746094 145.6875 149.363281 145.351562 C 149.074219 145.160156 148.835938 144.921875 148.546875 144.730469 C 146.535156 143.773438 144.042969 141.953125 141.792969 140.324219 C 141.410156 140.085938 141.074219 139.847656 140.691406 139.605469 C 138.441406 139.320312 136.332031 139.605469 134.082031 140.085938 C 133.21875 140.277344 132.308594 140.46875 131.398438 140.707031 C 130.917969 140.898438 130.390625 141.140625 129.914062 141.378906 C 127.421875 142.527344 124.980469 143.820312 122.441406 144.824219 C 118.464844 146.359375 114.199219 147.125 109.3125 145.160156 C 103.421875 142.816406 102.320312 136.6875 104.714844 132.519531 C 106.34375 129.746094 109.503906 127.828125 113.914062 128.453125 C 120.523438 129.410156 127.710938 130.703125 133.984375 133.527344 C 129.195312 129.601562 124.691406 125.53125 120.90625 121.125 C 120.90625 121.125 120.90625 121.125 120.859375 121.125 C 120.667969 121.222656 120.378906 121.175781 120.285156 120.933594 C 120.1875 120.695312 120.042969 120.503906 119.902344 120.265625 C 119.324219 119.738281 118.65625 119.019531 117.9375 118.15625 C 116.929688 117.007812 115.875 115.574219 114.871094 114.183594 L 114.824219 114.136719 C 112.667969 112.03125 110.367188 110.019531 108.546875 107.722656 C 104.714844 102.835938 101.695312 96.660156 99.589844 90.820312 C 99.207031 89.71875 99.015625 88.617188 98.917969 87.46875 C 98.871094 87.324219 98.824219 87.179688 98.773438 87.039062 C 98.296875 85.648438 96.714844 81.148438 96.714844 78.085938 C 96.714844 76.457031 97.242188 75.164062 98.296875 74.636719 C 99.445312 74.0625 100.835938 74.589844 102.128906 75.882812 C 102.941406 76.695312 103.804688 77.84375 104.523438 79.042969 C 108.738281 83.542969 112.09375 88.425781 114.246094 94.316406 C 115.542969 97.953125 116.070312 101.976562 116.785156 105.902344 C 117.457031 109.730469 118.367188 113.515625 120.332031 116.625 C 120.425781 116.769531 120.425781 117.007812 120.285156 117.105469 C 120.859375 117.964844 121.53125 118.875 122.199219 119.832031 C 122.296875 119.976562 122.34375 120.121094 122.34375 120.3125 C 126.222656 124.8125 130.871094 128.929688 135.804688 132.90625 C 135.902344 132.953125 135.996094 133.046875 136.09375 133.144531 C 136.667969 133.574219 137.195312 134.003906 137.769531 134.484375 C 139.492188 135.871094 141.265625 137.214844 143.039062 138.554688 C 143.183594 138.601562 143.324219 138.648438 143.46875 138.746094 C 142.703125 137.546875 142.082031 136.398438 141.648438 135.824219 C 140.59375 134.246094 139.492188 132.617188 138.390625 130.894531 C 138.199219 130.703125 138.054688 130.511719 137.863281 130.269531 C 133.554688 124.859375 128.234375 116.769531 126.464844 110.113281 C 126.082031 108.679688 125.503906 106.285156 125.792969 104.371094 C 125.984375 103.027344 126.558594 101.925781 127.757812 101.402344 C 128.09375 100.300781 128.714844 99.535156 129.671875 99.292969 C 130.246094 99.152344 130.824219 99.246094 131.445312 99.535156 C 132.117188 99.867188 132.835938 100.585938 133.457031 101.496094 C 135.710938 104.609375 137.769531 110.402344 138.34375 111.742188 C 138.390625 111.789062 138.390625 111.886719 138.441406 111.933594 C 141.695312 118.15625 143.230469 124.957031 144.667969 131.804688 C 145.144531 134.195312 145.480469 136.449219 146.152344 138.554688 C 147.0625 140.039062 148.261719 141.523438 149.792969 143.054688 C 149.839844 143.101562 149.890625 143.199219 149.9375 143.292969 C 150.175781 143.53125 150.414062 143.773438 150.65625 144.011719 C 150.800781 144.203125 150.894531 144.394531 150.894531 144.632812 C 155.875 148.464844 160.667969 152.34375 164.835938 156.507812 C 165.503906 157.179688 166.175781 157.894531 166.75 158.613281 C 163.300781 151.71875 159.804688 143.339844 157.890625 137.40625 C 156.882812 134.386719 156.308594 131.945312 156.308594 130.703125 C 156.308594 129.265625 155.925781 124.191406 156.835938 120.648438 C 157.554688 117.824219 159.132812 116.003906 161.863281 116.722656 C 164.019531 117.25 165.839844 118.875 167.277344 120.933594 C 169.335938 123.953125 170.535156 127.878906 170.535156 130.703125 C 170.535156 132.710938 170.582031 134.628906 170.632812 136.449219 C 172.453125 146.023438 172.980469 155.886719 175.515625 165.316406 C 175.996094 167.039062 176.140625 169.339844 176.476562 171.589844 C 176.859375 172.882812 177.289062 174.175781 177.722656 175.515625 C 177.769531 175.609375 177.769531 175.707031 177.769531 175.753906 C 180.070312 179.394531 184.667969 187.390625 186.871094 193.324219 C 187.0625 193.757812 187.207031 194.234375 187.351562 194.667969 C 188.785156 185.425781 189.984375 176.378906 190.847656 167.949219 C 192.761719 149.710938 193.050781 134.4375 190.367188 126.394531 C 186.726562 115.523438 184.042969 104.703125 180.835938 93.691406 C 178.824219 90.484375 175.183594 89.765625 170.964844 89.863281 C 166.367188 90.007812 161.050781 91.15625 156.261719 91.585938 C 153.003906 91.875 149.9375 91.824219 147.445312 90.867188 C 147.0625 90.722656 146.632812 90.582031 146.199219 90.484375 C 142.941406 90.292969 139.875 89.382812 137.289062 87.324219 C 132.164062 83.207031 132.355469 73.917969 140.070312 73.917969 C 149.363281 73.917969 157.984375 76.550781 166.414062 80.574219 C 166.800781 80.71875 167.132812 80.910156 167.46875 81.054688 C 167.949219 81.292969 168.425781 81.53125 168.859375 81.820312 C 170.296875 82.539062 171.683594 83.351562 173.074219 84.164062 C 173.3125 84.261719 173.554688 84.355469 173.792969 84.453125 C 175.039062 84.929688 176.042969 85.792969 176.859375 86.65625 C 177.53125 87.085938 178.199219 87.660156 178.824219 88.1875 C 178.964844 88.28125 179.160156 88.378906 179.300781 88.472656 C 178.582031 86.175781 177.863281 83.878906 177.097656 81.578125 C 175.949219 78.132812 173.554688 74.925781 170.632812 71.8125 C 168.332031 69.371094 165.746094 67.023438 163.207031 64.773438 C 162.488281 64.34375 161.722656 63.960938 160.90625 63.578125 C 158.847656 62.621094 156.785156 61.710938 155.253906 60.226562 C 149.171875 54.433594 144.8125 50.21875 141.792969 41.9375 C 141.265625 40.40625 140.929688 37.148438 141.171875 33.941406 C 140.929688 32.21875 140.835938 30.496094 141.027344 29.203125 C 141.21875 28.101562 141.601562 27.335938 142.175781 26.902344 C 142.558594 26.617188 143.085938 26.472656 143.660156 26.570312 C 143.996094 26.28125 144.378906 26.089844 144.8125 25.996094 C 145.671875 25.800781 146.679688 25.996094 147.875 26.808594 C 151.039062 28.867188 153.914062 33.414062 156.5 38.683594 C 160.332031 46.4375 163.683594 55.773438 166.800781 60.707031 C 167.46875 61.757812 168.09375 64.058594 168.859375 66.117188 C 171.398438 69.226562 173.890625 71.621094 176.1875 76.167969 C 176.1875 76.21875 176.234375 76.21875 176.234375 76.265625 L 176.234375 76.3125 C 176.425781 76.648438 176.621094 76.9375 176.8125 77.269531 C 177.335938 78.132812 177.769531 79.042969 178.152344 79.953125 C 178.246094 80.238281 178.390625 80.527344 178.488281 80.8125 C 178.535156 80.957031 178.582031 81.101562 178.632812 81.292969 C 178.679688 81.484375 178.726562 81.628906 178.824219 81.820312 C 179.0625 82.488281 179.253906 83.207031 179.492188 83.878906 C 180.210938 86.082031 182.847656 93.117188 183.183594 94.171875 C 183.375 94.648438 183.515625 95.175781 183.660156 95.75 C 183.660156 95.800781 183.710938 95.894531 183.710938 95.941406 C 183.710938 95.941406 183.710938 95.992188 183.710938 95.992188 C 183.949219 96.902344 184.1875 97.808594 184.425781 98.769531 C 184.8125 99.4375 185.144531 100.203125 185.433594 101.019531 C 185.480469 94.410156 184.953125 84.117188 184.285156 72.625 C 184.285156 72.578125 184.234375 72.484375 184.234375 72.433594 L 184.234375 72.195312 C 183.949219 66.59375 183.613281 60.753906 183.324219 54.914062 C 183.277344 54.433594 183.183594 54.050781 183.183594 53.761719 C 182.992188 51.992188 182.414062 50.21875 181.792969 48.496094 C 181.171875 46.726562 180.59375 44.953125 180.453125 43.183594 C 179.636719 33.414062 178.871094 22.59375 181.457031 12.828125 C 182.273438 9.667969 183.324219 7.5625 185.144531 6.460938 C 185.53125 6.746094 185.769531 6.605469 186.007812 6.507812 Z M 171.207031 309.429688 C 171.734375 322.257812 174.128906 335.136719 177.914062 346.964844 C 177.769531 343.898438 177.480469 340.835938 177.097656 337.773438 C 176.761719 334.996094 176.332031 332.167969 175.804688 329.441406 C 175.277344 326.472656 174.703125 323.550781 174.03125 320.632812 C 173.171875 316.847656 172.261719 313.164062 171.207031 309.429688 Z M 170.105469 295.066406 C 170.105469 295.496094 170.105469 295.925781 170.105469 296.359375 C 170.152344 296.023438 170.199219 295.640625 170.296875 295.304688 L 170.296875 295.257812 C 170.199219 295.160156 170.152344 295.113281 170.105469 295.066406 Z M 171.683594 286.542969 C 171.683594 286.542969 171.636719 286.589844 171.636719 286.589844 C 171.398438 287.308594 171.207031 288.027344 171.015625 288.695312 C 170.773438 289.796875 170.582031 290.804688 170.390625 291.714844 C 170.296875 292.097656 170.246094 292.527344 170.199219 292.957031 C 170.199219 293.101562 170.152344 293.199219 170.152344 293.339844 C 170.246094 293.339844 170.390625 293.390625 170.535156 293.4375 L 170.535156 293.390625 C 170.726562 292.480469 170.917969 291.570312 171.109375 290.660156 L 171.109375 290.613281 C 171.351562 289.320312 171.542969 287.929688 171.683594 286.542969 Z M 115.683594 262.988281 C 121.386719 266.339844 128.425781 269.164062 133.792969 270.792969 C 136.570312 271.605469 139.398438 272.035156 142.128906 272.851562 C 145.144531 273.757812 148.117188 275.339844 150.941406 276.917969 C 141.601562 270.265625 131.445312 267.199219 122.917969 264.949219 C 120.378906 264.230469 117.9375 263.609375 115.683594 262.988281 Z M 217.578125 266.625 C 217.289062 266.625 216.953125 266.578125 216.667969 266.578125 C 213.601562 266.433594 210.488281 266.148438 207.949219 266.578125 C 201.195312 267.726562 193.097656 268.683594 186.199219 271.414062 C 183.324219 272.5625 180.691406 273.949219 178.441406 275.816406 C 180.308594 274.859375 182.128906 274.09375 183.277344 273.566406 C 194.199219 269.019531 206.082031 268.253906 217.578125 266.625 Z M 151.421875 274.285156 C 142.03125 263.65625 130.824219 252.980469 120.140625 246.566406 C 117.21875 244.792969 113.144531 244.507812 109.792969 245.367188 C 106.917969 246.132812 104.476562 247.761719 103.851562 250.203125 C 103.851562 250.25 103.804688 250.347656 103.804688 250.394531 C 103.902344 251.160156 104.1875 251.925781 104.621094 252.742188 C 105.960938 255.277344 108.59375 257.769531 109.9375 258.917969 C 110.222656 259.15625 110.511719 259.394531 110.847656 259.683594 C 114.152344 260.976562 118.511719 261.980469 123.398438 263.273438 C 132.546875 265.714844 143.566406 269.066406 153.480469 276.632812 L 148.59375 273.28125 C 144.570312 270.074219 137.914062 263.898438 133.695312 261.742188 C 127.660156 258.628906 122.054688 255.519531 115.734375 252.644531 C 115.542969 252.550781 115.445312 252.308594 115.542969 252.070312 C 115.636719 251.878906 115.875 251.785156 116.117188 251.878906 C 122.441406 254.800781 128.042969 257.910156 134.082031 261.023438 C 138.390625 263.273438 145.242188 269.59375 149.3125 272.800781 C 149.890625 273.234375 150.65625 273.757812 151.421875 274.285156 Z M 239.375 254.082031 C 238.847656 253.21875 238.03125 252.597656 237.074219 252.117188 C 235.0625 251.160156 232.378906 250.921875 229.890625 250.96875 C 223.132812 251.066406 222.800781 251.019531 222.464844 251.113281 C 222.273438 251.160156 221.792969 251.160156 220.980469 251.449219 C 211.925781 254.273438 196.59375 261.070312 186.441406 267.824219 C 184.234375 269.308594 182.273438 270.792969 180.644531 272.179688 C 182.175781 271.269531 183.804688 270.503906 185.480469 269.832031 C 187.398438 269.066406 189.363281 268.445312 191.375 267.917969 C 197.363281 264.804688 203.0625 261.3125 209.722656 259.730469 C 214.941406 258.488281 220.355469 257.578125 225.480469 255.804688 C 225.722656 255.710938 225.960938 255.851562 226.007812 256.042969 C 226.105469 256.285156 225.960938 256.523438 225.769531 256.570312 C 220.644531 258.34375 215.230469 259.253906 209.960938 260.546875 C 204.453125 261.886719 199.566406 264.519531 194.632812 267.152344 C 199.085938 266.195312 203.589844 265.574219 207.613281 264.902344 C 210.296875 264.472656 213.503906 264.710938 216.714844 264.855469 C 219.734375 264.996094 222.703125 265.046875 225.097656 264.136719 C 227.683594 263.179688 230.75 262.222656 233.480469 260.640625 C 236.066406 259.15625 238.320312 257.195312 239.375 254.082031 C 239.375 254.128906 239.375 254.128906 239.375 254.082031 Z M 125.648438 248.144531 C 127.566406 249.484375 129.433594 250.875 131.207031 252.359375 C 132.882812 253.699219 134.511719 255.085938 136.09375 256.476562 C 137.625 257.816406 139.15625 259.253906 140.644531 260.640625 C 142.800781 262.699219 144.953125 264.855469 147.015625 267.054688 C 143.949219 262.890625 140.546875 258.964844 136.523438 255.566406 C 134.414062 253.84375 132.59375 251.640625 130.199219 250.25 C 128.8125 249.4375 127.230469 248.765625 125.648438 248.144531 Z M 240.09375 256.621094 C 239.039062 258.535156 237.554688 259.972656 235.828125 261.167969 C 236.402344 260.832031 236.929688 260.546875 237.457031 260.210938 C 238.367188 259.585938 239.132812 258.964844 239.613281 258.34375 C 239.902344 257.960938 240.042969 257.625 240.09375 257.289062 C 240.09375 257.050781 240.09375 256.859375 240.09375 256.621094 Z M 149.074219 251.402344 C 149.839844 252.644531 150.558594 253.9375 151.277344 255.230469 C 152.09375 256.667969 152.859375 258.105469 153.625 259.585938 L 153.671875 259.636719 C 153.480469 259.0625 153.289062 258.4375 153.097656 257.863281 C 152.476562 256.761719 151.851562 255.660156 151.183594 254.5625 C 150.464844 253.460938 149.792969 252.40625 149.074219 251.402344 Z M 104.09375 253.460938 C 104.378906 254.273438 104.8125 255.183594 105.433594 256.09375 C 106.054688 257.050781 107.015625 257.816406 108.261719 258.488281 C 106.917969 257.195312 105.195312 255.375 104.09375 253.460938 Z M 209.433594 244.074219 C 204.164062 246.085938 199.085938 248.433594 195.015625 252.261719 C 194.390625 252.886719 193.769531 253.460938 193.144531 254.082031 C 194.632812 253.027344 196.117188 252.117188 197.554688 251.402344 C 198.273438 251.066406 199.46875 250.441406 200.90625 249.628906 C 200.953125 249.535156 201.097656 249.4375 201.195312 249.34375 C 202.917969 248.335938 204.691406 247.378906 206.511719 246.421875 C 207.277344 245.992188 207.996094 245.511719 208.667969 245.082031 C 208.714844 244.792969 208.90625 244.554688 209.242188 244.457031 L 209.289062 244.457031 C 209.335938 244.363281 209.386719 244.21875 209.433594 244.074219 Z M 239.660156 253.027344 C 239.851562 251.976562 239.660156 251.160156 239.183594 250.632812 C 238.703125 250.058594 237.9375 249.773438 237.074219 249.535156 C 236.066406 249.292969 234.871094 249.246094 233.671875 249.292969 C 230.847656 249.390625 229.984375 249.484375 228.402344 249.675781 C 227.542969 249.773438 225.625 250.011719 224.285156 250.394531 C 226.488281 249.964844 227.445312 250.203125 229.890625 250.15625 C 232.523438 250.109375 235.351562 250.394531 237.457031 251.402344 C 238.320312 251.785156 239.085938 252.359375 239.660156 253.027344 Z M 214.511719 240.4375 C 215.230469 239.621094 215.949219 238.761719 216.714844 237.804688 C 220.882812 232.441406 225.144531 224.78125 228.164062 217.550781 C 230.175781 212.761719 231.613281 208.214844 232.09375 204.625 C 232.378906 202.421875 232.332031 200.601562 231.757812 199.40625 C 231.613281 199.167969 231.515625 198.976562 231.375 198.976562 C 231.183594 198.925781 230.992188 199.023438 230.75 199.167969 C 230.414062 199.359375 230.082031 199.644531 229.746094 200.027344 C 226.582031 203.1875 222.703125 211.328125 222.464844 211.902344 C 222.273438 212.285156 222.082031 212.667969 221.890625 213.050781 C 221.695312 213.433594 221.503906 213.769531 221.3125 214.152344 C 219.636719 217.886719 218.964844 221.957031 217.960938 225.929688 C 216.667969 231.148438 214.414062 236.367188 212.402344 241.203125 C 212.644531 241.105469 212.882812 241.058594 213.074219 240.964844 C 213.121094 240.867188 213.171875 240.820312 213.171875 240.773438 C 214.128906 238.953125 214.941406 236.703125 215.515625 235.746094 C 218.34375 231.195312 221.601562 225.882812 222.992188 220.664062 C 223.757812 217.839844 224.1875 214.199219 225.863281 211.757812 C 226.007812 211.566406 226.246094 211.519531 226.441406 211.664062 C 226.632812 211.804688 226.679688 212.046875 226.535156 212.238281 C 224.90625 214.582031 224.476562 218.171875 223.757812 220.855469 C 222.367188 226.121094 219.0625 231.53125 216.1875 236.128906 C 215.660156 236.988281 214.992188 238.855469 214.175781 240.484375 Z M 219.875 213.339844 C 218.390625 215.636719 216.953125 217.933594 215.613281 220.328125 C 213.410156 224.351562 212.882812 227.75 211.734375 232.25 C 211.542969 233.0625 211.207031 236.847656 211.0625 240.101562 C 212.980469 235.503906 215.085938 230.527344 216.332031 225.546875 C 217.335938 221.476562 218.054688 217.3125 219.78125 213.480469 C 219.828125 213.433594 219.875 213.386719 219.875 213.339844 Z M 181.457031 237.945312 C 181.410156 238.136719 181.363281 238.332031 181.3125 238.472656 L 181.265625 238.761719 C 181.3125 238.523438 181.363281 238.234375 181.457031 237.945312 Z M 265.53125 199.40625 C 265.242188 199.40625 264.90625 199.453125 264.570312 199.5 C 263.851562 199.691406 263.039062 200.21875 262.128906 200.9375 C 259.109375 203.285156 255.710938 207.59375 254.175781 209.027344 C 249.769531 213.148438 242.582031 221.621094 235.828125 228.46875 C 235.0625 229.234375 234.34375 230 233.578125 230.71875 C 232.285156 232.203125 230.894531 233.636719 229.457031 234.929688 C 229.984375 234.644531 230.511719 234.402344 231.039062 234.117188 C 232.953125 232.535156 234.964844 230.8125 235.875 230.046875 C 242.824219 224.253906 248.90625 217.742188 255.660156 211.855469 C 255.851562 211.710938 256.09375 211.710938 256.234375 211.902344 C 256.378906 212.09375 256.378906 212.332031 256.1875 212.476562 C 249.433594 218.367188 243.351562 224.925781 236.402344 230.667969 C 235.972656 231.054688 235.300781 231.578125 234.488281 232.25 C 243.398438 227.511719 251.972656 222.386719 259.445312 215.972656 C 260.835938 214.773438 264.285156 210.753906 266.535156 206.828125 C 267.015625 205.101562 267.351562 203.425781 267.300781 202.039062 C 267.300781 200.652344 266.824219 199.597656 265.53125 199.40625 Z M 233.722656 200.027344 C 234.007812 201.320312 234.007812 202.949219 233.769531 204.863281 C 233.242188 208.550781 231.804688 213.289062 229.746094 218.222656 C 227.683594 223.105469 225.097656 228.226562 222.320312 232.679688 C 227.253906 226.503906 231.421875 219.847656 233.386719 215.109375 C 234.296875 212.90625 235.542969 205.4375 234.296875 201.273438 C 234.054688 200.792969 233.914062 200.363281 233.722656 200.027344 Z M 184.953125 218.84375 C 184.285156 222.53125 183.613281 226.21875 182.941406 229.902344 L 182.894531 230.144531 C 183.039062 229.808594 183.230469 229.472656 183.421875 229.136719 L 183.421875 229.089844 C 183.757812 227.320312 184.042969 225.546875 184.332031 223.726562 C 184.523438 222.148438 184.761719 220.472656 184.953125 218.84375 Z M 264.378906 213.050781 C 263.757812 213.816406 263.132812 214.582031 262.464844 215.347656 C 262.175781 215.636719 261.9375 215.921875 261.648438 216.257812 C 261.410156 216.5 261.21875 216.738281 260.976562 216.929688 C 260.882812 217.023438 260.785156 217.121094 260.691406 217.214844 C 260.644531 217.265625 260.546875 217.359375 260.5 217.40625 C 260.402344 217.503906 260.261719 217.597656 260.164062 217.695312 C 259.78125 218.03125 259.398438 218.367188 259.015625 218.652344 C 257.769531 219.65625 256.476562 220.664062 255.183594 221.621094 C 252.976562 223.25 250.726562 224.78125 248.425781 226.21875 C 247.421875 226.839844 246.414062 227.511719 245.363281 228.132812 L 245.3125 228.179688 C 247.660156 227.078125 249.960938 225.929688 252.164062 224.734375 C 257.671875 221.667969 262.273438 218.269531 263.949219 214.296875 C 263.996094 214.007812 264.140625 213.578125 264.378906 213.050781 Z M 88.667969 191.265625 C 87.757812 191.027344 86.800781 190.835938 85.792969 190.691406 C 85.121094 190.597656 84.261719 190.453125 83.445312 190.453125 C 82.679688 190.453125 81.960938 190.546875 81.433594 190.929688 C 81.386719 190.980469 81.335938 191.027344 81.289062 191.074219 C 81.242188 191.125 81.242188 191.171875 81.242188 191.21875 C 80.859375 191.9375 80.90625 192.796875 81.097656 193.757812 C 81.386719 194.808594 81.914062 195.957031 82.632812 197.109375 C 84.835938 200.699219 88.570312 204.289062 90.296875 205.773438 C 93.3125 208.359375 97.335938 209.554688 100.546875 211.855469 C 109.121094 217.980469 118.800781 222.242188 127.757812 227.511719 L 127.710938 227.460938 C 127.421875 227.222656 127.085938 226.984375 126.75 226.742188 C 123.925781 224.636719 119.613281 222.242188 117.9375 221.238281 C 112.714844 218.03125 107.207031 213.53125 102.894531 209.222656 C 99.207031 205.535156 94.414062 203.140625 90.773438 199.359375 C 90.632812 199.214844 90.632812 198.925781 90.773438 198.785156 C 90.917969 198.640625 91.207031 198.640625 91.351562 198.785156 C 95.039062 202.566406 99.78125 204.960938 103.46875 208.644531 C 107.734375 212.90625 113.195312 217.359375 118.367188 220.519531 C 119.613281 221.285156 122.390625 222.867188 124.882812 224.445312 C 124.785156 224.300781 124.691406 224.207031 124.59375 224.109375 C 116.019531 213.816406 106.964844 203.667969 96.378906 195.191406 C 95.421875 194.425781 92.066406 192.511719 88.667969 191.265625 Z M 85.363281 203.378906 C 86.175781 204.480469 87.039062 205.484375 87.996094 206.394531 C 91.734375 209.84375 96.140625 213.386719 100.59375 215.875 C 102.414062 216.929688 104.523438 217.457031 106.296875 218.507812 C 111.039062 221.382812 115.683594 223.777344 120.859375 225.59375 C 120.90625 225.59375 120.953125 225.644531 121.003906 225.644531 C 113.769531 221.714844 106.296875 218.03125 99.492188 213.195312 C 96.234375 210.847656 92.164062 209.652344 89.097656 207.019531 C 88.234375 206.253906 86.847656 204.960938 85.363281 203.378906 Z M 107.445312 202.757812 C 114.007812 209.125 120.042969 216.019531 125.890625 223.007812 C 126.128906 223.296875 126.367188 223.582031 126.703125 223.917969 C 124.355469 220.375 121.816406 216.738281 119.085938 213.722656 C 116.546875 210.945312 114.152344 207.496094 111.085938 205.246094 C 109.839844 204.386719 108.644531 203.570312 107.445312 202.757812 Z M 261.890625 200.074219 C 258.054688 201.320312 254.847656 204.242188 251.972656 207.546875 C 248.476562 211.566406 245.503906 216.304688 242.535156 219.707031 C 241.578125 220.808594 240.621094 222.003906 239.660156 223.25 C 245.027344 217.550781 250.199219 211.613281 253.648438 208.359375 C 255.183594 206.921875 258.632812 202.613281 261.695312 200.21875 C 261.746094 200.21875 261.792969 200.171875 261.890625 200.074219 Z M 153.003906 187.054688 C 152.8125 188.824219 152.570312 190.546875 152.476562 192.128906 C 152.042969 197.777344 150.605469 202.996094 149.503906 208.503906 C 149.074219 210.511719 148.785156 212.332031 148.59375 213.960938 C 149.171875 211.328125 149.839844 208.742188 150.511719 206.0625 C 152.1875 199.167969 154.632812 194.714844 153.050781 187.148438 C 153.003906 187.148438 153.003906 187.101562 153.003906 187.054688 Z M 148.066406 174.605469 C 148.019531 174.605469 148.019531 174.652344 147.972656 174.652344 C 147.207031 175.085938 146.535156 176.089844 146.296875 176.664062 C 144.570312 180.636719 143.757812 184.660156 144.09375 189.015625 C 144.570312 195.433594 146.726562 201.847656 147.636719 208.261719 C 147.683594 206.96875 147.734375 205.726562 147.734375 205.4375 C 147.925781 198.496094 147.015625 191.457031 146.871094 184.421875 C 146.871094 184.179688 147.0625 183.988281 147.300781 183.988281 C 147.542969 183.988281 147.734375 184.179688 147.734375 184.421875 C 147.875 191.21875 148.738281 198.113281 148.59375 204.816406 C 149.503906 200.554688 150.511719 196.4375 150.847656 191.984375 C 151.039062 189.207031 151.660156 185.855469 151.613281 182.648438 C 151.613281 181.210938 151.421875 179.777344 151.039062 178.4375 C 150.847656 177.957031 150.605469 177.476562 150.367188 176.953125 C 150.03125 176.328125 149.695312 175.660156 149.265625 175.179688 C 148.980469 174.894531 148.691406 174.652344 148.308594 174.558594 C 148.210938 174.652344 148.164062 174.605469 148.066406 174.605469 Z M 143.421875 179.632812 C 143.183594 180.160156 142.941406 180.636719 142.703125 181.070312 C 141.648438 183.078125 141.890625 185.617188 141.839844 187.867188 C 141.746094 193.375 143.132812 200.171875 145.386719 205.246094 C 144.378906 199.882812 142.800781 194.523438 142.367188 189.160156 C 142.128906 185.855469 142.511719 182.695312 143.421875 179.632812 Z M 267.542969 199.691406 C 267.78125 200.074219 267.972656 200.507812 268.066406 201.035156 C 268.210938 201.800781 268.210938 202.757812 268.117188 203.761719 C 268.210938 203.570312 268.261719 203.332031 268.308594 203.140625 C 268.691406 201.894531 268.785156 200.792969 268.164062 200.125 C 268.019531 199.933594 267.78125 199.789062 267.542969 199.691406 Z M 131.0625 201.128906 C 127.710938 195.382812 124.453125 189.496094 122.007812 183.269531 C 120.042969 178.386719 118.273438 172.785156 114.199219 169.242188 C 113.625 168.765625 112.90625 167.949219 112.140625 167.421875 C 111.710938 167.136719 111.324219 166.898438 110.941406 167.230469 C 110.800781 167.375 110.800781 167.664062 110.75 168.046875 C 110.75 168.621094 110.800781 169.339844 110.941406 170.105469 C 111.660156 173.984375 113.914062 179.585938 114.582031 180.78125 C 117.554688 186.289062 122.441406 191.9375 127.515625 197.539062 C 123.109375 191.363281 118.800781 185.519531 115.398438 178.195312 C 115.300781 178.003906 115.398438 177.71875 115.589844 177.621094 C 115.78125 177.527344 116.066406 177.621094 116.164062 177.8125 C 120.285156 186.765625 125.695312 193.421875 131.0625 201.128906 Z M 111.039062 176.519531 C 111.183594 177.046875 111.324219 177.527344 111.46875 178.101562 C 113.722656 187.101562 120.953125 194.761719 128.332031 200.890625 C 122.488281 194.472656 116.546875 187.964844 113.097656 181.644531 C 112.761719 180.925781 111.851562 178.914062 111.039062 176.519531 Z M 116.546875 169.242188 C 119.996094 172.929688 121.722656 178.101562 123.542969 182.695312 C 125.839844 188.488281 128.8125 193.996094 131.925781 199.359375 C 128.667969 190.308594 125.074219 180.878906 119.902344 172.976562 C 119.039062 171.542969 117.890625 170.25 116.546875 169.242188 Z M 177.386719 179.058594 C 177.914062 180.109375 178.390625 181.164062 178.871094 182.265625 C 179.683594 184.085938 183.710938 191.171875 185.769531 196.292969 C 185.578125 195.671875 185.386719 195.050781 185.097656 194.332031 C 183.324219 189.398438 179.828125 183.03125 177.386719 179.058594 Z M 210.824219 194.1875 C 210.632812 194.378906 210.488281 194.570312 210.296875 194.808594 C 210.488281 194.664062 210.726562 194.472656 210.917969 194.332031 C 210.917969 194.28125 210.871094 194.234375 210.824219 194.1875 Z M 277.554688 167.28125 C 276.644531 165.84375 274.871094 164.742188 272.714844 164.359375 C 269.457031 163.738281 264.859375 164.550781 261.695312 165.222656 C 257.289062 166.132812 253.3125 167.566406 249.480469 169.242188 C 236.066406 176.328125 221.839844 185.519531 215.46875 190.738281 C 214.605469 191.457031 213.9375 192.03125 213.363281 192.605469 C 213.9375 192.273438 214.464844 191.9375 215.039062 191.648438 C 219.445312 188.96875 223.949219 186.957031 228.59375 185.328125 C 238.847656 179.726562 249.289062 174.699219 261.457031 170.488281 C 261.695312 170.390625 261.9375 170.535156 261.984375 170.726562 C 262.082031 170.964844 261.9375 171.207031 261.746094 171.253906 C 251.207031 174.941406 241.960938 179.152344 233.050781 183.894531 C 243.828125 180.636719 255.230469 179.011719 267.15625 176.042969 C 270.414062 175.226562 275.015625 171.636719 277.3125 167.710938 C 277.410156 167.566406 277.457031 167.421875 277.554688 167.28125 Z M 264.761719 178.292969 C 251.207031 181.5 238.273438 183.128906 226.296875 187.914062 C 227.351562 187.722656 228.453125 187.582031 229.554688 187.4375 C 234.199219 186.863281 239.085938 186.527344 244.59375 185.089844 C 251.492188 183.269531 258.296875 181.019531 264.761719 178.292969 Z M 278.222656 169.386719 C 277.027344 171.15625 275.445312 172.832031 273.769531 174.175781 C 274.152344 173.984375 274.535156 173.792969 274.917969 173.601562 C 277.265625 172.402344 278.273438 170.871094 278.222656 169.386719 Z M 194.007812 142.816406 C 194.007812 142.863281 193.960938 142.910156 193.960938 142.957031 C 193.914062 143.007812 193.914062 143.054688 193.863281 143.148438 L 193.863281 143.199219 C 193.863281 145.449219 193.816406 147.746094 193.769531 149.996094 C 193.671875 152.101562 193.578125 154.210938 193.433594 156.316406 C 193.289062 158.375 193.144531 160.386719 192.953125 162.445312 C 192.714844 165.507812 192.378906 168.523438 192.042969 171.542969 L 192.042969 171.636719 C 192.09375 171.542969 192.09375 171.445312 192.09375 171.351562 C 193.335938 166.324219 194.632812 161.246094 194.535156 156.746094 C 194.441406 152.101562 194.296875 147.457031 194.007812 142.816406 Z M 168.714844 132.761719 C 168.476562 131.660156 168.1875 130.605469 167.851562 129.550781 C 167.375 127.972656 165.890625 124.09375 163.925781 121.941406 C 162.773438 120.648438 161.433594 119.929688 159.996094 121.078125 C 159.804688 121.222656 159.710938 121.507812 159.566406 121.84375 C 159.375 122.46875 159.277344 123.375 159.277344 124.382812 C 159.230469 128.402344 160.378906 134.484375 160.761719 136.015625 C 161.722656 139.941406 163.0625 143.820312 163.734375 147.792969 C 163.828125 148.511719 164.019531 149.277344 164.210938 150.042969 C 165.9375 154.019531 167.851562 158.039062 169.625 161.390625 C 170.871094 163.738281 172.066406 165.84375 173.121094 167.375 C 172.980469 166.800781 172.785156 166.179688 172.644531 165.605469 C 171.589844 163.496094 170.441406 161.488281 169.960938 160.433594 C 166.222656 152.390625 163.636719 139.703125 162.632812 130.84375 C 162.582031 130.605469 162.773438 130.414062 163.015625 130.367188 C 163.253906 130.320312 163.445312 130.511719 163.492188 130.75 C 164.453125 139.511719 167.085938 152.101562 170.773438 160.050781 C 171.015625 160.578125 171.398438 161.296875 171.828125 162.15625 C 169.722656 152.917969 168.8125 144.15625 168.714844 132.761719 Z M 277.9375 166.464844 C 278.894531 164.359375 279.132812 162.207031 277.890625 160.433594 C 277.648438 160.050781 277.21875 159.8125 276.738281 159.667969 C 276.117188 159.476562 275.300781 159.429688 274.390625 159.523438 C 271.324219 159.761719 266.964844 161.152344 261.9375 163.304688 C 260.210938 164.023438 258.390625 164.839844 256.570312 165.75 C 258.199219 165.269531 259.828125 164.839844 261.554688 164.457031 C 264.761719 163.785156 269.503906 162.972656 272.90625 163.59375 C 275.0625 163.929688 276.882812 165.078125 277.9375 166.464844 Z M 160.523438 155.3125 C 163.636719 158.613281 166.414062 161.773438 169.050781 165.269531 C 167.46875 162.78125 165.746094 160.433594 163.542969 158.183594 C 162.535156 157.179688 161.53125 156.21875 160.523438 155.3125 Z M 170.871094 144.394531 C 171.398438 151.335938 172.402344 157.5625 174.082031 164.121094 C 172.546875 157.65625 171.78125 151 170.871094 144.394531 Z M 242.726562 122.035156 C 242.632812 121.175781 242.488281 120.3125 242.246094 119.449219 C 241.386719 115.621094 239.566406 112.222656 235.636719 109.683594 C 235.207031 109.394531 234.582031 109.445312 233.960938 109.585938 C 232.140625 111.121094 230.75 113.324219 229.695312 115.765625 C 229.410156 116.480469 229.121094 117.199219 228.882812 117.964844 C 228.691406 120.214844 228.644531 122.273438 228.785156 122.992188 C 229.554688 126.585938 229.265625 130.84375 229.601562 134.578125 C 230.082031 140.039062 231.421875 145.160156 231.710938 150.570312 C 231.804688 152.535156 231.324219 155.980469 231.132812 159.046875 C 231.132812 159.1875 231.132812 159.378906 231.085938 159.523438 C 231.183594 159.859375 231.230469 160.242188 231.324219 160.578125 C 231.949219 157.894531 232.667969 155.214844 232.859375 152.820312 C 233.671875 142.863281 234.488281 133.09375 235.78125 123.136719 C 235.828125 122.898438 236.019531 122.753906 236.261719 122.753906 C 236.5 122.800781 236.644531 122.992188 236.644531 123.234375 C 235.351562 133.191406 234.582031 142.910156 233.722656 152.867188 C 233.53125 155.453125 232.714844 158.328125 232.042969 161.199219 C 234.296875 155.3125 236.164062 149.375 238.082031 143.292969 C 239.566406 138.503906 241.480469 133.429688 242.007812 128.402344 C 242.199219 126.394531 242.535156 124.238281 242.726562 122.035156 Z M 243.207031 131.753906 C 242.390625 135.824219 240.90625 139.894531 239.710938 143.773438 C 238.273438 148.417969 236.882812 152.917969 235.253906 157.371094 C 235.828125 156.410156 236.402344 155.503906 236.835938 154.640625 C 239.660156 149.085938 240.285156 143.484375 242.390625 138.9375 C 243.207031 137.164062 243.207031 133.910156 243.15625 131.996094 C 243.207031 131.898438 243.207031 131.804688 243.207031 131.753906 Z M 227.925781 121.75 C 227.300781 124.71875 227.0625 127.683594 227.0625 130.128906 C 227.0625 137.644531 227.589844 144.441406 229.027344 151.671875 C 229.3125 153.058594 229.9375 154.929688 230.511719 157.035156 C 230.703125 154.59375 230.992188 152.101562 230.941406 150.617188 C 230.65625 145.207031 229.3125 140.132812 228.835938 134.675781 C 228.546875 130.941406 228.785156 126.726562 228.019531 123.183594 C 227.925781 122.851562 227.925781 122.371094 227.925781 121.75 Z M 270.847656 142.382812 C 267.636719 144.539062 264.667969 146.597656 262.175781 148.417969 C 263.183594 147.890625 264.1875 147.363281 265.195312 146.882812 C 265.671875 146.550781 266.152344 146.167969 266.632812 145.832031 C 268.066406 144.683594 269.457031 143.53125 270.847656 142.382812 Z M 306.773438 134.820312 C 302.75 136.113281 298.390625 136.832031 294.65625 137.738281 C 286.414062 139.796875 277.121094 143.007812 268.117188 147.265625 C 275.015625 144.777344 282.105469 142.910156 288.09375 141.28125 C 291.542969 140.324219 295.710938 139.558594 299.589844 138.265625 C 302.222656 137.40625 304.714844 136.304688 306.773438 134.820312 Z M 168.425781 128.453125 C 167.996094 126.394531 167.085938 124.144531 165.792969 122.324219 C 164.59375 120.601562 163.109375 119.210938 161.335938 118.78125 C 159.566406 118.347656 158.800781 119.738281 158.320312 121.507812 C 157.457031 124.859375 157.839844 129.746094 157.839844 131.132812 C 157.839844 132.328125 158.414062 134.53125 159.324219 137.308594 C 160.1875 139.894531 161.335938 142.957031 162.632812 146.117188 C 161.914062 142.765625 160.8125 139.464844 159.996094 136.113281 C 159.613281 134.578125 158.464844 128.402344 158.511719 124.285156 C 158.511719 123.183594 158.605469 122.226562 158.800781 121.558594 C 158.941406 121.03125 159.183594 120.601562 159.46875 120.359375 C 160.1875 119.785156 160.953125 119.546875 161.625 119.59375 C 162.632812 119.691406 163.636719 120.3125 164.5 121.316406 C 166.320312 123.28125 167.757812 126.535156 168.425781 128.453125 Z M 114.917969 130.894531 C 114.441406 130.796875 113.960938 130.75 113.480469 130.703125 C 109.890625 130.175781 107.300781 131.707031 105.960938 133.957031 C 103.996094 137.355469 104.90625 142.289062 109.695312 144.203125 C 114.105469 145.976562 117.984375 145.257812 121.578125 143.867188 C 122.441406 143.53125 123.253906 143.148438 124.066406 142.765625 C 123.925781 142.765625 123.78125 142.816406 123.636719 142.816406 C 121.816406 143.054688 120.1875 143.484375 118.558594 143.722656 C 116.019531 144.109375 113.578125 144.109375 110.847656 142.289062 C 108.929688 141.042969 107.636719 139.847656 106.871094 138.746094 C 106.054688 137.597656 105.769531 136.496094 105.960938 135.539062 C 106.199219 134.386719 107.015625 133.429688 108.355469 132.664062 C 110.03125 131.804688 112.285156 131.179688 114.917969 130.894531 Z M 311.230469 121.460938 C 308.976562 121.890625 306.246094 122.800781 303.277344 124.046875 C 295.515625 127.253906 285.890625 132.761719 277.171875 138.265625 C 275.253906 139.847656 273.335938 141.425781 271.421875 143.007812 C 274.152344 141.332031 276.976562 139.796875 279.710938 138.363281 C 288.8125 133.671875 299.398438 131.371094 308.5 126.394531 C 308.691406 126.296875 308.976562 126.34375 309.074219 126.535156 C 309.171875 126.726562 309.121094 127.015625 308.929688 127.109375 C 299.828125 132.089844 289.242188 134.386719 280.140625 139.082031 C 277.3125 140.566406 274.34375 142.191406 271.515625 143.914062 C 279.324219 140.515625 287.230469 137.882812 294.320312 136.113281 C 299.207031 134.914062 305.242188 134.101562 309.984375 131.753906 C 311.421875 129.984375 312.285156 128.355469 312.761719 126.917969 C 313.242188 125.386719 313.195312 124.09375 312.761719 123.089844 C 312.378906 122.417969 311.902344 121.890625 311.230469 121.460938 Z M 129.097656 134.101562 C 124.453125 132.664062 119.515625 131.515625 116.402344 131.660156 C 113.335938 131.804688 110.605469 132.425781 108.882812 133.480469 C 107.78125 134.101562 107.0625 134.867188 106.871094 135.824219 C 106.726562 136.589844 106.964844 137.453125 107.636719 138.363281 C 108.355469 139.367188 109.601562 140.46875 111.421875 141.664062 C 113.960938 143.292969 116.210938 143.339844 118.511719 142.957031 C 120.140625 142.71875 121.816406 142.289062 123.589844 142.046875 C 124.738281 141.90625 125.839844 141.714844 126.847656 141.523438 C 127.566406 141.1875 128.285156 140.851562 128.953125 140.515625 C 131.78125 139.222656 134.605469 138.21875 137.625 138.21875 C 137.480469 138.121094 137.289062 138.027344 137.097656 137.882812 C 136.234375 137.738281 135.375 137.691406 134.703125 137.644531 C 133.3125 137.597656 131.828125 137.261719 130.34375 137.070312 C 128.953125 136.878906 127.566406 136.734375 126.222656 137.070312 C 124.117188 137.597656 119.757812 138.457031 116.453125 138.648438 C 114.964844 138.699219 113.671875 138.648438 112.90625 138.3125 C 112.714844 138.21875 112.570312 137.980469 112.667969 137.789062 C 112.761719 137.546875 113.003906 137.453125 113.195312 137.546875 C 113.914062 137.835938 115.109375 137.882812 116.453125 137.789062 C 119.710938 137.644531 124.019531 136.78125 126.082031 136.253906 C 127.515625 135.871094 129.050781 136.015625 130.535156 136.207031 C 131.972656 136.398438 133.410156 136.734375 134.800781 136.78125 C 134.992188 136.78125 135.183594 136.78125 135.375 136.828125 C 133.363281 135.679688 131.253906 134.820312 129.097656 134.101562 Z M 287.566406 105.277344 C 287.375 104.800781 287.132812 104.371094 286.847656 103.9375 C 285.890625 102.453125 284.5 101.542969 282.582031 101.925781 C 280.042969 102.453125 278.03125 104.035156 276.261719 105.902344 C 274.441406 107.816406 272.90625 110.066406 271.324219 111.933594 C 270.894531 112.460938 270.464844 112.988281 270.03125 113.515625 C 268.691406 115.957031 267.253906 118.347656 266.199219 120.792969 C 263.851562 126.296875 262.222656 130.652344 261.074219 135.921875 C 260.882812 136.6875 260.164062 139.847656 260.019531 140.613281 C 261.027344 139.414062 262.894531 136.78125 263.710938 135.585938 C 269.171875 127.492188 272.90625 118.539062 278.941406 110.785156 C 279.613281 109.921875 280.285156 109.109375 280.953125 108.296875 C 281.097656 108.105469 281.386719 108.105469 281.53125 108.246094 C 281.722656 108.390625 281.722656 108.679688 281.578125 108.820312 C 274.34375 117.105469 270.414062 127.0625 264.378906 136.015625 C 263.277344 137.644531 261.839844 139.273438 260.453125 140.898438 C 260.402344 141.042969 260.402344 141.140625 260.355469 141.28125 C 262.800781 139.128906 265.386719 136.972656 268.019531 134.769531 C 276.164062 127.925781 284.308594 120.503906 287.132812 109.300781 C 287.566406 107.863281 287.660156 106.476562 287.566406 105.277344 Z M 288.621094 110.402344 C 285.601562 121.558594 277.457031 129.121094 269.21875 136.0625 C 271.039062 134.867188 272.859375 133.621094 274.726562 132.136719 C 277.695312 129.792969 281.863281 125.148438 284.835938 120.503906 C 286.800781 117.441406 288.285156 114.375 288.570312 111.886719 C 288.621094 111.503906 288.667969 110.976562 288.621094 110.402344 Z M 132.691406 104.128906 C 131.734375 103.078125 130.582031 102.359375 129.242188 102.453125 C 129.097656 103.027344 129.050781 103.746094 129.050781 104.511719 C 129.144531 107.335938 130.152344 110.832031 130.390625 111.789062 C 132.261719 119.308594 137.433594 127.253906 141.792969 133.8125 C 141.363281 132.378906 141.074219 130.988281 140.785156 129.503906 C 140.644531 128.644531 140.5 127.78125 140.355469 126.917969 C 140.261719 126.726562 140.164062 126.585938 140.066406 126.394531 C 136.859375 120.359375 132.402344 113.992188 131.0625 108.820312 C 131.015625 108.582031 131.15625 108.390625 131.351562 108.296875 C 131.589844 108.246094 131.78125 108.390625 131.875 108.582031 C 133.074219 113.226562 136.859375 118.875 139.925781 124.382812 C 139.351562 120.839844 138.535156 117.105469 136.621094 112.890625 C 136.1875 111.839844 134.558594 107.242188 132.691406 104.128906 Z M 141.3125 122.417969 C 141.746094 124.765625 142.082031 127.015625 142.464844 129.167969 C 142.464844 129.21875 142.464844 129.265625 142.511719 129.3125 C 142.992188 130.414062 143.421875 131.515625 143.757812 132.570312 C 143.757812 132.519531 143.757812 132.519531 143.757812 132.472656 C 142.992188 129.121094 142.273438 125.722656 141.3125 122.417969 Z M 311.710938 130.75 C 311.757812 130.703125 311.851562 130.652344 311.902344 130.605469 C 313.335938 129.648438 315.398438 127.972656 316.453125 126.011719 C 317.074219 124.859375 317.3125 123.664062 316.738281 122.46875 C 316.261719 121.558594 315.253906 121.175781 313.863281 121.175781 C 313.433594 121.175781 312.90625 121.175781 312.425781 121.269531 C 312.859375 121.699219 313.242188 122.179688 313.480469 122.753906 C 314.34375 124.621094 313.960938 127.398438 311.710938 130.75 Z M 308.019531 120.550781 C 305.671875 120.40625 302.800781 121.125 299.636719 122.707031 C 295.660156 124.765625 291.925781 127.109375 288.332031 129.648438 C 293.363281 126.824219 298.296875 124.285156 302.65625 122.46875 C 304.570312 121.699219 306.34375 121.03125 308.019531 120.550781 Z M 188.164062 114.375 C 189.3125 118.347656 190.511719 122.273438 191.851562 126.25 C 192.09375 126.917969 192.285156 127.636719 192.476562 128.355469 C 192.042969 125.625 191.46875 122.898438 190.800781 120.167969 C 190.320312 118.109375 189.3125 116.386719 188.355469 114.613281 C 188.261719 114.566406 188.210938 114.472656 188.164062 114.375 Z M 127.421875 103.078125 C 126.847656 103.554688 126.558594 104.273438 126.464844 105.085938 C 126.222656 106.90625 126.75 109.15625 127.132812 110.496094 C 128.234375 114.519531 130.632812 119.019531 133.265625 123.183594 C 131.300781 119.546875 129.671875 115.8125 128.761719 112.222656 C 128.476562 110.976562 127.085938 106.140625 127.421875 103.078125 Z M 242.871094 118.445312 C 242.871094 116.097656 242.535156 113.800781 241.625 111.742188 C 241.097656 110.546875 239.613281 109.203125 238.03125 108.628906 C 237.074219 108.296875 236.117188 108.152344 235.351562 108.628906 C 235.300781 108.628906 235.300781 108.679688 235.253906 108.679688 C 235.542969 108.726562 235.828125 108.820312 236.066406 108.964844 C 239.949219 111.457031 241.863281 114.757812 242.871094 118.445312 Z M 193.914062 114.996094 C 193.769531 115.429688 193.625 115.90625 193.53125 116.386719 C 193.53125 116.53125 193.480469 116.722656 193.480469 116.863281 C 193.480469 116.960938 193.480469 117.058594 193.480469 117.152344 C 193.625 116.433594 193.769531 115.714844 193.914062 114.996094 Z M 106.34375 83.207031 C 106.824219 84.164062 107.15625 84.929688 107.300781 85.363281 C 111.660156 96.949219 112.476562 104.417969 117.457031 113.417969 C 116.738281 111.3125 116.261719 109.011719 115.828125 106.714844 C 115.109375 102.835938 114.632812 98.863281 113.335938 95.273438 C 111.660156 90.722656 109.3125 86.796875 106.34375 83.207031 Z M 219.445312 55.390625 C 219.0625 55.628906 218.632812 55.917969 218.199219 56.300781 C 213.21875 60.320312 206.511719 70.949219 205.410156 73.34375 C 199.996094 85.21875 195.925781 99.152344 194.054688 112.171875 C 194.726562 110.402344 195.445312 108.628906 196.117188 106.8125 C 196.644531 105.085938 197.265625 103.316406 197.890625 101.59375 C 202.199219 88.664062 207.660156 77.652344 215.710938 66.257812 C 215.851562 66.066406 216.09375 66.019531 216.285156 66.164062 C 216.476562 66.308594 216.523438 66.546875 216.378906 66.738281 C 210.964844 74.398438 206.75 81.867188 203.253906 89.863281 C 205.984375 85.074219 209.050781 81.246094 212.261719 79.328125 C 215.757812 77.222656 219.636719 71.332031 221.554688 65.589844 C 222.65625 62.285156 223.085938 59.03125 222.320312 56.585938 C 222.222656 56.539062 222.128906 56.492188 222.03125 56.445312 C 221.503906 56.203125 220.929688 56.011719 220.59375 55.773438 C 220.210938 55.582031 219.828125 55.4375 219.445312 55.390625 Z M 101.21875 93.789062 C 103.230469 98.71875 105.863281 103.746094 109.074219 107.816406 C 109.984375 108.964844 111.039062 110.066406 112.140625 111.167969 C 111.230469 109.828125 110.511719 108.773438 110.273438 108.34375 C 107.207031 103.269531 103.851562 98.816406 101.21875 93.789062 Z M 286.75 102.503906 C 285.890625 100.875 284.5 99.867188 282.824219 99.535156 C 279.46875 98.816406 276.453125 101.351562 273.386719 105.804688 C 272.378906 107.289062 271.183594 110.210938 270.605469 111.40625 C 271.710938 110.019531 274.34375 106.761719 275.636719 105.421875 C 277.503906 103.410156 279.710938 101.734375 282.390625 101.210938 C 284.261719 100.777344 285.695312 101.351562 286.75 102.503906 Z M 100.882812 77.84375 C 100.453125 77.605469 100.066406 77.367188 99.683594 77.222656 C 99.253906 77.078125 98.871094 76.984375 98.632812 77.320312 C 98.296875 77.84375 98.199219 78.515625 98.199219 79.234375 C 98.199219 79.472656 98.246094 79.710938 98.246094 80 C 98.582031 82.730469 99.78125 86.03125 100.164062 87.179688 C 102.75 94.984375 107.542969 100.636719 111.660156 107.480469 C 111.804688 107.71875 112.042969 108.105469 112.425781 108.628906 C 107.875 99.867188 104.09375 90.339844 98.632812 81.960938 C 98.488281 81.769531 98.582031 81.53125 98.773438 81.386719 C 98.964844 81.246094 99.207031 81.339844 99.351562 81.53125 C 104.714844 89.816406 108.5 99.246094 113.003906 107.914062 C 110.367188 101.351562 109.074219 94.839844 105.722656 85.9375 C 105.289062 84.738281 103.132812 80.144531 100.882812 77.84375 Z M 214.847656 79.472656 C 214.273438 80 213.695312 80.429688 213.121094 80.765625 C 209.050781 83.207031 205.3125 88.953125 202.152344 95.65625 C 200.476562 99.292969 198.992188 103.21875 197.746094 107.050781 C 199.421875 103.027344 200.476562 98.625 202.917969 94.9375 C 206.511719 89.480469 210.679688 84.5 214.847656 79.472656 Z M 130.871094 101.832031 C 130.824219 101.785156 130.773438 101.734375 130.726562 101.734375 C 130.488281 101.542969 130.199219 101.449219 129.960938 101.496094 C 129.863281 101.542969 129.769531 101.542969 129.722656 101.640625 C 130.105469 101.59375 130.488281 101.6875 130.871094 101.832031 Z M 215.277344 56.636719 C 214.992188 56.777344 214.75 56.96875 214.464844 57.164062 C 210.871094 59.652344 207.230469 63.863281 205.695312 65.683594 C 199.324219 73.152344 195.492188 89.238281 194.390625 101.066406 C 196.59375 91.25 199.902344 81.339844 203.875 72.53125 C 204.882812 70.425781 210.390625 61.566406 215.277344 56.636719 Z M 178.679688 90.964844 C 178.296875 90.582031 177.914062 90.246094 177.480469 89.910156 C 177.386719 89.863281 177.289062 89.816406 177.242188 89.765625 C 171.636719 86.941406 164.453125 88.617188 157.457031 89.863281 C 154.582031 90.390625 151.710938 90.820312 148.980469 90.914062 C 151.085938 91.394531 153.480469 91.394531 156.066406 91.15625 C 160.90625 90.722656 166.222656 89.527344 170.824219 89.429688 C 173.839844 89.335938 176.523438 89.71875 178.679688 90.964844 Z M 153.671875 77.941406 C 151.851562 77.558594 150.03125 77.269531 148.355469 77.078125 C 146.105469 76.839844 143.710938 76.742188 141.601562 77.367188 C 139.589844 77.988281 137.960938 79.234375 137.195312 81.578125 C 136.761719 82.921875 136.667969 83.972656 136.859375 84.882812 C 137.242188 85.457031 137.722656 85.984375 138.296875 86.414062 C 143.375 90.484375 150.222656 89.429688 157.21875 88.1875 C 162.824219 87.179688 168.523438 86.03125 173.503906 86.796875 C 173.074219 86.511719 172.644531 86.222656 172.210938 85.984375 C 170.964844 85.503906 169.722656 85.074219 168.523438 84.5 C 166.75 83.636719 164.066406 83.398438 161.242188 83.351562 C 156.882812 83.304688 152.042969 83.878906 149.21875 83.925781 C 146.824219 83.972656 144.332031 82.679688 142.03125 82.105469 C 141.792969 82.058594 141.648438 81.820312 141.746094 81.578125 C 141.792969 81.339844 142.03125 81.246094 142.273438 81.292969 C 144.476562 81.867188 146.917969 83.113281 149.21875 83.113281 C 152.09375 83.0625 156.882812 82.488281 161.289062 82.539062 C 163.351562 82.539062 165.3125 82.679688 166.941406 83.113281 C 162.488281 81.003906 158.128906 79.1875 153.671875 77.941406 Z M 143.46875 76.167969 C 142.320312 76.074219 141.121094 76.027344 139.972656 76.027344 C 135.566406 76.027344 134.558594 79.953125 135.949219 83.304688 C 135.996094 82.730469 136.140625 82.058594 136.378906 81.339844 C 137.242188 78.660156 139.109375 77.269531 141.363281 76.601562 C 142.03125 76.359375 142.75 76.21875 143.46875 76.167969 Z M 223.515625 64.871094 C 223.421875 65.253906 223.277344 65.683594 223.132812 66.066406 C 222.320312 68.605469 221.121094 71.140625 219.734375 73.390625 C 219.875 73.25 219.972656 73.058594 220.117188 72.914062 C 221.839844 70.664062 223.039062 67.789062 223.515625 64.871094 Z M 159.566406 54.671875 C 157.027344 49.882812 154.582031 45.050781 151.902344 40.40625 C 150.75 38.441406 149.363281 34.898438 147.492188 32.171875 C 146.34375 30.542969 145.097656 29.152344 143.515625 28.769531 C 143.421875 28.769531 143.375 28.722656 143.277344 28.769531 C 143.085938 29.105469 142.894531 29.535156 142.75 29.96875 C 142.65625 30.207031 142.558594 30.496094 142.511719 30.734375 C 142.320312 33.894531 143.566406 38.824219 143.851562 39.734375 C 146.152344 47.394531 151.660156 52.660156 157.265625 57.6875 C 157.410156 57.738281 157.503906 57.785156 157.601562 57.878906 C 157.9375 58.261719 158.320312 58.597656 158.703125 58.980469 C 159.996094 60.128906 161.289062 61.28125 162.488281 62.429688 C 162.535156 62.476562 162.582031 62.523438 162.582031 62.523438 C 163.351562 63.195312 164.117188 63.863281 164.882812 64.582031 C 164.546875 63.863281 164.210938 63.097656 163.875 62.378906 C 163.0625 61.039062 162.296875 59.605469 161.480469 58.214844 C 158.941406 54.816406 154.34375 50.699219 151.039062 46.4375 C 148.5 43.230469 146.726562 39.972656 146.824219 36.957031 C 146.824219 36.71875 147.015625 36.527344 147.253906 36.574219 C 147.492188 36.574219 147.683594 36.765625 147.636719 37.003906 C 147.492188 39.878906 149.265625 42.894531 151.660156 45.910156 C 154.105469 48.976562 157.121094 51.992188 159.566406 54.671875 Z M 167.230469 64.488281 C 166.800781 63.289062 166.464844 62.238281 166.03125 61.613281 C 162.917969 56.636719 159.566406 47.300781 155.734375 39.496094 C 153.195312 34.371094 150.464844 29.96875 147.398438 27.957031 C 146.441406 27.335938 145.625 27.144531 144.953125 27.285156 C 144.859375 27.285156 144.761719 27.335938 144.667969 27.382812 C 146.246094 28.050781 147.636719 29.441406 148.835938 31.210938 C 150.75 33.988281 152.1875 37.53125 153.335938 39.542969 C 157.554688 46.917969 161.242188 54.816406 165.601562 62.046875 C 166.175781 62.957031 166.703125 63.769531 167.230469 64.488281 Z M 141.9375 38.96875 C 142.03125 40.308594 142.273438 41.457031 142.511719 42.175781 C 145.480469 50.316406 149.746094 54.480469 155.78125 60.179688 C 157.121094 61.472656 158.941406 62.285156 160.714844 63.148438 C 159.515625 62.09375 158.414062 61.039062 157.363281 60.035156 C 151.132812 54.480469 144.8125 48.734375 142.273438 40.261719 C 142.175781 39.972656 142.082031 39.542969 141.9375 38.96875 Z M 195.828125 26.953125 C 195.78125 27.382812 195.683594 27.859375 195.589844 28.292969 C 192.332031 41.363281 188.929688 48.449219 187.207031 58.359375 C 188.210938 55.292969 189.363281 52.277344 190.414062 48.976562 C 191.085938 46.964844 192.476562 45.144531 193.003906 43.132812 C 194.34375 37.820312 195.398438 32.457031 195.828125 26.953125 Z M 190.222656 6.988281 C 190.128906 6.988281 190.082031 6.988281 190.03125 6.9375 C 189.171875 6.84375 188.453125 6.84375 187.78125 6.890625 C 187.589844 7.128906 187.445312 7.371094 187.253906 7.65625 C 186.824219 8.421875 186.441406 9.476562 186.152344 10.722656 C 185.144531 14.648438 184.714844 20.488281 184.570312 27.476562 C 184.425781 35.761719 184.714844 45.574219 185.144531 55.4375 C 185.53125 53.476562 186.054688 51.609375 186.105469 50.410156 C 186.296875 46.535156 187.972656 42.605469 187.925781 38.871094 C 187.828125 31.59375 188.882812 24.558594 189.363281 17.28125 C 189.363281 17.039062 189.601562 16.898438 189.792969 16.898438 C 190.03125 16.898438 190.175781 17.089844 190.175781 17.328125 C 189.695312 24.558594 188.644531 31.59375 188.738281 38.871094 C 188.785156 42.605469 187.109375 46.535156 186.917969 50.460938 C 186.824219 52.183594 185.914062 55.199219 185.53125 57.929688 C 187.253906 48.066406 190.65625 40.933594 193.914062 27.859375 C 194.488281 25.515625 194.246094 22.976562 193.863281 20.488281 C 193.433594 17.808594 192.90625 15.171875 192.90625 12.730469 C 192.90625 11.726562 191.949219 9.140625 190.65625 7.464844 C 190.511719 7.320312 190.367188 7.128906 190.222656 6.988281 Z M 221.839844 55.4375 C 221.695312 55.199219 221.503906 55.007812 221.265625 54.910156 C 221.074219 54.816406 220.882812 54.816406 220.644531 54.863281 C 220.738281 54.910156 220.882812 55.007812 220.980469 55.054688 C 221.21875 55.246094 221.503906 55.34375 221.839844 55.4375 Z M 185.289062 7.894531 C 183.902344 8.949219 183.085938 10.816406 182.414062 13.449219 C 179.875 23.121094 180.644531 33.796875 181.410156 43.515625 C 181.554688 45.191406 182.128906 46.917969 182.703125 48.640625 C 182.894531 49.167969 183.039062 49.644531 183.230469 50.171875 C 182.894531 42.128906 182.703125 34.277344 182.847656 27.476562 C 182.992188 19.148438 183.660156 12.347656 185.050781 8.472656 C 185.144531 8.28125 185.242188 8.085938 185.289062 7.894531 Z M 194.582031 12.875 C 194.582031 15.171875 195.15625 17.710938 195.542969 20.25 C 195.78125 21.636719 195.925781 23.074219 195.972656 24.460938 C 195.972656 23.886719 196.019531 23.359375 196.019531 22.785156 C 195.972656 19.433594 195.542969 16.035156 194.582031 12.875 Z M 194.582031 12.875 " fill-opacity="1" fill-rule="evenodd"/></g></svg>