<svg xmlns="http://www.w3.org/2000/svg" xmlns:xlink="http://www.w3.org/1999/xlink" width="578" zoomAndPan="magnify" viewBox="0 0 433.5 213.75" height="285" preserveAspectRatio="xMidYMid meet" version="1.0"><defs><g/><clipPath id="cd99b1cd68"><path d="M 75.496094 75.402344 L 115.996094 75.402344 L 115.996094 138.398438 L 75.496094 138.398438 Z M 75.496094 75.402344 " clip-rule="nonzero"/></clipPath></defs><g fill="#ffffff" fill-opacity="1"><g transform="translate(128.685596, 121.675771)"><g><path d="M 2.039062 0 L 11.644531 0 C 20.191406 0 24.902344 -4.46875 24.902344 -12.453125 C 24.902344 -20.472656 20.191406 -24.9375 11.644531 -24.9375 L 2.039062 -24.9375 Z M 6.332031 -3.65625 L 6.332031 -21.28125 L 11.644531 -21.28125 C 17.339844 -21.28125 20.507812 -18.148438 20.507812 -12.453125 C 20.507812 -6.789062 17.339844 -3.65625 11.644531 -3.65625 Z M 6.332031 -3.65625 "/></g></g></g><g fill="#ffffff" fill-opacity="1"><g transform="translate(165.013035, 121.675771)"><g><path d="M 2.039062 0 L 6.402344 0 L 6.402344 -24.9375 L 2.039062 -24.9375 Z M 2.039062 0 "/></g></g></g><g fill="#ffffff" fill-opacity="1"><g transform="translate(183.724103, 121.675771)"><g><path d="M 13.789062 0.84375 C 18.21875 0.84375 21.84375 -1.265625 23.742188 -4.75 L 23.777344 -4.75 L 24.199219 0 L 27.578125 0 L 27.578125 -13.929688 L 10.867188 -13.929688 L 10.867188 -10.796875 L 23.25 -10.796875 C 23.179688 -6.226562 19.453125 -2.847656 14.667969 -2.847656 C 9.320312 -2.847656 5.523438 -6.859375 5.523438 -12.453125 C 5.523438 -18.042969 9.074219 -21.984375 14.070312 -21.984375 C 17.269531 -21.984375 20.085938 -19.910156 21.070312 -16.953125 L 25.148438 -17.972656 C 23.742188 -22.582031 19.3125 -25.816406 14.105469 -25.816406 C 6.507812 -25.816406 1.160156 -20.261719 1.160156 -12.453125 C 1.160156 -4.679688 6.402344 0.84375 13.789062 0.84375 Z M 13.789062 0.84375 "/></g></g></g><g fill="#ffffff" fill-opacity="1"><g transform="translate(222.970029, 121.675771)"><g><path d="M 0.28125 0 L 4.890625 0 L 6.859375 -5.453125 L 17.726562 -5.453125 L 19.664062 0 L 24.269531 0 L 14.984375 -24.9375 L 9.636719 -24.9375 Z M 7.808594 -8.863281 L 12.277344 -21.140625 L 12.347656 -21.140625 L 16.742188 -8.863281 Z M 7.808594 -8.863281 "/></g></g></g><g fill="#ffffff" fill-opacity="1"><g transform="translate(257.785482, 121.675771)"><g><path d="M 2.039062 0 L 6.367188 0 L 6.367188 -9.144531 L 12.945312 -9.144531 C 18.5 -9.144531 22.300781 -12.347656 22.300781 -17.023438 C 22.300781 -21.703125 18.535156 -24.9375 12.980469 -24.9375 L 2.039062 -24.9375 Z M 6.367188 -12.628906 L 6.367188 -21.457031 L 12.523438 -21.457031 C 15.757812 -21.457031 17.9375 -19.628906 17.9375 -17.023438 C 17.9375 -14.421875 15.722656 -12.628906 12.523438 -12.628906 Z M 6.367188 -12.628906 "/></g></g></g><g fill="#ffffff" fill-opacity="1"><g transform="translate(291.053791, 121.675771)"><g><path d="M 2.039062 0 L 6.367188 0 L 6.367188 -9.144531 L 12.945312 -9.144531 C 18.5 -9.144531 22.300781 -12.347656 22.300781 -17.023438 C 22.300781 -21.703125 18.535156 -24.9375 12.980469 -24.9375 L 2.039062 -24.9375 Z M 6.367188 -12.628906 L 6.367188 -21.457031 L 12.523438 -21.457031 C 15.757812 -21.457031 17.9375 -19.628906 17.9375 -17.023438 C 17.9375 -14.421875 15.722656 -12.628906 12.523438 -12.628906 Z M 6.367188 -12.628906 "/></g></g></g><g clip-path="url(#cd99b1cd68)"><path fill="#ffffff" d="M 127.285156 -0.765625 C 127.539062 -1.164062 127.820312 -1.441406 128.121094 -1.582031 C 128.699219 -1.863281 129.257812 -1.699219 129.769531 -1.234375 C 129.929688 -1.09375 130.070312 -0.90625 130.230469 -0.71875 C 130.511719 -0.605469 130.742188 -0.417969 130.882812 -0.136719 C 131.996094 2.050781 132.53125 4.617188 132.507812 7.132812 C 132.484375 10.558594 131.902344 13.867188 131.019531 17.152344 C 130.765625 18.128906 130.09375 19.015625 129.769531 20.019531 C 128.957031 22.488281 128.074219 24.679688 127.472656 27.078125 C 127.332031 28.40625 127.261719 29.875 127.261719 31.507812 C 127.261719 31.527344 127.261719 31.550781 127.261719 31.550781 C 127.65625 38.847656 128.003906 45.207031 127.703125 47.863281 C 127.773438 48.167969 127.84375 48.46875 127.910156 48.75 C 128.167969 49.75 128.632812 50.613281 129.09375 51.476562 C 129.445312 52.105469 129.792969 52.757812 130.070312 53.433594 C 130.070312 53.035156 130.09375 52.664062 130.117188 52.3125 C 130.277344 50.894531 130.488281 49.449219 130.765625 47.980469 C 130.835938 42.203125 132.832031 32.089844 136.496094 27.777344 C 137.378906 26.730469 139.699219 24.050781 141.71875 23 C 141.972656 22.859375 142.226562 22.769531 142.484375 22.699219 C 143.757812 21.71875 144.851562 21.625 145.40625 22.769531 C 145.707031 23.375 145.847656 24.121094 145.847656 24.910156 C 146.242188 27.242188 145.546875 29.921875 144.109375 31.808594 C 141.371094 35.375 138.285156 38.707031 135.824219 42.457031 C 134.523438 44.4375 134.0625 46.816406 133.085938 48.890625 C 132.667969 49.75 132.320312 50.613281 132.042969 51.5 C 131.554688 53.621094 131.277344 55.554688 131.277344 56.996094 C 131.277344 57.066406 131.253906 57.136719 131.230469 57.207031 C 131.300781 57.789062 131.390625 58.347656 131.460938 58.933594 C 131.601562 60.003906 131.695312 61.050781 131.695312 62.054688 C 132.042969 65.433594 132.179688 68.859375 132.25 72.332031 C 132.296875 74.589844 131.648438 77.128906 131.042969 79.648438 C 130.441406 82.09375 128.792969 93.792969 128.398438 95.097656 C 128.027344 96.285156 128.097656 97.054688 127.75 98.636719 C 127.03125 102.015625 127.214844 105.347656 127.214844 105.347656 C 127.261719 105.257812 127.308594 105.1875 127.355469 105.09375 C 129.09375 102.15625 131.4375 99.289062 132.878906 96.890625 C 137.890625 88.570312 145.128906 83.1875 145.128906 83.1875 C 146.265625 81.183594 147.65625 79.179688 148.585938 77.039062 C 148.816406 76.339844 148.703125 75.382812 148.515625 74.382812 C 148.191406 72.75 147.566406 71.027344 147.355469 69.976562 C 146.636719 66.410156 146.382812 63.03125 146.382812 59.328125 C 146.382812 57.207031 146.753906 54.363281 147.75 52.011719 C 147.820312 51.871094 147.867188 51.730469 147.9375 51.59375 C 149.1875 48.9375 150.257812 48.492188 150.8125 48.167969 C 151.394531 47.816406 152.113281 47.839844 152.808594 48.121094 C 153.785156 48.492188 154.6875 49.332031 155.011719 50.078125 C 155.988281 52.359375 155.640625 55.132812 155.363281 57.605469 C 155.382812 58.464844 155.40625 59.375 155.429688 60.261719 C 155.453125 61.214844 155.429688 62.917969 155.011719 63.800781 C 153.96875 66.039062 153.691406 68.765625 152.296875 71.46875 C 151.835938 72.355469 151.207031 73.308594 150.652344 74.289062 C 150.582031 74.425781 150.488281 74.542969 150.417969 74.683594 C 150.164062 75.382812 149.886719 76.082031 149.582031 76.78125 C 149.558594 76.921875 149.421875 77.175781 149.328125 77.410156 C 148.703125 78.832031 147.449219 80.859375 146.636719 82.210938 L 147.519531 81.605469 C 148.539062 80.742188 149.46875 79.855469 150.488281 78.996094 C 150.976562 78.574219 151.277344 78.390625 151.765625 77.96875 L 152.183594 77.550781 C 153.109375 76.5 153.644531 75.570312 154.757812 74.589844 C 155.175781 74.054688 156.289062 72.9375 157.566406 71.445312 C 158.5625 70.234375 159.675781 68.789062 160.558594 67.203125 C 162.738281 63.335938 163.898438 58.746094 164.292969 57.582031 C 164.621094 56.554688 164.992188 55.554688 165.410156 54.503906 C 166.429688 52.105469 167.496094 49.9375 168.980469 47.328125 C 170.535156 44.601562 172.414062 43.203125 174.363281 43.621094 C 176.152344 43.996094 177.613281 45.648438 177.265625 48.46875 C 177.40625 49.238281 177.449219 49.984375 177.382812 50.519531 C 177.242188 51.777344 176.5 53.339844 175.523438 54.878906 C 174.0625 57.183594 172.019531 59.46875 170.535156 60.632812 C 168.773438 62.03125 167.054688 63.054688 165.386719 64.105469 C 164.550781 64.804688 163.761719 65.503906 162.996094 66.226562 C 162.972656 66.273438 162.925781 66.296875 162.902344 66.320312 C 162.484375 66.714844 159.933594 70.140625 159.027344 71.328125 C 159.304688 71.140625 159.5625 70.980469 159.839844 70.792969 C 159.957031 70.722656 160.117188 70.605469 160.164062 70.558594 C 161.71875 69 167.496094 64.734375 173.785156 60.9375 C 176.429688 58.863281 179.121094 56.953125 182.136719 55.390625 C 184.085938 54.386719 185.875 54.109375 187.148438 54.386719 C 187.21875 54.410156 187.289062 54.410156 187.335938 54.433594 C 188.054688 54.273438 188.679688 54.179688 189.214844 54.203125 C 190.257812 54.226562 190.976562 54.574219 191.328125 55.296875 C 191.742188 56.113281 191.605469 56.976562 191.164062 57.765625 C 190.582031 58.839844 189.46875 59.769531 188.703125 60.308594 C 188.148438 60.679688 187.542969 60.984375 186.894531 61.261719 C 185.710938 62.425781 184.109375 63.171875 182.417969 63.730469 C 180.511719 64.363281 178.519531 64.757812 176.824219 65.199219 C 173.34375 66.15625 163.273438 69.722656 162.761719 69.976562 C 162.414062 70.164062 162.089844 70.375 161.765625 70.558594 C 161.535156 70.722656 161.371094 70.769531 161.164062 70.933594 C 161.117188 70.980469 161.023438 71.027344 160.929688 71.070312 C 160.003906 71.65625 158.097656 72.890625 157.726562 73.191406 C 157.425781 73.425781 156.984375 73.890625 156.960938 73.914062 C 156.382812 74.589844 155.753906 75.265625 155.128906 75.917969 C 154.386719 76.710938 153.597656 77.480469 152.832031 78.226562 C 151.53125 79.460938 150.1875 80.671875 148.839844 81.835938 C 147.65625 82.863281 146.453125 83.863281 145.246094 84.890625 L 144.6875 85.355469 C 144.363281 85.636719 144.039062 85.890625 143.738281 86.148438 C 143.644531 86.21875 143.550781 86.3125 143.433594 86.382812 C 143.367188 86.453125 143.273438 86.496094 143.203125 86.566406 C 143.109375 86.660156 142.992188 86.753906 142.902344 86.824219 L 142.878906 86.847656 C 143.574219 86.335938 144.339844 85.800781 145.175781 85.214844 C 150.328125 81.699219 157.9375 77.199219 163.785156 74.707031 C 166.3125 73.636719 168.515625 72.914062 170.070312 72.796875 C 171.277344 72.703125 172.113281 73.007812 172.53125 73.613281 C 173.367188 74.894531 173.160156 76.429688 172.324219 77.898438 C 172.371094 78.0625 172.390625 78.226562 172.390625 78.390625 C 172.414062 79.25 171.90625 80.160156 170.582031 80.835938 C 165.988281 83.210938 160.953125 85.101562 155.800781 86.453125 C 153.109375 87.171875 150.71875 87.335938 148.445312 87.617188 C 147.332031 87.757812 146.242188 87.917969 145.175781 88.199219 C 143.15625 89.363281 141.136719 90.574219 139.050781 91.855469 C 138.238281 92.488281 137.449219 93.164062 136.683594 93.90625 C 135.265625 95.820312 133.875 97.753906 132.390625 99.546875 C 131.207031 100.96875 128.886719 103.996094 127.078125 107.304688 C 126.984375 107.515625 124.964844 112.898438 124.015625 117.234375 L 123.992188 117.304688 C 123.757812 118.445312 123.550781 119.5625 123.316406 120.703125 L 123.292969 120.75 C 123.179688 121.449219 123.0625 122.148438 122.945312 122.824219 C 122.855469 123.476562 122.738281 124.128906 122.644531 124.78125 C 122.390625 126.460938 122.15625 128.160156 121.925781 129.839844 L 121.925781 129.886719 C 123.039062 127.882812 124.410156 125.972656 125.871094 124.222656 C 127.332031 122.125 129.070312 120.097656 131.113281 118.164062 C 133.316406 116.042969 136.125 114.832031 139.003906 113.761719 C 139.050781 112.058594 139.234375 109.402344 139.375 108.890625 C 139.929688 106.675781 140.210938 105 141.300781 102.996094 C 142.554688 100.710938 144.085938 98.566406 145.3125 96.332031 C 145.730469 95.5625 146.40625 94.304688 147.238281 93.394531 C 147.378906 93.230469 147.542969 93.09375 147.679688 92.953125 C 147.75 92.859375 147.820312 92.789062 147.890625 92.71875 C 148.214844 92.394531 148.539062 92.160156 148.839844 92.042969 C 149.097656 91.949219 149.351562 91.949219 149.582031 92.042969 C 149.722656 92.113281 149.863281 92.207031 150 92.347656 C 150.488281 92.578125 150.835938 93.09375 151.046875 93.769531 C 151.671875 95.867188 151.046875 99.664062 150.605469 100.78125 C 149.375 103.765625 146.429688 108.261719 143.132812 111.828125 C 143.039062 111.945312 142.925781 112.058594 142.832031 112.152344 C 142.761719 112.222656 142.714844 112.316406 142.644531 112.386719 C 144.0625 111.851562 145.429688 111.269531 146.730469 110.546875 C 149.558594 108.472656 151.859375 104.90625 154.039062 102.34375 C 155.476562 100.664062 156.914062 98.382812 158.609375 96.402344 C 160.375 94.351562 162.390625 92.671875 164.875 92.253906 C 166.359375 91.996094 167.242188 92.253906 167.683594 92.742188 C 168.144531 93.253906 168.214844 94.046875 167.9375 94.980469 C 167.636719 96.003906 166.964844 97.195312 166.195312 98.3125 C 165.847656 99.242188 165.523438 100.011719 165.386719 100.339844 C 164.574219 102.34375 162.277344 104.089844 159.515625 105.628906 C 157.171875 106.933594 154.480469 108.097656 152.113281 109.171875 C 148.609375 111.082031 144.988281 112.804688 141.460938 114.601562 C 141.300781 114.714844 141.136719 114.832031 140.976562 114.949219 C 140.882812 115.019531 140.742188 115.042969 140.628906 115.019531 C 139.605469 115.53125 138.585938 116.066406 137.585938 116.605469 C 135.871094 117.628906 133.992188 118.65625 133.25 119.027344 C 130.996094 120.144531 128.65625 122.171875 126.542969 124.621094 L 126.519531 124.644531 C 126.242188 125.039062 125.960938 125.457031 125.707031 125.855469 C 125.429688 126.273438 125.175781 126.695312 124.941406 127.113281 C 125.570312 126.601562 126.289062 126.085938 127.078125 125.574219 C 133.316406 121.402344 143.503906 117.234375 146.730469 116.835938 C 147.914062 116.695312 150.675781 116.136719 152.390625 116.605469 C 153.0625 116.789062 153.597656 117.140625 153.875 117.675781 C 154.15625 118.1875 154.222656 118.886719 153.898438 119.867188 C 153.875 119.960938 153.828125 120.050781 153.808594 120.121094 C 153.875 120.425781 153.898438 120.773438 153.875 121.171875 C 153.851562 121.402344 153.761719 121.660156 153.574219 121.917969 C 153.320312 122.242188 152.925781 122.59375 152.4375 122.917969 C 150.605469 124.152344 147.449219 125.25 146.429688 125.457031 C 139.722656 126.808594 132.574219 126.761719 126.101562 129.488281 C 125.382812 129.792969 124.152344 130.304688 123.015625 130.980469 C 122.109375 133.101562 121.390625 135.316406 120.882812 137.621094 C 120.765625 138.578125 120.648438 139.53125 120.535156 140.488281 C 120.441406 141.328125 120.347656 142.164062 120.253906 143.003906 L 120.253906 143.050781 C 120.371094 143.378906 120.464844 143.703125 120.578125 144.054688 C 120.859375 144.9375 121.484375 145.730469 121.761719 146.640625 C 122.875 150.320312 123.410156 154.328125 123.621094 158.152344 C 123.734375 160.039062 124.199219 161.925781 124.269531 163.835938 C 124.316406 165.09375 124.339844 166.351562 124.316406 167.613281 C 124.476562 167.914062 124.640625 168.242188 124.800781 168.542969 C 124.847656 168.589844 124.894531 168.613281 124.941406 168.636719 C 125.082031 168.730469 125.128906 168.894531 125.105469 169.054688 C 125.382812 169.546875 125.683594 170.035156 126.054688 170.476562 C 126.867188 171.503906 127.84375 172.410156 128.746094 173.34375 C 128.839844 173.4375 128.980469 173.507812 129.09375 173.578125 C 129.234375 173.648438 129.351562 173.738281 129.441406 173.832031 C 129.582031 173.996094 129.582031 174.230469 129.441406 174.390625 C 129.441406 174.578125 129.328125 174.742188 129.164062 174.8125 C 129.210938 174.882812 129.234375 174.953125 129.234375 175.042969 C 129.210938 175.230469 129.070312 175.394531 128.910156 175.417969 C 128.816406 175.464844 128.609375 175.558594 128.46875 175.535156 C 128.261719 175.511719 128.050781 175.464844 127.84375 175.394531 C 127.121094 175.347656 126.425781 174.929688 125.777344 174.160156 C 125.21875 173.507812 124.6875 172.597656 124.152344 171.480469 C 124.128906 171.710938 124.105469 171.921875 124.082031 172.15625 C 124.015625 172.691406 124.058594 173.4375 124.035156 174.136719 C 124.015625 174.648438 123.921875 175.136719 123.757812 175.535156 C 123.757812 175.558594 123.640625 175.882812 123.527344 176.09375 C 123.457031 176.257812 123.363281 176.371094 123.269531 176.441406 C 123.15625 176.535156 123.0625 176.558594 122.945312 176.558594 C 122.832031 176.558594 122.691406 176.511719 122.574219 176.371094 C 122.527344 176.328125 122.480469 176.234375 122.460938 176.117188 C 122.4375 176.023438 122.4375 175.859375 122.460938 175.652344 C 122.550781 174.765625 123.015625 172.878906 123.0625 172.550781 C 123.0625 172.480469 123.085938 172.433594 123.132812 172.386719 C 123.203125 171.96875 123.25 171.574219 123.269531 171.152344 C 123.316406 170.6875 123.363281 170.199219 123.386719 169.730469 L 123.386719 169.683594 C 123.109375 168.960938 122.875 168.242188 122.644531 167.496094 C 122.414062 166.703125 122.179688 165.933594 121.972656 165.140625 L 121.972656 165.117188 C 121.761719 164.535156 121.554688 163.953125 121.367188 163.347656 C 121.183594 162.8125 121.019531 162.253906 120.882812 161.691406 C 120.695312 161.0625 120.535156 160.410156 120.371094 159.78125 C 120.207031 159.128906 120.046875 158.476562 119.90625 157.800781 C 119.789062 157.21875 119.675781 156.660156 119.558594 156.078125 C 119.464844 155.542969 119.375 155.027344 119.28125 154.492188 C 119.210938 154.027344 119.140625 153.558594 119.070312 153.09375 C 119.023438 152.699219 118.980469 152.324219 118.957031 151.929688 C 118.933594 151.765625 118.933594 151.625 118.933594 151.464844 C 118.933594 151.394531 118.933594 151.300781 118.933594 151.230469 C 118.933594 151.136719 118.933594 151.019531 118.933594 150.902344 C 118.933594 150.53125 118.933594 150.183594 118.933594 149.808594 C 118.933594 148.621094 118.957031 147.457031 119 146.265625 L 119 146.21875 C 118.957031 145.496094 118.910156 144.777344 118.863281 144.054688 C 118.816406 143.378906 118.792969 142.679688 118.792969 142.003906 L 118.792969 141.933594 C 118.585938 141.304688 118.398438 140.699219 118.191406 140.070312 C 117.980469 139.441406 117.773438 138.832031 117.5625 138.203125 L 117.5625 138.179688 C 117.492188 138.15625 117.449219 138.113281 117.402344 138.042969 C 116.914062 137.34375 116.378906 136.621094 115.824219 135.898438 C 114.871094 134.710938 113.851562 133.636719 112.808594 132.707031 C 112.203125 132.332031 111.253906 131.726562 111.113281 131.65625 C 109.511719 130.769531 107.792969 129.746094 106.03125 129.210938 C 104.683594 128.8125 103.339844 128.605469 101.992188 128.207031 C 98.953125 127.300781 94.847656 125.597656 91.902344 123.617188 C 91.550781 123.5 91.203125 123.382812 90.855469 123.246094 C 90.578125 123.152344 90.300781 123.035156 90.019531 122.894531 C 89.765625 122.777344 89.511719 122.664062 89.253906 122.523438 C 89.023438 122.382812 88.816406 122.242188 88.605469 122.101562 C 88.328125 121.894531 88.070312 121.660156 87.863281 121.378906 C 87.816406 121.3125 87.769531 121.265625 87.722656 121.195312 C 87.699219 121.171875 87.675781 121.125 87.65625 121.101562 C 87.632812 121.054688 87.609375 121.03125 87.585938 120.984375 C 87.492188 120.820312 87.398438 120.660156 87.304688 120.496094 C 87.074219 120.027344 86.886719 119.539062 86.796875 119.027344 C 86.75 118.722656 86.726562 118.421875 86.75 118.117188 C 86.773438 117.933594 86.796875 117.722656 86.84375 117.535156 C 86.886719 117.347656 86.957031 117.164062 87.050781 116.976562 C 87.097656 116.859375 87.167969 116.765625 87.238281 116.652344 C 87.28125 116.558594 87.351562 116.488281 87.398438 116.417969 C 87.445312 116.371094 87.492188 116.300781 87.539062 116.253906 C 87.886719 115.835938 88.328125 115.507812 88.792969 115.253906 C 88.882812 115.207031 88.953125 115.160156 89.046875 115.113281 C 89.371094 114.949219 89.695312 114.832031 90.019531 114.714844 C 90.390625 114.601562 90.761719 114.53125 91.136719 114.460938 C 91.460938 114.414062 91.808594 114.390625 92.15625 114.367188 C 92.503906 114.367188 92.851562 114.367188 93.175781 114.414062 C 93.757812 114.484375 94.3125 114.601562 94.871094 114.785156 C 95.148438 114.878906 95.425781 114.996094 95.683594 115.136719 C 95.753906 115.160156 95.796875 115.207031 95.867188 115.230469 C 95.9375 115.277344 96.007812 115.324219 96.078125 115.34375 C 96.238281 115.4375 96.378906 115.53125 96.542969 115.625 C 96.726562 115.695312 96.890625 115.765625 97.050781 115.835938 C 98.210938 116.300781 99.488281 116.765625 100.578125 117.394531 C 101.738281 118.070312 102.667969 119.144531 103.6875 120.007812 C 106.449219 122.3125 108.582031 125.179688 110.554688 128.113281 C 112.738281 130.5625 114.753906 133.03125 116.472656 135.292969 C 116.519531 135.363281 116.589844 135.433594 116.636719 135.476562 C 115.847656 133.359375 115.011719 131.285156 114.128906 129.257812 C 110.835938 121.660156 107.027344 115.019531 103.410156 110.917969 L 103.386719 110.894531 C 102.992188 110.523438 102.597656 110.148438 102.203125 109.777344 C 101.808594 109.402344 101.390625 109.054688 100.972656 108.703125 L 100.949219 108.679688 C 100.207031 108.191406 99.441406 107.726562 98.675781 107.261719 C 97.703125 106.792969 96.703125 106.421875 95.683594 106.046875 C 93.152344 105.140625 90.878906 103.972656 88.558594 102.554688 C 87.699219 102.039062 86.703125 101.785156 85.796875 101.269531 C 83.617188 100.035156 81.4375 98.289062 79.625 96.585938 C 78.511719 95.5625 77.628906 94.1875 76.957031 92.765625 C 76.609375 92.277344 76.308594 91.765625 76.074219 91.273438 C 75.613281 90.273438 75.496094 89.316406 75.867188 88.546875 C 76.261719 87.757812 77.144531 87.5 78.28125 87.617188 C 80.53125 87.871094 83.757812 89.644531 84.453125 90.203125 C 89.625 94.351562 94.035156 99.335938 98.234375 104.394531 L 87.675781 92.976562 C 88.882812 93.769531 90.136719 94.539062 91.296875 95.398438 C 92.804688 96.519531 93.988281 98.195312 95.242188 99.570312 C 97.121094 101.644531 98.722656 104.253906 100.277344 106.5625 C 100.648438 106.957031 100.996094 107.351562 101.296875 107.679688 C 102.15625 108.355469 103.015625 109.195312 103.898438 110.171875 C 104.359375 110.617188 104.800781 111.058594 105.242188 111.523438 C 105.984375 112.316406 106.703125 113.132812 107.398438 113.972656 C 108.097656 114.808594 108.746094 115.671875 109.371094 116.558594 C 109.742188 117.09375 110.113281 117.628906 110.464844 118.164062 C 110.207031 117.28125 109.953125 116.417969 109.71875 115.53125 C 109.699219 115.484375 109.675781 115.4375 109.675781 115.390625 C 109.652344 115.324219 109.652344 115.230469 109.628906 115.160156 C 109.441406 114.484375 109.257812 113.808594 109.070312 113.15625 C 108.539062 111.222656 108.1875 109.078125 107.703125 106.957031 C 107.679688 106.839844 107.632812 106.699219 107.609375 106.585938 C 107.445312 105.933594 106.472656 102.925781 106.261719 102.320312 L 106.238281 102.25 C 105.867188 101.410156 105.429688 100.640625 104.894531 99.941406 C 103.828125 98.523438 102.527344 97.03125 101.183594 95.515625 C 96.957031 92.253906 92.179688 87.894531 90.878906 82.605469 C 90.460938 80.929688 89.90625 79.742188 90.113281 77.992188 C 90.113281 77.96875 90.113281 77.945312 90.113281 77.898438 C 90.113281 77.714844 90.113281 77.550781 90.136719 77.410156 C 90.183594 77.085938 90.300781 76.828125 90.4375 76.6875 C 90.460938 76.664062 90.460938 76.664062 90.460938 76.664062 C 90.53125 76.570312 90.625 76.5 90.71875 76.453125 C 90.761719 76.433594 90.785156 76.433594 90.832031 76.433594 C 91.136719 76.316406 91.4375 76.363281 91.761719 76.523438 C 91.96875 76.617188 92.179688 76.78125 92.386719 76.96875 C 93.710938 77.503906 94.917969 78.597656 95.707031 79.789062 C 98.605469 84.238281 100.484375 89.691406 102.296875 94.722656 C 102.320312 94.769531 102.34375 94.792969 102.363281 94.839844 C 103.085938 96.050781 104.105469 97.195312 104.894531 98.40625 C 105.84375 99.851562 106.449219 100.480469 107.027344 102.085938 C 107.027344 102.109375 107.050781 102.132812 107.050781 102.15625 C 107.585938 103.414062 107.980469 104.765625 108.328125 106.140625 C 108.375 106.257812 108.398438 106.351562 108.398438 106.421875 C 108.492188 106.769531 108.558594 107.074219 108.652344 107.375 C 108.304688 104.859375 108.167969 103.089844 108.328125 101.0625 C 108.257812 100.011719 108.167969 98.988281 108.050781 97.9375 C 107.863281 97.308594 107.679688 96.65625 107.398438 96.050781 C 106.261719 93.511719 105.542969 90.0625 105.589844 87.265625 C 105.613281 86.125 105.519531 84.820312 106.054688 83.773438 C 106.355469 83.164062 106.726562 82.351562 107.191406 81.675781 C 107.308594 81.511719 107.421875 81.347656 107.5625 81.207031 C 107.792969 80.835938 108.167969 80.371094 108.558594 80.136719 C 109.023438 79.855469 109.511719 79.832031 109.929688 80.253906 C 111.136719 81.464844 111.484375 83.050781 111.507812 84.726562 C 111.507812 84.890625 111.507812 85.054688 111.507812 85.214844 C 111.601562 85.730469 111.691406 86.265625 111.808594 86.824219 C 112.574219 90.574219 111.414062 92.789062 110.578125 96.214844 C 110.070312 98.3125 109.488281 100.339844 109.234375 102.414062 C 109.347656 104.230469 109.417969 106.046875 109.558594 107.84375 C 109.558594 107.867188 109.558594 107.890625 109.558594 107.914062 C 109.652344 109.171875 109.765625 110.429688 109.90625 111.6875 C 109.976562 112.082031 110.070312 112.503906 110.136719 112.96875 C 110.136719 113.039062 110.136719 113.109375 110.113281 113.15625 C 110.207031 113.761719 110.300781 114.34375 110.441406 114.949219 C 110.996094 116.953125 111.578125 118.957031 112.203125 120.960938 C 113.988281 124.152344 115.40625 127.53125 116.519531 131.097656 C 116.613281 131.214844 116.703125 131.355469 116.796875 131.492188 C 117.121094 132.054688 117.332031 132.753906 117.492188 133.125 C 118.074219 134.453125 118.351562 135.921875 118.652344 137.367188 C 118.769531 137.550781 118.886719 137.738281 119 137.902344 C 119.070312 137.34375 119.1875 136.78125 119.351562 136.199219 L 119.375 136.0625 C 119.605469 134.917969 119.835938 133.753906 120.09375 132.613281 C 120.347656 131.378906 120.601562 130.140625 120.859375 128.90625 C 121.207031 127.207031 121.554688 125.527344 121.902344 123.828125 C 122.109375 122.753906 122.34375 121.683594 122.550781 120.613281 L 122.597656 120.378906 C 122.714844 119.703125 122.832031 119.027344 122.96875 118.351562 C 123.015625 118.09375 123.0625 117.839844 123.132812 117.605469 C 123.179688 117.394531 123.226562 117.1875 123.292969 116.976562 L 123.316406 116.859375 C 123.574219 115.601562 123.804688 114.34375 124.058594 113.0625 L 124.082031 112.96875 C 124.058594 112.898438 124.058594 112.828125 124.058594 112.757812 C 124.128906 112.410156 124.222656 112.058594 124.316406 111.6875 L 124.316406 111.640625 C 125.40625 105.933594 126.449219 100.199219 127.449219 93.839844 C 127.472656 93.652344 127.425781 93.511719 127.425781 93.511719 C 127.308594 93.09375 126.890625 92.488281 126.660156 91.878906 C 125.707031 89.386719 123.621094 85.707031 123.203125 84.820312 C 119.582031 76.710938 115.824219 73.402344 110.09375 67.34375 C 109.90625 67.15625 109.71875 66.972656 109.535156 66.808594 C 109.394531 66.714844 109.28125 66.597656 109.140625 66.503906 C 108.167969 66.039062 106.960938 65.152344 105.867188 64.363281 C 105.683594 64.246094 105.519531 64.128906 105.335938 64.011719 C 104.246094 63.871094 103.222656 64.011719 102.132812 64.246094 C 101.714844 64.339844 101.273438 64.429688 100.832031 64.546875 C 100.601562 64.640625 100.347656 64.757812 100.113281 64.875 C 98.90625 65.433594 97.722656 66.0625 96.496094 66.550781 C 94.570312 67.296875 92.503906 67.671875 90.136719 66.714844 C 87.28125 65.574219 86.75 62.589844 87.910156 60.5625 C 88.699219 59.210938 90.230469 58.28125 92.363281 58.582031 C 95.566406 59.046875 99.046875 59.679688 102.085938 61.050781 C 99.765625 59.140625 97.585938 57.160156 95.753906 55.015625 C 95.753906 55.015625 95.753906 55.015625 95.730469 55.015625 C 95.636719 55.0625 95.496094 55.039062 95.449219 54.925781 C 95.402344 54.808594 95.335938 54.714844 95.265625 54.597656 C 94.988281 54.339844 94.660156 53.992188 94.3125 53.574219 C 93.828125 53.011719 93.316406 52.3125 92.828125 51.640625 L 92.804688 51.617188 C 91.761719 50.589844 90.648438 49.613281 89.765625 48.492188 C 87.910156 46.117188 86.449219 43.109375 85.425781 40.265625 C 85.242188 39.730469 85.148438 39.195312 85.101562 38.636719 C 85.078125 38.566406 85.054688 38.496094 85.03125 38.425781 C 84.800781 37.75 84.035156 35.558594 84.035156 34.070312 C 84.035156 33.277344 84.289062 32.648438 84.800781 32.390625 C 85.355469 32.113281 86.03125 32.367188 86.65625 32.996094 C 87.050781 33.394531 87.46875 33.953125 87.816406 34.535156 C 89.859375 36.726562 91.484375 39.101562 92.527344 41.96875 C 93.152344 43.738281 93.410156 45.695312 93.757812 47.609375 C 94.082031 49.472656 94.523438 51.3125 95.472656 52.828125 C 95.519531 52.898438 95.519531 53.011719 95.449219 53.058594 C 95.730469 53.480469 96.054688 53.921875 96.378906 54.386719 C 96.425781 54.457031 96.449219 54.527344 96.449219 54.621094 C 98.328125 56.8125 100.578125 58.816406 102.96875 60.75 C 103.015625 60.773438 103.0625 60.820312 103.109375 60.867188 C 103.386719 61.074219 103.640625 61.285156 103.917969 61.519531 C 104.753906 62.195312 105.613281 62.847656 106.472656 63.5 C 106.542969 63.523438 106.613281 63.546875 106.679688 63.59375 C 106.308594 63.011719 106.007812 62.449219 105.800781 62.171875 C 105.289062 61.402344 104.753906 60.609375 104.222656 59.769531 C 104.128906 59.679688 104.058594 59.585938 103.964844 59.46875 C 101.878906 56.835938 99.300781 52.898438 98.445312 49.65625 C 98.257812 48.960938 97.980469 47.792969 98.117188 46.863281 C 98.210938 46.210938 98.492188 45.671875 99.070312 45.417969 C 99.234375 44.882812 99.535156 44.507812 100 44.390625 C 100.277344 44.320312 100.554688 44.367188 100.855469 44.507812 C 101.183594 44.671875 101.53125 45.019531 101.832031 45.464844 C 102.921875 46.976562 103.917969 49.796875 104.199219 50.449219 C 104.222656 50.472656 104.222656 50.519531 104.246094 50.542969 C 105.824219 53.574219 106.566406 56.882812 107.261719 60.214844 C 107.492188 61.378906 107.65625 62.472656 107.980469 63.5 C 108.421875 64.222656 109 64.945312 109.742188 65.691406 C 109.765625 65.714844 109.789062 65.757812 109.8125 65.804688 C 109.929688 65.921875 110.046875 66.039062 110.160156 66.15625 C 110.230469 66.25 110.277344 66.34375 110.277344 66.457031 C 112.691406 68.324219 115.011719 70.210938 117.03125 72.238281 C 117.355469 72.5625 117.679688 72.914062 117.957031 73.261719 C 116.289062 69.90625 114.59375 65.828125 113.664062 62.941406 C 113.179688 61.472656 112.898438 60.285156 112.898438 59.679688 C 112.898438 58.980469 112.714844 56.507812 113.15625 54.785156 C 113.503906 53.410156 114.269531 52.523438 115.589844 52.875 C 116.636719 53.128906 117.515625 53.921875 118.214844 54.925781 C 119.210938 56.390625 119.789062 58.304688 119.789062 59.679688 C 119.789062 60.65625 119.8125 61.589844 119.835938 62.472656 C 120.71875 67.132812 120.972656 71.933594 122.203125 76.523438 C 122.4375 77.363281 122.503906 78.480469 122.667969 79.578125 C 122.855469 80.207031 123.0625 80.835938 123.269531 81.488281 C 123.292969 81.535156 123.292969 81.582031 123.292969 81.605469 C 124.410156 83.375 126.636719 87.265625 127.703125 90.15625 C 127.796875 90.367188 127.867188 90.597656 127.933594 90.808594 C 128.632812 86.3125 129.210938 81.90625 129.628906 77.804688 C 130.558594 68.929688 130.695312 61.496094 129.398438 57.582031 C 127.632812 52.292969 126.335938 47.023438 124.78125 41.664062 C 123.804688 40.105469 122.042969 39.753906 120 39.800781 C 117.773438 39.871094 115.195312 40.429688 112.875 40.640625 C 111.296875 40.78125 109.8125 40.757812 108.605469 40.289062 C 108.421875 40.222656 108.210938 40.152344 108.003906 40.105469 C 106.425781 40.011719 104.941406 39.570312 103.6875 38.566406 C 101.203125 36.5625 101.296875 32.042969 105.035156 32.042969 C 109.535156 32.042969 113.710938 33.324219 117.796875 35.28125 C 117.980469 35.351562 118.144531 35.445312 118.304688 35.515625 C 118.539062 35.628906 118.769531 35.746094 118.980469 35.886719 C 119.675781 36.234375 120.347656 36.632812 121.019531 37.027344 C 121.136719 37.074219 121.253906 37.121094 121.367188 37.167969 C 121.972656 37.402344 122.460938 37.820312 122.855469 38.238281 C 123.179688 38.449219 123.503906 38.730469 123.804688 38.984375 C 123.875 39.03125 123.96875 39.078125 124.035156 39.125 C 123.6875 38.007812 123.339844 36.890625 122.96875 35.769531 C 122.414062 34.09375 121.253906 32.53125 119.835938 31.015625 C 118.722656 29.828125 117.46875 28.6875 116.242188 27.589844 C 115.894531 27.382812 115.519531 27.195312 115.128906 27.007812 C 114.128906 26.542969 113.132812 26.101562 112.390625 25.378906 C 109.441406 22.558594 107.332031 20.507812 105.867188 16.476562 C 105.613281 15.730469 105.453125 14.144531 105.566406 12.585938 C 105.453125 11.746094 105.40625 10.90625 105.496094 10.277344 C 105.589844 9.742188 105.777344 9.371094 106.054688 9.160156 C 106.238281 9.019531 106.496094 8.949219 106.773438 8.996094 C 106.9375 8.855469 107.121094 8.761719 107.332031 8.71875 C 107.75 8.625 108.234375 8.71875 108.816406 9.113281 C 110.347656 10.113281 111.738281 12.328125 112.992188 14.890625 C 114.847656 18.667969 116.472656 23.210938 117.980469 25.609375 C 118.304688 26.125 118.609375 27.242188 118.980469 28.242188 C 120.207031 29.757812 121.414062 30.921875 122.527344 33.136719 C 122.527344 33.160156 122.550781 33.160156 122.550781 33.183594 L 122.550781 33.207031 C 122.644531 33.371094 122.738281 33.511719 122.832031 33.671875 C 123.085938 34.09375 123.292969 34.535156 123.480469 34.976562 C 123.527344 35.117188 123.597656 35.257812 123.640625 35.398438 C 123.664062 35.46875 123.6875 35.539062 123.710938 35.628906 C 123.734375 35.722656 123.757812 35.792969 123.804688 35.886719 C 123.921875 36.214844 124.015625 36.5625 124.128906 36.890625 C 124.476562 37.960938 125.753906 41.386719 125.917969 41.898438 C 126.007812 42.132812 126.078125 42.386719 126.148438 42.667969 C 126.148438 42.691406 126.171875 42.738281 126.171875 42.761719 C 126.171875 42.761719 126.171875 42.785156 126.171875 42.785156 C 126.289062 43.226562 126.402344 43.667969 126.519531 44.136719 C 126.707031 44.460938 126.867188 44.835938 127.007812 45.230469 C 127.03125 42.015625 126.773438 37.003906 126.449219 31.414062 C 126.449219 31.390625 126.425781 31.34375 126.425781 31.320312 L 126.425781 31.203125 C 126.289062 28.476562 126.125 25.632812 125.984375 22.792969 C 125.964844 22.558594 125.917969 22.371094 125.917969 22.230469 C 125.824219 21.371094 125.546875 20.507812 125.242188 19.667969 C 124.941406 18.804688 124.664062 17.945312 124.59375 17.082031 C 124.199219 12.328125 123.828125 7.0625 125.082031 2.308594 C 125.476562 0.769531 125.984375 -0.253906 126.867188 -0.789062 C 127.054688 -0.652344 127.167969 -0.71875 127.285156 -0.765625 Z M 120.117188 146.664062 C 120.371094 152.90625 121.53125 159.175781 123.363281 164.929688 C 123.292969 163.441406 123.15625 161.949219 122.96875 160.457031 C 122.808594 159.105469 122.597656 157.730469 122.34375 156.402344 C 122.089844 154.957031 121.808594 153.535156 121.484375 152.117188 C 121.066406 150.273438 120.625 148.480469 120.117188 146.664062 Z M 119.582031 139.671875 C 119.582031 139.882812 119.582031 140.09375 119.582031 140.300781 C 119.605469 140.136719 119.628906 139.953125 119.675781 139.789062 L 119.675781 139.765625 C 119.628906 139.71875 119.605469 139.695312 119.582031 139.671875 Z M 120.347656 135.523438 C 120.347656 135.523438 120.324219 135.546875 120.324219 135.546875 C 120.207031 135.898438 120.117188 136.246094 120.023438 136.574219 C 119.90625 137.109375 119.8125 137.597656 119.722656 138.042969 C 119.675781 138.226562 119.652344 138.4375 119.628906 138.648438 C 119.628906 138.71875 119.605469 138.765625 119.605469 138.832031 C 119.652344 138.832031 119.722656 138.855469 119.789062 138.878906 L 119.789062 138.855469 C 119.882812 138.414062 119.976562 137.972656 120.070312 137.527344 L 120.070312 137.503906 C 120.183594 136.875 120.277344 136.199219 120.347656 135.523438 Z M 93.222656 124.058594 C 95.984375 125.691406 99.394531 127.066406 101.992188 127.859375 C 103.339844 128.253906 104.707031 128.464844 106.03125 128.859375 C 107.492188 129.304688 108.933594 130.070312 110.300781 130.839844 C 105.777344 127.601562 100.855469 126.109375 96.726562 125.015625 C 95.496094 124.667969 94.3125 124.363281 93.222656 124.058594 Z M 142.578125 125.832031 C 142.4375 125.832031 142.273438 125.808594 142.136719 125.808594 C 140.652344 125.738281 139.140625 125.597656 137.914062 125.808594 C 134.640625 126.367188 130.71875 126.832031 127.378906 128.160156 C 125.984375 128.722656 124.710938 129.394531 123.621094 130.304688 C 124.523438 129.839844 125.40625 129.464844 125.960938 129.210938 C 131.253906 126.996094 137.007812 126.625 142.578125 125.832031 Z M 110.53125 129.558594 C 105.984375 124.386719 100.554688 119.191406 95.382812 116.066406 C 93.964844 115.207031 91.992188 115.066406 90.371094 115.484375 C 88.976562 115.859375 87.792969 116.652344 87.492188 117.839844 C 87.492188 117.863281 87.46875 117.910156 87.46875 117.933594 C 87.515625 118.304688 87.65625 118.675781 87.863281 119.074219 C 88.511719 120.308594 89.789062 121.519531 90.4375 122.078125 C 90.578125 122.195312 90.71875 122.3125 90.878906 122.453125 C 92.480469 123.082031 94.59375 123.570312 96.957031 124.199219 C 101.390625 125.386719 106.726562 127.019531 111.53125 130.703125 L 109.164062 129.070312 C 107.214844 127.507812 103.988281 124.503906 101.949219 123.453125 C 99.023438 121.941406 96.308594 120.425781 93.246094 119.027344 C 93.152344 118.980469 93.105469 118.863281 93.152344 118.746094 C 93.199219 118.65625 93.316406 118.609375 93.433594 118.65625 C 96.496094 120.074219 99.210938 121.589844 102.132812 123.105469 C 104.222656 124.199219 107.539062 127.277344 109.511719 128.835938 C 109.789062 129.046875 110.160156 129.304688 110.53125 129.558594 Z M 153.132812 119.726562 C 152.878906 119.308594 152.484375 119.003906 152.019531 118.769531 C 151.046875 118.304688 149.746094 118.1875 148.539062 118.210938 C 145.269531 118.257812 145.105469 118.234375 144.941406 118.28125 C 144.851562 118.304688 144.617188 118.304688 144.222656 118.445312 C 139.839844 119.820312 132.414062 123.128906 127.496094 126.414062 C 126.425781 127.136719 125.476562 127.859375 124.6875 128.535156 C 125.429688 128.089844 126.21875 127.71875 127.03125 127.390625 C 127.957031 127.019531 128.910156 126.714844 129.882812 126.460938 C 132.785156 124.945312 135.546875 123.246094 138.769531 122.476562 C 141.300781 121.871094 143.921875 121.425781 146.40625 120.566406 C 146.519531 120.519531 146.636719 120.589844 146.660156 120.679688 C 146.707031 120.796875 146.636719 120.914062 146.542969 120.9375 C 144.0625 121.800781 141.4375 122.242188 138.886719 122.871094 C 136.21875 123.523438 133.851562 124.804688 131.460938 126.085938 C 133.621094 125.621094 135.800781 125.320312 137.75 124.992188 C 139.050781 124.78125 140.605469 124.898438 142.160156 124.96875 C 143.621094 125.039062 145.058594 125.0625 146.21875 124.621094 C 147.472656 124.152344 148.957031 123.6875 150.28125 122.917969 C 151.53125 122.195312 152.625 121.242188 153.132812 119.726562 C 153.132812 119.75 153.132812 119.75 153.132812 119.726562 Z M 98.050781 116.835938 C 98.976562 117.488281 99.882812 118.164062 100.742188 118.886719 C 101.554688 119.539062 102.34375 120.214844 103.109375 120.890625 C 103.851562 121.542969 104.59375 122.242188 105.3125 122.917969 C 106.355469 123.921875 107.398438 124.96875 108.398438 126.039062 C 106.914062 124.015625 105.265625 122.101562 103.316406 120.449219 C 102.296875 119.609375 101.414062 118.539062 100.253906 117.863281 C 99.582031 117.464844 98.816406 117.140625 98.050781 116.835938 Z M 153.480469 120.960938 C 152.972656 121.894531 152.253906 122.59375 151.417969 123.175781 C 151.695312 123.011719 151.949219 122.871094 152.207031 122.707031 C 152.648438 122.40625 153.019531 122.101562 153.25 121.800781 C 153.390625 121.613281 153.457031 121.449219 153.480469 121.289062 C 153.480469 121.171875 153.480469 121.078125 153.480469 120.960938 Z M 109.394531 118.421875 C 109.765625 119.027344 110.113281 119.65625 110.464844 120.285156 C 110.859375 120.984375 111.230469 121.683594 111.601562 122.40625 L 111.625 122.429688 C 111.53125 122.148438 111.4375 121.847656 111.34375 121.566406 C 111.042969 121.03125 110.742188 120.496094 110.417969 119.960938 C 110.070312 119.421875 109.742188 118.910156 109.394531 118.421875 Z M 87.609375 119.421875 C 87.746094 119.820312 87.957031 120.261719 88.257812 120.703125 C 88.558594 121.171875 89.023438 121.542969 89.625 121.871094 C 88.976562 121.242188 88.140625 120.355469 87.609375 119.421875 Z M 138.632812 114.855469 C 136.078125 115.835938 133.621094 116.976562 131.648438 118.839844 C 131.347656 119.144531 131.042969 119.421875 130.742188 119.726562 C 131.460938 119.214844 132.179688 118.769531 132.878906 118.421875 C 133.226562 118.257812 133.804688 117.957031 134.5 117.558594 C 134.523438 117.511719 134.59375 117.464844 134.640625 117.417969 C 135.476562 116.929688 136.335938 116.464844 137.214844 115.996094 C 137.585938 115.789062 137.9375 115.554688 138.261719 115.34375 C 138.285156 115.207031 138.375 115.089844 138.539062 115.042969 L 138.5625 115.042969 C 138.585938 114.996094 138.609375 114.925781 138.632812 114.855469 Z M 153.273438 119.214844 C 153.367188 118.699219 153.273438 118.304688 153.042969 118.046875 C 152.808594 117.769531 152.4375 117.628906 152.019531 117.511719 C 151.53125 117.394531 150.953125 117.371094 150.371094 117.394531 C 149.003906 117.441406 148.585938 117.488281 147.820312 117.582031 C 147.402344 117.628906 146.472656 117.746094 145.824219 117.933594 C 146.890625 117.722656 147.355469 117.839844 148.539062 117.816406 C 149.816406 117.792969 151.183594 117.933594 152.207031 118.421875 C 152.625 118.609375 152.996094 118.886719 153.273438 119.214844 Z M 141.089844 113.085938 C 141.4375 112.6875 141.789062 112.269531 142.160156 111.804688 C 144.175781 109.195312 146.242188 105.464844 147.703125 101.945312 C 148.679688 99.617188 149.375 97.402344 149.605469 95.65625 C 149.746094 94.582031 149.722656 93.699219 149.445312 93.117188 C 149.375 93 149.328125 92.90625 149.257812 92.90625 C 149.167969 92.882812 149.074219 92.929688 148.957031 93 C 148.792969 93.09375 148.632812 93.230469 148.46875 93.417969 C 146.9375 94.957031 145.058594 98.917969 144.941406 99.199219 C 144.851562 99.382812 144.757812 99.570312 144.664062 99.757812 C 144.570312 99.941406 144.480469 100.105469 144.386719 100.292969 C 143.574219 102.109375 143.25 104.089844 142.761719 106.023438 C 142.136719 108.566406 141.046875 111.105469 140.070312 113.457031 C 140.1875 113.410156 140.300781 113.386719 140.394531 113.339844 C 140.417969 113.296875 140.441406 113.273438 140.441406 113.25 C 140.90625 112.363281 141.300781 111.269531 141.578125 110.800781 C 142.949219 108.589844 144.527344 106 145.199219 103.460938 C 145.570312 102.085938 145.777344 100.316406 146.589844 99.128906 C 146.660156 99.035156 146.777344 99.011719 146.867188 99.082031 C 146.960938 99.152344 146.984375 99.265625 146.914062 99.359375 C 146.125 100.503906 145.917969 102.25 145.570312 103.554688 C 144.898438 106.117188 143.296875 108.75 141.902344 110.988281 C 141.648438 111.40625 141.324219 112.316406 140.929688 113.109375 Z M 143.691406 99.894531 C 142.972656 101.015625 142.273438 102.132812 141.625 103.296875 C 140.558594 105.257812 140.300781 106.910156 139.746094 109.101562 C 139.652344 109.496094 139.492188 111.335938 139.421875 112.921875 C 140.347656 110.683594 141.371094 108.261719 141.972656 105.839844 C 142.460938 103.859375 142.808594 101.832031 143.644531 99.964844 C 143.667969 99.941406 143.691406 99.917969 143.691406 99.894531 Z M 125.082031 111.875 C 125.058594 111.964844 125.035156 112.058594 125.011719 112.128906 L 124.988281 112.269531 C 125.011719 112.152344 125.035156 112.011719 125.082031 111.875 Z M 165.804688 93.117188 C 165.664062 93.117188 165.5 93.140625 165.339844 93.164062 C 164.992188 93.253906 164.597656 93.511719 164.15625 93.859375 C 162.695312 95.003906 161.046875 97.101562 160.304688 97.800781 C 158.167969 99.804688 154.6875 103.925781 151.417969 107.261719 C 151.046875 107.632812 150.699219 108.003906 150.328125 108.355469 C 149.699219 109.078125 149.027344 109.777344 148.332031 110.40625 C 148.585938 110.265625 148.839844 110.148438 149.097656 110.007812 C 150.023438 109.242188 151 108.402344 151.441406 108.027344 C 154.804688 105.210938 157.75 102.039062 161.023438 99.175781 C 161.117188 99.105469 161.230469 99.105469 161.300781 99.199219 C 161.371094 99.289062 161.371094 99.40625 161.277344 99.476562 C 158.007812 102.34375 155.058594 105.535156 151.695312 108.332031 C 151.488281 108.519531 151.160156 108.773438 150.765625 109.101562 C 155.082031 106.792969 159.234375 104.300781 162.855469 101.179688 C 163.527344 100.59375 165.199219 98.636719 166.289062 96.726562 C 166.523438 95.886719 166.683594 95.074219 166.660156 94.398438 C 166.660156 93.722656 166.429688 93.207031 165.804688 93.117188 Z M 150.394531 93.417969 C 150.535156 94.046875 150.535156 94.839844 150.417969 95.773438 C 150.164062 97.566406 149.46875 99.875 148.46875 102.273438 C 147.472656 104.648438 146.21875 107.144531 144.875 109.308594 C 147.261719 106.304688 149.28125 103.066406 150.234375 100.757812 C 150.675781 99.6875 151.277344 96.050781 150.675781 94.023438 C 150.558594 93.792969 150.488281 93.582031 150.394531 93.417969 Z M 126.773438 102.574219 C 126.449219 104.371094 126.125 106.164062 125.800781 107.957031 L 125.777344 108.074219 C 125.847656 107.914062 125.941406 107.75 126.03125 107.585938 L 126.03125 107.5625 C 126.195312 106.699219 126.335938 105.839844 126.472656 104.953125 C 126.566406 104.183594 126.683594 103.367188 126.773438 102.574219 Z M 165.246094 99.757812 C 164.945312 100.128906 164.644531 100.503906 164.316406 100.875 C 164.179688 101.015625 164.0625 101.15625 163.921875 101.316406 C 163.808594 101.433594 163.714844 101.550781 163.597656 101.644531 C 163.550781 101.691406 163.503906 101.738281 163.460938 101.785156 C 163.4375 101.808594 163.390625 101.855469 163.367188 101.878906 C 163.320312 101.921875 163.25 101.96875 163.203125 102.015625 C 163.019531 102.179688 162.832031 102.34375 162.648438 102.484375 C 162.042969 102.972656 161.417969 103.460938 160.789062 103.925781 C 159.722656 104.71875 158.632812 105.464844 157.519531 106.164062 C 157.03125 106.46875 156.542969 106.792969 156.035156 107.097656 L 156.011719 107.121094 C 157.148438 106.585938 158.261719 106.023438 159.328125 105.441406 C 161.996094 103.949219 164.226562 102.296875 165.035156 100.363281 C 165.058594 100.222656 165.128906 100.011719 165.246094 99.757812 Z M 80.136719 89.15625 C 79.695312 89.039062 79.230469 88.945312 78.746094 88.875 C 78.417969 88.828125 78 88.757812 77.605469 88.757812 C 77.234375 88.757812 76.886719 88.804688 76.632812 88.992188 C 76.609375 89.015625 76.585938 89.039062 76.5625 89.0625 C 76.539062 89.085938 76.539062 89.109375 76.539062 89.132812 C 76.355469 89.480469 76.378906 89.898438 76.46875 90.367188 C 76.609375 90.878906 76.863281 91.4375 77.214844 91.996094 C 78.28125 93.746094 80.089844 95.492188 80.925781 96.214844 C 82.386719 97.472656 84.335938 98.054688 85.890625 99.175781 C 90.042969 102.15625 94.730469 104.230469 99.070312 106.792969 L 99.046875 106.769531 C 98.90625 106.652344 98.746094 106.539062 98.582031 106.421875 C 97.214844 105.394531 95.125 104.230469 94.3125 103.742188 C 91.785156 102.179688 89.117188 99.988281 87.027344 97.890625 C 85.242188 96.097656 82.921875 94.933594 81.15625 93.09375 C 81.085938 93.023438 81.085938 92.882812 81.15625 92.8125 C 81.226562 92.742188 81.367188 92.742188 81.4375 92.8125 C 83.222656 94.652344 85.519531 95.820312 87.304688 97.613281 C 89.371094 99.6875 92.015625 101.855469 94.523438 103.390625 C 95.125 103.765625 96.472656 104.535156 97.679688 105.300781 C 97.632812 105.234375 97.585938 105.1875 97.539062 105.140625 C 93.386719 100.128906 89 95.191406 83.871094 91.066406 C 83.40625 90.691406 81.785156 89.761719 80.136719 89.15625 Z M 78.535156 95.050781 C 78.929688 95.585938 79.347656 96.074219 79.8125 96.519531 C 81.621094 98.195312 83.757812 99.917969 85.914062 101.132812 C 86.796875 101.644531 87.816406 101.902344 88.675781 102.414062 C 90.972656 103.8125 93.222656 104.976562 95.730469 105.863281 C 95.753906 105.863281 95.777344 105.886719 95.796875 105.886719 C 92.296875 103.972656 88.675781 102.179688 85.378906 99.828125 C 83.800781 98.683594 81.832031 98.101562 80.34375 96.820312 C 79.925781 96.449219 79.253906 95.820312 78.535156 95.050781 Z M 89.230469 94.746094 C 92.410156 97.847656 95.335938 101.203125 98.164062 104.601562 C 98.28125 104.742188 98.398438 104.882812 98.558594 105.046875 C 97.421875 103.320312 96.191406 101.550781 94.871094 100.082031 C 93.640625 98.730469 92.480469 97.054688 90.996094 95.957031 C 90.390625 95.539062 89.8125 95.144531 89.230469 94.746094 Z M 164.039062 93.441406 C 162.183594 94.046875 160.628906 95.46875 159.234375 97.078125 C 157.542969 99.035156 156.105469 101.339844 154.664062 102.996094 C 154.203125 103.53125 153.738281 104.113281 153.273438 104.71875 C 155.871094 101.945312 158.378906 99.058594 160.046875 97.472656 C 160.789062 96.773438 162.460938 94.675781 163.945312 93.511719 C 163.96875 93.511719 163.992188 93.488281 164.039062 93.441406 Z M 111.296875 87.105469 C 111.207031 87.964844 111.089844 88.804688 111.042969 89.574219 C 110.835938 92.324219 110.136719 94.863281 109.605469 97.542969 C 109.394531 98.523438 109.257812 99.40625 109.164062 100.199219 C 109.441406 98.917969 109.765625 97.660156 110.09375 96.355469 C 110.902344 93 112.085938 90.832031 111.320312 87.152344 C 111.296875 87.152344 111.296875 87.128906 111.296875 87.105469 Z M 108.910156 81.046875 C 108.886719 81.046875 108.886719 81.070312 108.863281 81.070312 C 108.492188 81.277344 108.164062 81.769531 108.050781 82.046875 C 107.214844 83.980469 106.820312 85.9375 106.984375 88.058594 C 107.214844 91.179688 108.257812 94.304688 108.699219 97.425781 C 108.722656 96.796875 108.746094 96.191406 108.746094 96.050781 C 108.839844 92.671875 108.398438 89.246094 108.328125 85.820312 C 108.328125 85.707031 108.421875 85.613281 108.539062 85.613281 C 108.652344 85.613281 108.746094 85.707031 108.746094 85.820312 C 108.816406 89.132812 109.234375 92.488281 109.164062 95.75 C 109.605469 93.675781 110.09375 91.671875 110.253906 89.503906 C 110.347656 88.152344 110.648438 86.519531 110.625 84.960938 C 110.625 84.261719 110.53125 83.5625 110.347656 82.910156 C 110.253906 82.675781 110.136719 82.445312 110.023438 82.1875 C 109.859375 81.882812 109.699219 81.558594 109.488281 81.324219 C 109.347656 81.183594 109.210938 81.070312 109.023438 81.023438 C 108.976562 81.070312 108.953125 81.046875 108.910156 81.046875 Z M 106.65625 83.492188 C 106.542969 83.75 106.425781 83.980469 106.308594 84.191406 C 105.800781 85.167969 105.914062 86.40625 105.890625 87.5 C 105.84375 90.179688 106.519531 93.488281 107.609375 95.957031 C 107.121094 93.347656 106.355469 90.738281 106.148438 88.128906 C 106.03125 86.519531 106.21875 84.984375 106.65625 83.492188 Z M 166.777344 93.253906 C 166.894531 93.441406 166.984375 93.652344 167.03125 93.90625 C 167.101562 94.28125 167.101562 94.746094 167.054688 95.234375 C 167.101562 95.144531 167.125 95.027344 167.148438 94.933594 C 167.335938 94.328125 167.378906 93.792969 167.078125 93.464844 C 167.007812 93.371094 166.894531 93.300781 166.777344 93.253906 Z M 100.671875 93.953125 C 99.046875 91.160156 97.46875 88.292969 96.285156 85.261719 C 95.335938 82.886719 94.476562 80.160156 92.503906 78.4375 C 92.226562 78.203125 91.878906 77.804688 91.507812 77.550781 C 91.296875 77.410156 91.113281 77.292969 90.925781 77.457031 C 90.855469 77.527344 90.855469 77.667969 90.832031 77.851562 C 90.832031 78.132812 90.855469 78.480469 90.925781 78.855469 C 91.273438 80.742188 92.363281 83.46875 92.691406 84.050781 C 94.128906 86.730469 96.496094 89.480469 98.953125 92.207031 C 96.820312 89.199219 94.730469 86.359375 93.082031 82.792969 C 93.039062 82.699219 93.082031 82.558594 93.175781 82.511719 C 93.269531 82.464844 93.410156 82.511719 93.457031 82.605469 C 95.449219 86.964844 98.074219 90.203125 100.671875 93.953125 Z M 90.972656 81.976562 C 91.042969 82.234375 91.113281 82.464844 91.179688 82.746094 C 92.273438 87.128906 95.777344 90.855469 99.347656 93.839844 C 96.519531 90.714844 93.640625 87.546875 91.96875 84.472656 C 91.808594 84.121094 91.367188 83.140625 90.972656 81.976562 Z M 93.640625 78.4375 C 95.3125 80.230469 96.148438 82.746094 97.027344 84.984375 C 98.140625 87.804688 99.582031 90.484375 101.089844 93.09375 C 99.511719 88.6875 97.769531 84.097656 95.265625 80.253906 C 94.847656 79.554688 94.289062 78.925781 93.640625 78.4375 Z M 123.109375 83.210938 C 123.363281 83.726562 123.597656 84.238281 123.828125 84.773438 C 124.222656 85.660156 126.171875 89.109375 127.167969 91.601562 C 127.078125 91.296875 126.984375 90.996094 126.84375 90.644531 C 125.984375 88.246094 124.292969 85.144531 123.109375 83.210938 Z M 139.304688 90.574219 C 139.210938 90.667969 139.140625 90.761719 139.050781 90.878906 C 139.140625 90.808594 139.257812 90.714844 139.351562 90.644531 C 139.351562 90.621094 139.328125 90.597656 139.304688 90.574219 Z M 171.625 77.480469 C 171.1875 76.78125 170.328125 76.246094 169.285156 76.058594 C 167.707031 75.757812 165.476562 76.152344 163.945312 76.476562 C 161.8125 76.921875 159.886719 77.621094 158.03125 78.4375 C 151.53125 81.882812 144.640625 86.359375 141.554688 88.898438 C 141.136719 89.246094 140.8125 89.527344 140.535156 89.808594 C 140.8125 89.644531 141.066406 89.480469 141.347656 89.339844 C 143.480469 88.035156 145.664062 87.058594 147.914062 86.265625 C 152.878906 83.539062 157.9375 81.09375 163.832031 79.042969 C 163.945312 78.996094 164.0625 79.066406 164.085938 79.15625 C 164.132812 79.273438 164.0625 79.390625 163.96875 79.414062 C 158.863281 81.207031 154.386719 83.257812 150.070312 85.566406 C 155.292969 83.980469 160.8125 83.1875 166.589844 81.746094 C 168.167969 81.347656 170.398438 79.601562 171.511719 77.691406 C 171.558594 77.621094 171.582031 77.550781 171.625 77.480469 Z M 165.429688 82.839844 C 158.863281 84.402344 152.601562 85.191406 146.800781 87.523438 C 147.308594 87.429688 147.84375 87.359375 148.378906 87.289062 C 150.628906 87.011719 152.996094 86.847656 155.664062 86.148438 C 159.003906 85.261719 162.300781 84.167969 165.429688 82.839844 Z M 171.953125 78.503906 C 171.371094 79.367188 170.605469 80.183594 169.792969 80.835938 C 169.980469 80.742188 170.164062 80.648438 170.351562 80.554688 C 171.488281 79.972656 171.976562 79.226562 171.953125 78.503906 Z M 131.160156 65.574219 C 131.160156 65.597656 131.136719 65.621094 131.136719 65.644531 C 131.113281 65.667969 131.113281 65.691406 131.089844 65.734375 L 131.089844 65.757812 C 131.089844 66.855469 131.066406 67.972656 131.042969 69.066406 C 130.996094 70.09375 130.953125 71.117188 130.882812 72.144531 C 130.8125 73.144531 130.742188 74.125 130.648438 75.125 C 130.535156 76.617188 130.371094 78.085938 130.210938 79.554688 L 130.210938 79.601562 C 130.230469 79.554688 130.230469 79.507812 130.230469 79.460938 C 130.835938 77.015625 131.460938 74.542969 131.414062 72.355469 C 131.371094 70.09375 131.300781 67.832031 131.160156 65.574219 Z M 118.910156 60.679688 C 118.792969 60.144531 118.652344 59.632812 118.492188 59.117188 C 118.257812 58.347656 117.539062 56.460938 116.589844 55.414062 C 116.03125 54.785156 115.382812 54.433594 114.6875 54.992188 C 114.59375 55.0625 114.546875 55.203125 114.476562 55.367188 C 114.382812 55.667969 114.339844 56.113281 114.339844 56.601562 C 114.316406 58.558594 114.871094 61.519531 115.058594 62.265625 C 115.519531 64.175781 116.171875 66.0625 116.496094 67.996094 C 116.542969 68.347656 116.636719 68.71875 116.726562 69.089844 C 117.5625 71.027344 118.492188 72.984375 119.351562 74.613281 C 119.953125 75.757812 120.535156 76.78125 121.042969 77.527344 C 120.972656 77.246094 120.882812 76.945312 120.8125 76.664062 C 120.300781 75.640625 119.746094 74.660156 119.511719 74.148438 C 117.703125 70.234375 116.449219 64.058594 115.960938 59.746094 C 115.9375 59.632812 116.03125 59.539062 116.148438 59.515625 C 116.265625 59.492188 116.355469 59.585938 116.378906 59.699219 C 116.84375 63.964844 118.121094 70.09375 119.90625 73.960938 C 120.023438 74.21875 120.207031 74.566406 120.417969 74.988281 C 119.394531 70.488281 118.957031 66.226562 118.910156 60.679688 Z M 171.8125 77.085938 C 172.277344 76.058594 172.390625 75.011719 171.789062 74.148438 C 171.671875 73.960938 171.464844 73.84375 171.230469 73.773438 C 170.929688 73.683594 170.535156 73.660156 170.09375 73.707031 C 168.609375 73.820312 166.5 74.496094 164.0625 75.546875 C 163.226562 75.894531 162.34375 76.292969 161.464844 76.734375 C 162.253906 76.5 163.042969 76.292969 163.875 76.105469 C 165.429688 75.777344 167.730469 75.382812 169.375 75.6875 C 170.421875 75.847656 171.300781 76.410156 171.8125 77.085938 Z M 114.941406 71.65625 C 116.449219 73.261719 117.796875 74.800781 119.070312 76.5 C 118.304688 75.289062 117.46875 74.148438 116.402344 73.054688 C 115.914062 72.5625 115.429688 72.097656 114.941406 71.65625 Z M 119.953125 66.34375 C 120.207031 69.722656 120.695312 72.75 121.507812 75.941406 C 120.765625 72.796875 120.394531 69.558594 119.953125 66.34375 Z M 154.757812 55.460938 C 154.710938 55.039062 154.640625 54.621094 154.527344 54.203125 C 154.109375 52.335938 153.226562 50.683594 151.324219 49.449219 C 151.113281 49.308594 150.8125 49.332031 150.511719 49.402344 C 149.628906 50.148438 148.957031 51.21875 148.445312 52.40625 C 148.308594 52.757812 148.167969 53.105469 148.050781 53.480469 C 147.960938 54.574219 147.9375 55.578125 148.007812 55.925781 C 148.378906 57.671875 148.238281 59.746094 148.398438 61.566406 C 148.632812 64.222656 149.28125 66.714844 149.421875 69.347656 C 149.46875 70.304688 149.234375 71.980469 149.144531 73.472656 C 149.144531 73.542969 149.144531 73.636719 149.121094 73.707031 C 149.167969 73.867188 149.1875 74.054688 149.234375 74.21875 C 149.539062 72.914062 149.886719 71.609375 149.976562 70.441406 C 150.371094 65.597656 150.765625 60.84375 151.394531 55.996094 C 151.417969 55.878906 151.507812 55.808594 151.625 55.808594 C 151.742188 55.832031 151.8125 55.925781 151.8125 56.042969 C 151.183594 60.890625 150.8125 65.621094 150.394531 70.464844 C 150.304688 71.726562 149.910156 73.121094 149.582031 74.519531 C 150.675781 71.65625 151.578125 68.765625 152.507812 65.804688 C 153.226562 63.476562 154.15625 61.007812 154.410156 58.558594 C 154.503906 57.582031 154.664062 56.53125 154.757812 55.460938 Z M 154.988281 60.191406 C 154.59375 62.171875 153.875 64.152344 153.296875 66.039062 C 152.601562 68.300781 151.925781 70.488281 151.136719 72.65625 C 151.417969 72.191406 151.695312 71.746094 151.902344 71.328125 C 153.273438 68.625 153.574219 65.898438 154.59375 63.6875 C 154.988281 62.824219 154.988281 61.238281 154.96875 60.308594 C 154.988281 60.261719 154.988281 60.214844 154.988281 60.191406 Z M 147.589844 55.320312 C 147.285156 56.765625 147.171875 58.210938 147.171875 59.398438 C 147.171875 63.054688 147.425781 66.367188 148.121094 69.882812 C 148.261719 70.558594 148.5625 71.46875 148.839844 72.492188 C 148.933594 71.304688 149.074219 70.09375 149.050781 69.371094 C 148.910156 66.738281 148.261719 64.269531 148.027344 61.613281 C 147.890625 59.792969 148.007812 57.742188 147.632812 56.019531 C 147.589844 55.855469 147.589844 55.625 147.589844 55.320312 Z M 168.378906 65.363281 C 166.824219 66.410156 165.386719 67.414062 164.179688 68.300781 C 164.664062 68.042969 165.152344 67.785156 165.640625 67.554688 C 165.871094 67.390625 166.105469 67.203125 166.335938 67.042969 C 167.03125 66.480469 167.707031 65.921875 168.378906 65.363281 Z M 185.78125 61.679688 C 183.832031 62.3125 181.71875 62.660156 179.910156 63.101562 C 175.917969 64.105469 171.417969 65.667969 167.054688 67.738281 C 170.398438 66.527344 173.832031 65.621094 176.730469 64.828125 C 178.402344 64.363281 180.421875 63.988281 182.300781 63.359375 C 183.578125 62.941406 184.78125 62.402344 185.78125 61.679688 Z M 118.769531 58.582031 C 118.5625 57.582031 118.121094 56.484375 117.492188 55.601562 C 116.914062 54.761719 116.195312 54.085938 115.335938 53.875 C 114.476562 53.664062 114.105469 54.339844 113.875 55.203125 C 113.457031 56.835938 113.640625 59.210938 113.640625 59.886719 C 113.640625 60.46875 113.921875 61.542969 114.359375 62.894531 C 114.777344 64.152344 115.335938 65.644531 115.960938 67.179688 C 115.613281 65.550781 115.082031 63.941406 114.6875 62.3125 C 114.5 61.566406 113.945312 58.558594 113.96875 56.554688 C 113.96875 56.019531 114.011719 55.554688 114.105469 55.226562 C 114.175781 54.972656 114.292969 54.761719 114.429688 54.644531 C 114.777344 54.363281 115.148438 54.25 115.476562 54.273438 C 115.960938 54.316406 116.449219 54.621094 116.867188 55.109375 C 117.75 56.066406 118.445312 57.652344 118.769531 58.582031 Z M 92.851562 59.769531 C 92.621094 59.722656 92.386719 59.699219 92.15625 59.675781 C 90.414062 59.421875 89.164062 60.167969 88.511719 61.261719 C 87.5625 62.917969 88.003906 65.316406 90.324219 66.25 C 92.457031 67.109375 94.335938 66.761719 96.078125 66.085938 C 96.496094 65.921875 96.890625 65.734375 97.285156 65.550781 C 97.214844 65.550781 97.144531 65.574219 97.074219 65.574219 C 96.191406 65.691406 95.402344 65.898438 94.617188 66.015625 C 93.386719 66.203125 92.203125 66.203125 90.878906 65.316406 C 89.953125 64.710938 89.324219 64.128906 88.953125 63.59375 C 88.558594 63.03125 88.421875 62.496094 88.511719 62.03125 C 88.628906 61.472656 89.023438 61.007812 89.671875 60.632812 C 90.484375 60.214844 91.574219 59.910156 92.851562 59.769531 Z M 187.9375 55.179688 C 186.847656 55.390625 185.527344 55.832031 184.085938 56.4375 C 180.328125 58 175.664062 60.679688 171.441406 63.359375 C 170.511719 64.128906 169.585938 64.898438 168.65625 65.667969 C 169.980469 64.851562 171.347656 64.105469 172.671875 63.40625 C 177.078125 61.121094 182.207031 60.003906 186.617188 57.582031 C 186.707031 57.535156 186.847656 57.558594 186.894531 57.652344 C 186.941406 57.742188 186.917969 57.882812 186.824219 57.929688 C 182.417969 60.351562 177.289062 61.472656 172.878906 63.753906 C 171.511719 64.476562 170.070312 65.269531 168.703125 66.109375 C 172.484375 64.453125 176.3125 63.171875 179.746094 62.3125 C 182.113281 61.726562 185.039062 61.332031 187.335938 60.191406 C 188.03125 59.328125 188.449219 58.535156 188.679688 57.835938 C 188.914062 57.089844 188.890625 56.460938 188.679688 55.972656 C 188.496094 55.644531 188.261719 55.390625 187.9375 55.179688 Z M 99.71875 61.332031 C 97.46875 60.632812 95.078125 60.074219 93.570312 60.144531 C 92.085938 60.214844 90.761719 60.515625 89.929688 61.027344 C 89.394531 61.332031 89.046875 61.703125 88.953125 62.171875 C 88.882812 62.542969 89 62.964844 89.324219 63.40625 C 89.671875 63.894531 90.277344 64.429688 91.15625 65.015625 C 92.386719 65.804688 93.476562 65.828125 94.59375 65.644531 C 95.382812 65.527344 96.191406 65.316406 97.050781 65.199219 C 97.609375 65.128906 98.140625 65.035156 98.628906 64.945312 C 98.976562 64.78125 99.324219 64.617188 99.652344 64.453125 C 101.019531 63.824219 102.386719 63.335938 103.851562 63.335938 C 103.78125 63.289062 103.6875 63.242188 103.59375 63.171875 C 103.175781 63.101562 102.757812 63.078125 102.433594 63.054688 C 101.761719 63.03125 101.042969 62.871094 100.324219 62.777344 C 99.652344 62.683594 98.976562 62.613281 98.328125 62.777344 C 97.308594 63.03125 95.195312 63.453125 93.59375 63.546875 C 92.875 63.570312 92.25 63.546875 91.878906 63.382812 C 91.785156 63.335938 91.714844 63.21875 91.761719 63.125 C 91.808594 63.011719 91.921875 62.964844 92.015625 63.011719 C 92.363281 63.148438 92.945312 63.171875 93.59375 63.125 C 95.171875 63.054688 97.261719 62.636719 98.257812 62.378906 C 98.953125 62.195312 99.695312 62.265625 100.417969 62.355469 C 101.113281 62.449219 101.808594 62.613281 102.480469 62.636719 C 102.574219 62.636719 102.667969 62.636719 102.757812 62.660156 C 101.785156 62.101562 100.765625 61.679688 99.71875 61.332031 Z M 176.476562 47.304688 C 176.382812 47.070312 176.265625 46.863281 176.128906 46.652344 C 175.664062 45.929688 174.992188 45.488281 174.0625 45.671875 C 172.832031 45.929688 171.859375 46.699219 171 47.605469 C 170.117188 48.539062 169.375 49.632812 168.609375 50.542969 C 168.402344 50.800781 168.191406 51.054688 167.984375 51.3125 C 167.335938 52.5 166.636719 53.664062 166.128906 54.855469 C 164.992188 57.535156 164.203125 59.65625 163.644531 62.21875 C 163.550781 62.589844 163.203125 64.128906 163.132812 64.5 C 163.621094 63.917969 164.527344 62.636719 164.921875 62.054688 C 167.566406 58.117188 169.375 53.757812 172.300781 49.984375 C 172.625 49.566406 172.949219 49.167969 173.273438 48.773438 C 173.34375 48.679688 173.484375 48.679688 173.550781 48.75 C 173.644531 48.820312 173.644531 48.957031 173.574219 49.027344 C 170.070312 53.058594 168.167969 57.90625 165.246094 62.265625 C 164.710938 63.054688 164.015625 63.847656 163.34375 64.640625 C 163.320312 64.710938 163.320312 64.757812 163.296875 64.828125 C 164.480469 63.777344 165.734375 62.730469 167.007812 61.660156 C 170.953125 58.328125 174.898438 54.714844 176.265625 49.261719 C 176.476562 48.5625 176.523438 47.886719 176.476562 47.304688 Z M 176.988281 49.796875 C 175.523438 55.226562 171.582031 58.910156 167.589844 62.289062 C 168.472656 61.703125 169.351562 61.097656 170.257812 60.375 C 171.695312 59.234375 173.714844 56.976562 175.152344 54.714844 C 176.105469 53.222656 176.824219 51.730469 176.964844 50.519531 C 176.988281 50.332031 177.011719 50.078125 176.988281 49.796875 Z M 101.460938 46.746094 C 100.996094 46.234375 100.4375 45.882812 99.789062 45.929688 C 99.71875 46.210938 99.695312 46.558594 99.695312 46.929688 C 99.742188 48.304688 100.230469 50.007812 100.347656 50.472656 C 101.25 54.132812 103.757812 58 105.867188 61.191406 C 105.660156 60.492188 105.519531 59.816406 105.382812 59.09375 C 105.3125 58.675781 105.242188 58.257812 105.171875 57.835938 C 105.125 57.742188 105.078125 57.671875 105.035156 57.582031 C 103.480469 54.644531 101.320312 51.546875 100.671875 49.027344 C 100.648438 48.914062 100.71875 48.820312 100.8125 48.773438 C 100.925781 48.75 101.019531 48.820312 101.066406 48.914062 C 101.644531 51.171875 103.480469 53.921875 104.964844 56.601562 C 104.683594 54.878906 104.292969 53.058594 103.363281 51.007812 C 103.152344 50.496094 102.363281 48.261719 101.460938 46.746094 Z M 105.636719 55.644531 C 105.84375 56.789062 106.007812 57.882812 106.195312 58.933594 C 106.195312 58.957031 106.195312 58.980469 106.21875 59 C 106.449219 59.539062 106.65625 60.074219 106.820312 60.585938 C 106.820312 60.5625 106.820312 60.5625 106.820312 60.539062 C 106.449219 58.910156 106.101562 57.253906 105.636719 55.644531 Z M 188.171875 59.699219 C 188.195312 59.675781 188.242188 59.65625 188.261719 59.632812 C 188.960938 59.164062 189.957031 58.347656 190.46875 57.394531 C 190.769531 56.835938 190.886719 56.253906 190.605469 55.667969 C 190.375 55.226562 189.886719 55.039062 189.214844 55.039062 C 189.007812 55.039062 188.75 55.039062 188.519531 55.085938 C 188.726562 55.296875 188.914062 55.53125 189.027344 55.808594 C 189.445312 56.71875 189.261719 58.070312 188.171875 59.699219 Z M 186.382812 54.738281 C 185.246094 54.667969 183.855469 55.015625 182.324219 55.785156 C 180.398438 56.789062 178.585938 57.929688 176.847656 59.164062 C 179.285156 57.789062 181.671875 56.554688 183.785156 55.667969 C 184.714844 55.296875 185.570312 54.972656 186.382812 54.738281 Z M 128.328125 51.730469 C 128.886719 53.664062 129.464844 55.578125 130.117188 57.511719 C 130.230469 57.835938 130.324219 58.1875 130.417969 58.535156 C 130.210938 57.207031 129.929688 55.878906 129.605469 54.550781 C 129.375 53.550781 128.886719 52.710938 128.421875 51.847656 C 128.375 51.824219 128.351562 51.777344 128.328125 51.730469 Z M 98.90625 46.234375 C 98.628906 46.464844 98.492188 46.816406 98.445312 47.210938 C 98.328125 48.097656 98.582031 49.191406 98.769531 49.84375 C 99.300781 51.800781 100.460938 53.992188 101.738281 56.019531 C 100.789062 54.25 100 52.429688 99.558594 50.683594 C 99.417969 50.078125 98.746094 47.722656 98.90625 46.234375 Z M 154.828125 53.710938 C 154.828125 52.570312 154.664062 51.453125 154.222656 50.449219 C 153.96875 49.867188 153.25 49.214844 152.484375 48.9375 C 152.019531 48.773438 151.554688 48.703125 151.183594 48.9375 C 151.160156 48.9375 151.160156 48.957031 151.136719 48.957031 C 151.277344 48.980469 151.417969 49.027344 151.53125 49.097656 C 153.414062 50.308594 154.339844 51.917969 154.828125 53.710938 Z M 131.113281 52.035156 C 131.042969 52.246094 130.976562 52.476562 130.929688 52.710938 C 130.929688 52.78125 130.90625 52.875 130.90625 52.945312 C 130.90625 52.988281 130.90625 53.035156 130.90625 53.082031 C 130.976562 52.734375 131.042969 52.382812 131.113281 52.035156 Z M 88.699219 36.5625 C 88.929688 37.027344 89.09375 37.402344 89.164062 37.609375 C 91.273438 43.25 91.667969 46.886719 94.082031 51.265625 C 93.734375 50.242188 93.5 49.121094 93.292969 48.003906 C 92.945312 46.117188 92.710938 44.183594 92.085938 42.433594 C 91.273438 40.222656 90.136719 38.308594 88.699219 36.5625 Z M 143.480469 23.023438 C 143.296875 23.140625 143.085938 23.28125 142.878906 23.464844 C 140.464844 25.425781 137.214844 30.597656 136.683594 31.761719 C 134.0625 37.542969 132.089844 44.320312 131.183594 50.660156 C 131.507812 49.796875 131.855469 48.9375 132.179688 48.050781 C 132.4375 47.210938 132.738281 46.347656 133.039062 45.511719 C 135.128906 39.21875 137.773438 33.859375 141.671875 28.3125 C 141.742188 28.21875 141.855469 28.195312 141.949219 28.265625 C 142.042969 28.335938 142.066406 28.453125 141.996094 28.546875 C 139.375 32.273438 137.332031 35.910156 135.636719 39.800781 C 136.960938 37.472656 138.445312 35.605469 140 34.675781 C 141.695312 33.648438 143.574219 30.785156 144.503906 27.988281 C 145.035156 26.378906 145.246094 24.796875 144.875 23.605469 C 144.828125 23.582031 144.78125 23.558594 144.734375 23.535156 C 144.480469 23.421875 144.199219 23.328125 144.039062 23.210938 C 143.851562 23.117188 143.667969 23.046875 143.480469 23.023438 Z M 86.214844 41.710938 C 87.191406 44.113281 88.464844 46.558594 90.019531 48.539062 C 90.460938 49.097656 90.972656 49.632812 91.507812 50.171875 C 91.066406 49.519531 90.71875 49.003906 90.601562 48.796875 C 89.117188 46.324219 87.492188 44.160156 86.214844 41.710938 Z M 176.082031 45.953125 C 175.664062 45.160156 174.992188 44.671875 174.179688 44.507812 C 172.554688 44.160156 171.09375 45.394531 169.609375 47.5625 C 169.121094 48.28125 168.539062 49.703125 168.261719 50.285156 C 168.796875 49.613281 170.070312 48.027344 170.699219 47.375 C 171.605469 46.394531 172.671875 45.582031 173.96875 45.324219 C 174.875 45.113281 175.570312 45.394531 176.082031 45.953125 Z M 86.054688 33.953125 C 85.84375 33.835938 85.660156 33.71875 85.472656 33.648438 C 85.265625 33.578125 85.078125 33.53125 84.960938 33.695312 C 84.800781 33.953125 84.753906 34.277344 84.753906 34.628906 C 84.753906 34.746094 84.777344 34.863281 84.777344 35 C 84.941406 36.328125 85.519531 37.9375 85.707031 38.496094 C 86.957031 42.292969 89.277344 45.042969 91.273438 48.375 C 91.34375 48.492188 91.460938 48.679688 91.644531 48.9375 C 89.441406 44.671875 87.609375 40.035156 84.960938 35.957031 C 84.894531 35.863281 84.941406 35.746094 85.03125 35.675781 C 85.125 35.605469 85.242188 35.652344 85.3125 35.746094 C 87.910156 39.777344 89.742188 44.367188 91.921875 48.585938 C 90.648438 45.394531 90.019531 42.226562 88.398438 37.890625 C 88.1875 37.308594 87.144531 35.070312 86.054688 33.953125 Z M 141.253906 34.746094 C 140.976562 35 140.695312 35.210938 140.417969 35.375 C 138.445312 36.5625 136.636719 39.359375 135.105469 42.621094 C 134.292969 44.390625 133.574219 46.300781 132.96875 48.167969 C 133.78125 46.210938 134.292969 44.066406 135.476562 42.269531 C 137.214844 39.613281 139.234375 37.191406 141.253906 34.746094 Z M 100.578125 45.625 C 100.554688 45.601562 100.53125 45.582031 100.507812 45.582031 C 100.394531 45.488281 100.253906 45.441406 100.136719 45.464844 C 100.089844 45.488281 100.042969 45.488281 100.023438 45.535156 C 100.207031 45.511719 100.394531 45.558594 100.578125 45.625 Z M 141.460938 23.628906 C 141.324219 23.699219 141.207031 23.792969 141.066406 23.886719 C 139.328125 25.097656 137.566406 27.148438 136.820312 28.035156 C 133.734375 31.667969 131.878906 39.5 131.347656 45.253906 C 132.414062 40.476562 134.015625 35.652344 135.941406 31.367188 C 136.425781 30.339844 139.097656 26.03125 141.460938 23.628906 Z M 123.734375 40.335938 C 123.550781 40.152344 123.363281 39.988281 123.15625 39.824219 C 123.109375 39.800781 123.0625 39.777344 123.039062 39.753906 C 120.324219 38.378906 116.84375 39.195312 113.457031 39.800781 C 112.0625 40.058594 110.671875 40.265625 109.347656 40.3125 C 110.371094 40.546875 111.53125 40.546875 112.785156 40.429688 C 115.128906 40.222656 117.703125 39.636719 119.929688 39.589844 C 121.390625 39.546875 122.691406 39.730469 123.734375 40.335938 Z M 111.625 34 C 110.742188 33.8125 109.859375 33.671875 109.046875 33.578125 C 107.957031 33.464844 106.796875 33.417969 105.777344 33.71875 C 104.800781 34.023438 104.011719 34.628906 103.640625 35.769531 C 103.433594 36.421875 103.386719 36.933594 103.480469 37.378906 C 103.664062 37.65625 103.898438 37.914062 104.175781 38.125 C 106.632812 40.105469 109.953125 39.589844 113.339844 38.984375 C 116.054688 38.496094 118.816406 37.9375 121.230469 38.308594 C 121.019531 38.171875 120.8125 38.03125 120.601562 37.914062 C 120 37.679688 119.394531 37.472656 118.816406 37.191406 C 117.957031 36.773438 116.660156 36.65625 115.289062 36.632812 C 113.179688 36.609375 110.835938 36.886719 109.464844 36.910156 C 108.304688 36.933594 107.097656 36.304688 105.984375 36.027344 C 105.867188 36.003906 105.800781 35.886719 105.84375 35.769531 C 105.867188 35.652344 105.984375 35.605469 106.101562 35.628906 C 107.167969 35.910156 108.351562 36.515625 109.464844 36.515625 C 110.859375 36.492188 113.179688 36.210938 115.3125 36.234375 C 116.308594 36.234375 117.261719 36.304688 118.050781 36.515625 C 115.894531 35.492188 113.78125 34.605469 111.625 34 Z M 106.679688 33.136719 C 106.125 33.089844 105.542969 33.066406 104.988281 33.066406 C 102.851562 33.066406 102.363281 34.976562 103.039062 36.609375 C 103.0625 36.328125 103.132812 36.003906 103.246094 35.652344 C 103.664062 34.347656 104.570312 33.671875 105.660156 33.347656 C 105.984375 33.230469 106.332031 33.160156 106.679688 33.136719 Z M 145.453125 27.636719 C 145.40625 27.824219 145.335938 28.035156 145.269531 28.21875 C 144.875 29.457031 144.292969 30.691406 143.621094 31.785156 C 143.691406 31.714844 143.738281 31.621094 143.804688 31.550781 C 144.640625 30.457031 145.222656 29.058594 145.453125 27.636719 Z M 114.476562 22.675781 C 113.246094 20.34375 112.0625 17.992188 110.765625 15.730469 C 110.207031 14.773438 109.535156 13.050781 108.628906 11.722656 C 108.074219 10.929688 107.46875 10.253906 106.703125 10.066406 C 106.65625 10.066406 106.632812 10.046875 106.589844 10.066406 C 106.496094 10.230469 106.402344 10.441406 106.332031 10.652344 C 106.285156 10.765625 106.238281 10.90625 106.21875 11.023438 C 106.125 12.5625 106.726562 14.960938 106.867188 15.40625 C 107.980469 19.132812 110.648438 21.695312 113.363281 24.140625 C 113.433594 24.164062 113.480469 24.1875 113.527344 24.234375 C 113.6875 24.421875 113.875 24.585938 114.058594 24.773438 C 114.6875 25.332031 115.3125 25.890625 115.894531 26.449219 C 115.914062 26.472656 115.9375 26.496094 115.9375 26.496094 C 116.308594 26.820312 116.679688 27.148438 117.054688 27.496094 C 116.890625 27.148438 116.726562 26.777344 116.566406 26.425781 C 116.171875 25.773438 115.800781 25.074219 115.40625 24.398438 C 114.175781 22.746094 111.949219 20.742188 110.347656 18.667969 C 109.117188 17.105469 108.257812 15.519531 108.304688 14.054688 C 108.304688 13.9375 108.398438 13.84375 108.515625 13.867188 C 108.628906 13.867188 108.722656 13.960938 108.699219 14.078125 C 108.628906 15.472656 109.488281 16.941406 110.648438 18.410156 C 111.832031 19.902344 113.292969 21.371094 114.476562 22.675781 Z M 118.191406 27.453125 C 117.980469 26.867188 117.820312 26.355469 117.609375 26.054688 C 116.101562 23.628906 114.476562 19.085938 112.621094 15.289062 C 111.390625 12.792969 110.070312 10.652344 108.582031 9.671875 C 108.121094 9.371094 107.726562 9.277344 107.398438 9.347656 C 107.355469 9.347656 107.308594 9.371094 107.261719 9.390625 C 108.027344 9.71875 108.699219 10.394531 109.28125 11.257812 C 110.207031 12.609375 110.902344 14.332031 111.460938 15.3125 C 113.503906 18.898438 115.289062 22.746094 117.402344 26.261719 C 117.679688 26.707031 117.933594 27.101562 118.191406 27.453125 Z M 105.9375 15.03125 C 105.984375 15.683594 106.101562 16.242188 106.21875 16.59375 C 107.65625 20.554688 109.71875 22.582031 112.644531 25.355469 C 113.292969 25.984375 114.175781 26.378906 115.035156 26.800781 C 114.453125 26.285156 113.921875 25.773438 113.410156 25.285156 C 110.394531 22.582031 107.332031 19.785156 106.101562 15.660156 C 106.054688 15.519531 106.007812 15.3125 105.9375 15.03125 Z M 132.042969 9.183594 C 132.019531 9.390625 131.972656 9.625 131.925781 9.835938 C 130.347656 16.195312 128.699219 19.644531 127.867188 24.46875 C 128.351562 22.976562 128.910156 21.507812 129.421875 19.902344 C 129.746094 18.921875 130.417969 18.039062 130.671875 17.058594 C 131.324219 14.472656 131.832031 11.863281 132.042969 9.183594 Z M 129.328125 -0.535156 C 129.28125 -0.535156 129.257812 -0.535156 129.234375 -0.558594 C 128.816406 -0.605469 128.46875 -0.605469 128.144531 -0.582031 C 128.050781 -0.464844 127.980469 -0.347656 127.890625 -0.207031 C 127.679688 0.164062 127.496094 0.675781 127.355469 1.285156 C 126.867188 3.195312 126.660156 6.035156 126.589844 9.4375 C 126.519531 13.46875 126.660156 18.246094 126.867188 23.046875 C 127.054688 22.09375 127.308594 21.183594 127.332031 20.601562 C 127.425781 18.714844 128.238281 16.800781 128.214844 14.984375 C 128.167969 11.441406 128.675781 8.019531 128.910156 4.476562 C 128.910156 4.359375 129.027344 4.289062 129.117188 4.289062 C 129.234375 4.289062 129.304688 4.382812 129.304688 4.5 C 129.070312 8.019531 128.5625 11.441406 128.609375 14.984375 C 128.632812 16.800781 127.820312 18.714844 127.726562 20.625 C 127.679688 21.460938 127.238281 22.929688 127.054688 24.257812 C 127.890625 19.457031 129.535156 15.988281 131.113281 9.625 C 131.390625 8.484375 131.277344 7.25 131.089844 6.035156 C 130.882812 4.730469 130.625 3.449219 130.625 2.261719 C 130.625 1.773438 130.164062 0.515625 129.535156 -0.300781 C 129.464844 -0.371094 129.398438 -0.464844 129.328125 -0.535156 Z M 144.640625 23.046875 C 144.570312 22.929688 144.480469 22.835938 144.363281 22.792969 C 144.269531 22.746094 144.175781 22.746094 144.0625 22.769531 C 144.109375 22.792969 144.175781 22.835938 144.222656 22.859375 C 144.339844 22.953125 144.480469 23 144.640625 23.046875 Z M 126.9375 -0.0898438 C 126.265625 0.421875 125.871094 1.332031 125.546875 2.613281 C 124.316406 7.320312 124.6875 12.515625 125.058594 17.246094 C 125.128906 18.0625 125.40625 18.898438 125.683594 19.738281 C 125.777344 19.996094 125.847656 20.226562 125.941406 20.484375 C 125.777344 16.570312 125.683594 12.746094 125.753906 9.4375 C 125.824219 5.382812 126.148438 2.074219 126.820312 0.1875 C 126.867188 0.09375 126.914062 0 126.9375 -0.0898438 Z M 131.4375 2.332031 C 131.4375 3.449219 131.71875 4.6875 131.902344 5.921875 C 132.019531 6.597656 132.089844 7.296875 132.113281 7.972656 C 132.113281 7.691406 132.136719 7.433594 132.136719 7.15625 C 132.113281 5.523438 131.902344 3.871094 131.4375 2.332031 Z M 131.4375 2.332031 " fill-opacity="1" fill-rule="evenodd"/></g></svg>